<svg width="475" height="378" viewBox="0 0 475 378" fill="none" xmlns="http://www.w3.org/2000/svg">
  <g clip-path="url(#clip0_3118_6028)">
    <path
      d="M354.378 377.299C352.386 377.299 350.429 376.778 348.701 375.788L283.315 338.063C282.816 337.775 282.401 337.361 282.112 336.862C281.824 336.363 281.672 335.797 281.672 335.22C281.672 334.644 281.824 334.077 282.112 333.578C282.401 333.079 282.816 332.665 283.315 332.377L401.625 264.127C401.723 264.068 401.836 264.037 401.951 264.037C402.066 264.037 402.179 264.068 402.278 264.127L402.83 264.439L473.013 304.932C473.513 305.22 473.928 305.634 474.217 306.133C474.505 306.633 474.657 307.199 474.657 307.775C474.657 308.352 474.505 308.918 474.217 309.417C473.928 309.916 473.513 310.331 473.013 310.619L360.059 375.788C358.33 376.779 356.371 377.3 354.378 377.299Z"
      fill="url(#paint0_linear_3118_6028)"
    />
    <path
      d="M307.266 338.231L408.17 280.016C408.501 279.825 408.876 279.725 409.258 279.725C409.64 279.725 410.015 279.825 410.346 280.016L446.278 300.79C446.397 300.858 446.496 300.955 446.564 301.074C446.633 301.192 446.669 301.326 446.669 301.462C446.669 301.599 446.633 301.733 446.564 301.851C446.496 301.969 446.397 302.067 446.278 302.134L345.426 360.321C345.096 360.511 344.722 360.612 344.341 360.612C343.959 360.612 343.585 360.511 343.255 360.321L307.275 339.575C307.156 339.508 307.056 339.411 306.987 339.294C306.917 339.176 306.88 339.043 306.879 338.906C306.878 338.769 306.913 338.635 306.981 338.517C307.049 338.398 307.147 338.3 307.266 338.231Z"
      fill="url(#paint1_linear_3118_6028)"
    />
    <g filter="url(#filter0_b_3118_6028)">
      <path
        d="M404.62 290.151L319.208 339.427L315.52 337.061L400.711 287.91L404.62 290.151Z"
        fill="url(#paint2_linear_3118_6028)"
      />
    </g>
    <path
      d="M410.163 297.973L332.618 342.714L329.957 339.753L406.268 295.723L410.163 297.973Z"
      fill="#D6D6D6"
    />
    <g filter="url(#filter1_b_3118_6028)">
      <path
        d="M428.843 294.384L332.039 350.229L328.145 347.983L424.943 292.133L428.843 294.384Z"
        fill="url(#paint3_linear_3118_6028)"
      />
    </g>
    <path
      d="M435.061 297.973L338.262 353.818L334.367 351.573L431.166 295.723L435.061 297.973Z"
      fill="#D6D6D6"
    />
    <path
      d="M441.284 301.563L344.486 357.408L340.586 355.162L437.389 299.317L441.284 301.563Z"
      fill="#D6D6D6"
    />
    <path
      d="M333.858 341.999L325.771 346.663L321.871 344.417L329.959 339.753L333.858 341.999Z"
      fill="#D6D6D6"
    />
    <g filter="url(#filter2_b_3118_6028)">
      <path
        d="M413.06 285.28L409.165 287.526L405.266 285.28L409.165 283.03L413.06 285.28Z"
        fill="url(#paint4_linear_3118_6028)"
      />
    </g>
    <path
      d="M422.62 290.794L414.528 295.459L410.633 293.213L418.72 288.544L422.62 290.794Z"
      fill="#D6D6D6"
    />
    <path
      d="M431.311 183.112L342.105 131.634C341.813 131.465 341.481 131.377 341.144 131.377C340.807 131.377 340.476 131.465 340.184 131.634L308.391 150.004C308.288 150.065 308.202 150.151 308.142 150.255C308.082 150.359 308.051 150.477 308.051 150.597C308.051 150.717 308.082 150.834 308.142 150.938C308.202 151.042 308.288 151.129 308.391 151.189L397.578 202.643C397.87 202.812 398.201 202.9 398.539 202.9C398.876 202.9 399.207 202.812 399.499 202.643L431.316 184.297C431.42 184.237 431.507 184.151 431.567 184.046C431.628 183.942 431.659 183.823 431.659 183.703C431.658 183.583 431.626 183.464 431.565 183.36C431.503 183.257 431.416 183.171 431.311 183.112Z"
      fill="url(#paint5_linear_3118_6028)"
    />
    <path
      d="M337.77 136.289L419.959 183.702L424.032 182.08L341.218 134.297L337.77 136.289Z"
      fill="#D6D6D6"
    />
    <path
      d="M329.32 141.16L402.015 183.102L405.464 181.115L332.764 139.173L329.32 141.16Z"
      fill="#D6D6D6"
    />
    <path
      d="M323.816 144.337L409.411 193.717L412.854 191.726L327.265 142.35L323.816 144.337Z"
      fill="#D6D6D6"
    />
    <path
      d="M318.312 147.509L403.907 196.889L407.355 194.903L321.761 145.522L318.312 147.509Z"
      fill="#D6D6D6"
    />
    <path
      d="M312.809 150.686L398.403 200.066L401.851 198.08L316.257 148.699L312.809 150.686Z"
      fill="#D6D6D6"
    />
    <path
      d="M419.957 183.702L423.4 185.694L426.849 183.702L423.4 181.715L419.957 183.702Z"
      fill="#D6D6D6"
    />
    <path
      d="M397.836 180.688L414.952 190.564L418.4 188.578L401.159 178.63L397.836 180.688Z"
      fill="#D6D6D6"
    />
    <path
      d="M36.5046 182.507L125.73 131.029C126.022 130.861 126.353 130.772 126.69 130.772C127.028 130.772 127.359 130.861 127.651 131.029L159.424 149.399C159.529 149.459 159.616 149.545 159.677 149.649C159.737 149.753 159.769 149.872 159.769 149.992C159.769 150.113 159.737 150.231 159.677 150.335C159.616 150.439 159.529 150.525 159.424 150.585L70.242 202.039C69.95 202.207 69.6187 202.296 69.2815 202.296C68.9443 202.296 68.613 202.207 68.321 202.039L36.5046 183.692C36.401 183.632 36.315 183.545 36.2553 183.441C36.1955 183.337 36.1641 183.22 36.1641 183.1C36.1641 182.98 36.1955 182.862 36.2553 182.758C36.315 182.654 36.401 182.568 36.5046 182.507Z"
      fill="url(#paint6_linear_3118_6028)"
    />
    <path
      d="M130.051 135.684L47.8616 183.102L43.7891 181.475L126.608 133.697L130.051 135.684Z"
      fill="#D6D6D6"
    />
    <path
      d="M138.499 140.56L65.8037 182.498L62.3555 180.511L135.055 138.568L138.499 140.56Z"
      fill="#D6D6D6"
    />
    <path
      d="M144.003 143.732L58.413 193.113L54.9648 191.126L140.559 141.745L144.003 143.732Z"
      fill="#D6D6D6"
    />
    <path
      d="M149.507 146.909L63.9121 196.29L60.4688 194.298L146.058 144.922L149.507 146.909Z"
      fill="#D6D6D6"
    />
    <path
      d="M155.011 150.081L69.416 199.462L65.9727 197.475L151.562 148.094L155.011 150.081Z"
      fill="#D6D6D6"
    />
    <path
      d="M47.8603 183.102L44.4169 185.089L40.9688 183.102L44.4169 181.111L47.8603 183.102Z"
      fill="#D6D6D6"
    />
    <path
      d="M69.9822 180.088L52.8661 189.965L49.418 187.973L66.6637 178.03L69.9822 180.088Z"
      fill="#D6D6D6"
    />
    <path
      d="M383.785 219.483L286.362 163.278C285.931 163.029 285.573 162.671 285.325 162.24C285.076 161.809 284.945 161.321 284.945 160.823C284.945 160.326 285.076 159.837 285.325 159.406C285.573 158.976 285.931 158.618 286.362 158.369L346.907 123.447L347.387 123.173C347.473 123.124 347.571 123.098 347.67 123.098C347.77 123.098 347.867 123.124 347.954 123.173L449.977 182.042C450.408 182.29 450.766 182.647 451.015 183.078C451.263 183.508 451.394 183.997 451.394 184.494C451.394 184.991 451.263 185.479 451.015 185.91C450.766 186.34 450.408 186.698 449.977 186.946L393.582 219.483C392.091 220.338 390.402 220.788 388.683 220.788C386.964 220.788 385.276 220.338 383.785 219.483Z"
      fill="url(#paint7_linear_3118_6028)"
    />
    <path
      d="M278.924 144.701L387.402 207.284C388.238 207.764 388.958 207.49 389.102 206.622L402.785 125.52C402.815 124.978 402.701 124.437 402.454 123.953C402.207 123.469 401.835 123.059 401.377 122.766L292.899 60.183C292.063 59.7032 291.348 59.9767 291.199 60.8453L277.517 141.947C277.486 142.489 277.599 143.031 277.847 143.515C278.094 143.999 278.466 144.408 278.924 144.701Z"
      fill="#2D2D2D"
    />
    <path
      d="M81.5783 220.788C79.8592 220.79 78.1698 220.339 76.6798 219.483L20.2843 186.946C19.8535 186.698 19.4957 186.34 19.2469 185.91C18.9982 185.479 18.8672 184.991 18.8672 184.494C18.8672 183.997 18.9982 183.508 19.2469 183.078C19.4957 182.647 19.8535 182.29 20.2843 182.042L122.323 123.178C122.409 123.129 122.506 123.102 122.606 123.102C122.705 123.102 122.803 123.129 122.889 123.178L123.369 123.452L183.905 158.373C184.335 158.623 184.693 158.98 184.942 159.411C185.19 159.842 185.321 160.331 185.321 160.828C185.321 161.325 185.19 161.814 184.942 162.245C184.693 162.676 184.335 163.034 183.905 163.283L86.4768 219.483C84.9863 220.338 83.2973 220.788 81.5783 220.788Z"
      fill="url(#paint8_linear_3118_6028)"
    />
    <path
      d="M81.5783 220.788C79.8592 220.79 78.1698 220.339 76.6798 219.483L20.2843 186.946C19.8535 186.698 19.4957 186.34 19.2469 185.91C18.9982 185.479 18.8672 184.991 18.8672 184.494C18.8672 183.997 18.9982 183.508 19.2469 183.078C19.4957 182.647 19.8535 182.29 20.2843 182.042L122.323 123.178C122.409 123.129 122.506 123.102 122.606 123.102C122.705 123.102 122.803 123.129 122.889 123.178L123.369 123.452L183.905 158.373C184.335 158.623 184.693 158.98 184.942 159.411C185.19 159.842 185.321 160.331 185.321 160.828C185.321 161.325 185.19 161.814 184.942 162.245C184.693 162.676 184.335 163.034 183.905 163.283L86.4768 219.483C84.9863 220.338 83.2973 220.788 81.5783 220.788Z"
      fill="url(#paint9_linear_3118_6028)"
    />
    <path
      d="M191.342 144.701L82.8638 207.284C82.0282 207.764 81.3078 207.49 81.1637 206.622L67.4815 125.52C67.4507 124.978 67.5648 124.437 67.8121 123.953C68.0593 123.469 68.4308 123.059 68.8886 122.766L177.381 60.183C178.217 59.7032 178.933 59.9767 179.081 60.8453L192.764 141.947C192.793 142.491 192.677 143.033 192.427 143.517C192.178 144.001 191.803 144.41 191.342 144.701Z"
      fill="#2D2D2D"
    />
    <path
      d="M298.329 179.75L322.271 226.705L262.983 263.921L179.752 254.181L155.809 207.226L215.098 170.01L298.329 179.75Z"
      fill="url(#paint10_linear_3118_6028)"
      stroke="#FFB21D"
      stroke-width="2"
      stroke-linejoin="round"
    />
    <path
      d="M235.606 183.385L238.815 181.538L235.606 179.685L232.398 181.538L235.606 183.385Z"
      fill="#FFB629"
    />
    <path
      opacity="0.1"
      d="M229.189 187.085L232.397 185.238L229.189 183.385L225.98 185.238L229.189 187.085Z"
      fill="#FFB629"
    />
    <path
      opacity="0.4"
      d="M222.774 190.785L225.982 188.938L222.774 187.085L219.57 188.938L222.774 190.785Z"
      fill="#FFB629"
    />
    <path
      d="M216.36 194.49L219.568 192.638L216.36 190.785L213.152 192.638L216.36 194.49Z"
      fill="#FFB629"
    />
    <path
      opacity="0.4"
      d="M209.946 198.19L213.154 196.338L209.946 194.49L206.738 196.338L209.946 198.19Z"
      fill="#FFB629"
    />
    <path
      d="M203.527 201.89L206.736 200.037L203.527 198.19L200.324 200.037L203.527 201.89Z"
      fill="#FFB629"
    />
    <path
      d="M197.118 205.59L200.326 203.742L197.118 201.89L193.91 203.742L197.118 205.59Z"
      fill="#FFB629"
    />
    <path
      d="M190.7 209.29L193.908 207.442L190.7 205.59L187.492 207.442L190.7 209.29Z"
      fill="#FFB629"
    />
    <path
      opacity="0.1"
      d="M184.285 212.99L187.493 211.142L184.285 209.29L181.082 211.142L184.285 212.99Z"
      fill="#FFB629"
    />
    <path
      d="M242.044 187.1L245.252 185.252L242.044 183.4L238.836 185.252L242.044 187.1Z"
      fill="#FFB629"
    />
    <path
      d="M235.63 190.804L238.838 188.952L235.63 187.1L232.422 188.952L235.63 190.804Z"
      fill="#FFB629"
    />
    <path
      d="M229.216 194.504L232.419 192.652L229.216 190.804L226.008 192.652L229.216 194.504Z"
      fill="#FFB629"
    />
    <path
      opacity="0.8"
      d="M222.802 198.204L226.01 196.352L222.802 194.504L219.594 196.352L222.802 198.204Z"
      fill="#409AF5"
    />
    <path
      d="M216.384 201.904L219.592 200.057L216.384 198.204L213.176 200.057L216.384 201.904Z"
      fill="#FFB629"
    />
    <path
      d="M209.969 205.604L213.177 203.757L209.969 201.904L206.766 203.757L209.969 205.604Z"
      fill="#FFB629"
    />
    <path
      opacity="0.8"
      d="M203.56 209.304L206.768 207.457L203.56 205.604L200.352 207.457L203.56 209.304Z"
      fill="#409AF5"
    />
    <path
      d="M197.142 213.009L200.35 211.157L197.142 209.304L193.934 211.157L197.142 213.009Z"
      fill="#FFB629"
    />
    <path
      opacity="0.8"
      d="M190.727 216.709L193.935 214.856L190.727 213.009L187.523 214.856L190.727 216.709Z"
      fill="#409AF5"
    />
    <path
      d="M248.485 190.819L251.693 188.966L248.485 187.119L245.277 188.966L248.485 190.819Z"
      fill="#FFB629"
    />
    <path
      opacity="0.8"
      d="M242.067 194.519L245.276 192.666L242.067 190.819L238.859 192.666L242.067 194.519Z"
      fill="#409AF5"
    />
    <path
      d="M235.657 198.219L238.86 196.366L235.657 194.519L232.449 196.366L235.657 198.219Z"
      fill="#FFB629"
    />
    <path
      opacity="0.1"
      d="M229.243 201.919L232.451 200.071L229.243 198.219L226.035 200.071L229.243 201.919Z"
      fill="#FFB629"
    />
    <path
      opacity="0.4"
      d="M222.825 205.619L226.033 203.771L222.825 201.919L219.617 203.771L222.825 205.619Z"
      fill="#FFB629"
    />
    <path
      opacity="0.4"
      d="M216.415 209.323L219.618 207.471L216.415 205.619L213.207 207.471L216.415 209.323Z"
      fill="#FFB629"
    />
    <path
      d="M209.997 213.023L213.205 211.171L209.997 209.323L206.789 211.171L209.997 213.023Z"
      fill="#FFB629"
    />
    <path
      d="M203.583 216.723L206.791 214.871L203.583 213.023L200.375 214.871L203.583 216.723Z"
      fill="#FFB629"
    />
    <path
      d="M197.169 220.423L200.372 218.571L197.169 216.723L193.961 218.571L197.169 220.423Z"
      fill="#FFB629"
    />
    <path
      opacity="0.4"
      d="M254.927 194.533L258.135 192.681L254.927 190.833L251.719 192.681L254.927 194.533Z"
      fill="#FFB629"
    />
    <path
      opacity="0.4"
      d="M248.508 198.233L251.716 196.386L248.508 194.533L245.305 196.386L248.508 198.233Z"
      fill="#FFB629"
    />
    <path
      opacity="0.1"
      d="M242.099 201.933L245.307 200.085L242.099 198.233L238.891 200.085L242.099 201.933Z"
      fill="#FFB629"
    />
    <path
      d="M235.681 205.633L238.889 203.785L235.681 201.933L232.473 203.785L235.681 205.633Z"
      fill="#FFB629"
    />
    <path
      d="M229.267 209.338L232.475 207.485L229.267 205.633L226.059 207.485L229.267 209.338Z"
      fill="#FFB629"
    />
    <path
      opacity="0.8"
      d="M222.853 213.038L226.056 211.185L222.853 209.338L219.645 211.185L222.853 213.038Z"
      fill="#409AF5"
    />
    <path
      opacity="0.4"
      d="M216.438 216.738L219.646 214.885L216.438 213.038L213.23 214.885L216.438 216.738Z"
      fill="#FFB629"
    />
    <path
      d="M210.021 220.438L213.229 218.59L210.021 216.738L206.812 218.59L210.021 220.438Z"
      fill="#FFB629"
    />
    <path
      d="M203.61 224.138L206.814 222.29L203.61 220.438L200.402 222.29L203.61 224.138Z"
      fill="#FFB629"
    />
    <path
      opacity="0.8"
      d="M261.364 198.247L264.572 196.4L261.364 194.548L258.156 196.4L261.364 198.247Z"
      fill="#409AF5"
    />
    <path
      d="M254.949 201.947L258.157 200.1L254.949 198.247L251.746 200.1L254.949 201.947Z"
      fill="#FFB629"
    />
    <path
      d="M248.536 205.652L251.744 203.8L248.536 201.947L245.328 203.8L248.536 205.652Z"
      fill="#FFB629"
    />
    <path
      d="M242.122 209.352L245.33 207.5L242.122 205.652L238.914 207.5L242.122 209.352Z"
      fill="#FFB629"
    />
    <path
      opacity="0.8"
      d="M235.707 213.052L238.915 211.2L235.707 209.352L232.504 211.2L235.707 213.052Z"
      fill="#409AF5"
    />
    <path
      opacity="0.8"
      d="M229.294 216.752L232.502 214.9L229.294 213.052L226.086 214.9L229.294 216.752Z"
      fill="#409AF5"
    />
    <path
      d="M222.88 220.452L226.088 218.604L222.88 216.752L219.672 218.604L222.88 220.452Z"
      fill="#FFB629"
    />
    <path
      d="M216.461 224.152L219.669 222.304L216.461 220.452L213.258 222.304L216.461 224.152Z"
      fill="#FFB629"
    />
    <path
      d="M210.052 227.857L213.26 226.004L210.052 224.152L206.844 226.004L210.052 227.857Z"
      fill="#FFB629"
    />
    <path
      d="M267.806 201.967L271.014 200.114L267.806 198.262L264.598 200.114L267.806 201.967Z"
      fill="#FFB629"
    />
    <path
      d="M261.391 205.667L264.599 203.814L261.391 201.967L258.188 203.814L261.391 205.667Z"
      fill="#FFB629"
    />
    <path
      opacity="0.4"
      d="M254.978 209.367L258.186 207.514L254.978 205.667L251.77 207.514L254.978 209.367Z"
      fill="#FFB629"
    />
    <path
      opacity="0.8"
      d="M248.564 213.067L251.772 211.214L248.564 209.367L245.355 211.214L248.564 213.067Z"
      fill="#409AF5"
    />
    <path
      opacity="0.1"
      d="M242.145 216.766L245.353 214.919L242.145 213.067L238.941 214.919L242.145 216.766Z"
      fill="#FFB629"
    />
    <path
      d="M235.735 220.466L238.943 218.619L235.735 216.766L232.527 218.619L235.735 220.466Z"
      fill="#FFB629"
    />
    <path
      d="M229.317 224.171L232.525 222.319L229.317 220.466L226.109 222.319L229.317 224.171Z"
      fill="#FFB629"
    />
    <path
      opacity="0.8"
      d="M222.902 227.871L226.111 226.019L222.902 224.171L219.699 226.019L222.902 227.871Z"
      fill="#409AF5"
    />
    <path
      d="M216.489 231.571L219.697 229.719L216.489 227.871L213.281 229.719L216.489 231.571Z"
      fill="#FFB629"
    />
    <path
      d="M274.247 205.681L277.455 203.829L274.247 201.981L271.039 203.829L274.247 205.681Z"
      fill="#FFB629"
    />
    <path
      d="M267.833 209.381L271.036 207.529L267.833 205.681L264.625 207.529L267.833 209.381Z"
      fill="#FFB629"
    />
    <path
      opacity="0.4"
      d="M261.419 213.081L264.627 211.233L261.419 209.381L258.211 211.233L261.419 213.081Z"
      fill="#FFB629"
    />
    <path
      d="M255.001 216.781L258.209 214.933L255.001 213.081L251.793 214.933L255.001 216.781Z"
      fill="#FFB629"
    />
    <path
      d="M248.591 220.481L251.794 218.633L248.591 216.781L245.383 218.633L248.591 220.481Z"
      fill="#FFB629"
    />
    <path
      opacity="0.1"
      d="M242.173 224.186L245.381 222.333L242.173 220.481L238.965 222.333L242.173 224.186Z"
      fill="#FFB629"
    />
    <path
      opacity="0.4"
      d="M235.759 227.886L238.967 226.033L235.759 224.186L232.551 226.033L235.759 227.886Z"
      fill="#FFB629"
    />
    <path
      d="M229.349 231.585L232.552 229.733L229.349 227.886L226.141 229.733L229.349 231.585Z"
      fill="#FFB629"
    />
    <path
      opacity="0.1"
      d="M222.931 235.285L226.139 233.438L222.931 231.585L219.723 233.438L222.931 235.285Z"
      fill="#FFB629"
    />
    <path
      d="M280.685 209.395L283.893 207.548L280.685 205.695L277.477 207.548L280.685 209.395Z"
      fill="#FFB629"
    />
    <path
      opacity="0.4"
      d="M274.274 213.095L277.478 211.248L274.274 209.395L271.066 211.248L274.274 213.095Z"
      fill="#FFB629"
    />
    <path
      d="M267.856 216.795L271.065 214.948L267.856 213.095L264.648 214.948L267.856 216.795Z"
      fill="#FFB629"
    />
    <path
      d="M261.442 220.5L264.65 218.648L261.442 216.795L258.238 218.648L261.442 220.5Z"
      fill="#FFB629"
    />
    <path
      d="M255.032 224.2L258.24 222.348L255.032 220.5L251.824 222.348L255.032 224.2Z"
      fill="#FFB629"
    />
    <path
      d="M248.614 227.9L251.822 226.048L248.614 224.2L245.406 226.048L248.614 227.9Z"
      fill="#FFB629"
    />
    <path
      d="M242.2 231.6L245.408 229.747L242.2 227.9L238.992 229.747L242.2 231.6Z"
      fill="#FFB629"
    />
    <path
      opacity="0.4"
      d="M235.786 235.3L238.989 233.452L235.786 231.6L232.578 233.452L235.786 235.3Z"
      fill="#FFB629"
    />
    <path
      d="M229.372 239L232.58 237.152L229.372 235.3L226.164 237.152L229.372 239Z"
      fill="#FFB629"
    />
    <path
      d="M287.125 213.11L290.333 211.262L287.125 209.41L283.922 211.262L287.125 213.11Z"
      fill="#FFB629"
    />
    <path
      opacity="0.1"
      d="M280.716 216.814L283.924 214.962L280.716 213.11L277.508 214.962L280.716 216.814Z"
      fill="#FFB629"
    />
    <path
      opacity="0.8"
      d="M274.298 220.514L277.506 218.662L274.298 216.814L271.09 218.662L274.298 220.514Z"
      fill="#409AF5"
    />
    <path
      d="M267.883 224.214L271.091 222.362L267.883 220.514L264.68 222.362L267.883 224.214Z"
      fill="#FFB629"
    />
    <path
      d="M261.47 227.914L264.678 226.062L261.47 224.214L258.262 226.062L261.47 227.914Z"
      fill="#FFB629"
    />
    <path
      d="M255.056 231.614L258.264 229.767L255.056 227.914L251.848 229.767L255.056 231.614Z"
      fill="#FFB629"
    />
    <path
      opacity="0.4"
      d="M248.637 235.314L251.845 233.467L248.637 231.614L245.434 233.467L248.637 235.314Z"
      fill="#FFB629"
    />
    <path
      opacity="0.8"
      d="M242.228 239.014L245.436 237.167L242.228 235.314L239.02 237.167L242.228 239.014Z"
      fill="#409AF5"
    />
    <path
      d="M235.81 242.719L239.018 240.867L235.81 239.014L232.602 240.867L235.81 242.719Z"
      fill="#FFB629"
    />
    <path
      d="M114.598 376.483L1.63881 311.319C1.14035 311.03 0.726605 310.615 0.438995 310.116C0.151384 309.617 0 309.052 0 308.476C0 307.9 0.151384 307.334 0.438995 306.835C0.726605 306.336 1.14035 305.921 1.63881 305.632L71.827 265.139L72.3793 264.823C72.4784 264.765 72.5911 264.734 72.7059 264.734C72.8206 264.734 72.9333 264.765 73.0324 264.823L191.341 333.073C191.84 333.362 192.253 333.777 192.541 334.277C192.828 334.776 192.98 335.342 192.98 335.918C192.98 336.494 192.828 337.06 192.541 337.56C192.253 338.059 191.84 338.474 191.341 338.764L125.956 376.483C124.228 377.477 122.27 378 120.277 378C118.284 378 116.325 377.477 114.598 376.483Z"
      fill="url(#paint11_linear_3118_6028)"
    />
    <path
      d="M166.694 337.536L65.7839 279.32C65.4532 279.129 65.078 279.029 64.6961 279.029C64.3143 279.029 63.9391 279.129 63.6084 279.32L27.6762 300.095C27.5585 300.162 27.4608 300.26 27.3928 300.377C27.3248 300.495 27.2891 300.628 27.2891 300.764C27.2891 300.9 27.3248 301.033 27.3928 301.151C27.4608 301.268 27.5585 301.366 27.6762 301.434L128.528 359.625C128.858 359.815 129.233 359.915 129.614 359.915C129.995 359.915 130.369 359.815 130.699 359.625L166.684 338.875C166.802 338.808 166.901 338.711 166.969 338.594C167.038 338.477 167.075 338.344 167.076 338.208C167.077 338.072 167.042 337.939 166.975 337.821C166.908 337.703 166.811 337.604 166.694 337.536Z"
      fill="url(#paint12_linear_3118_6028)"
    />
    <path
      d="M69.3398 289.451L154.757 338.731L158.445 336.36L73.2539 287.214L69.3398 289.451Z"
      fill="#D6D6D6"
    />
    <g filter="url(#filter3_b_3118_6028)">
      <path
        d="M63.7969 297.278L141.342 342.018L144.003 339.052L67.6869 295.027L63.7969 297.278Z"
        fill="url(#paint13_linear_3118_6028)"
      />
    </g>
    <path
      d="M45.1211 293.683L141.925 349.533L145.819 347.282L49.0207 291.437L45.1211 293.683Z"
      fill="#D6D6D6"
    />
    <path
      d="M38.8984 297.273L135.697 353.123L139.592 350.872L42.7932 295.027L38.8984 297.273Z"
      fill="#D6D6D6"
    />
    <g filter="url(#filter4_b_3118_6028)">
      <path
        d="M32.6758 300.867L129.474 356.712L133.369 354.461L36.5706 298.617L32.6758 300.867Z"
        fill="url(#paint14_linear_3118_6028)"
      />
    </g>
    <path
      d="M140.102 341.303L148.189 345.967L152.089 343.717L144.001 339.052L140.102 341.303Z"
      fill="#D6D6D6"
    />
    <path
      d="M60.8984 284.58L64.7933 286.831L68.6929 284.58L64.7933 282.334L60.8984 284.58Z"
      fill="#D6D6D6"
    />
    <path
      d="M51.3438 290.094L59.4359 294.763L63.3307 292.512L55.2434 287.848L51.3438 290.094Z"
      fill="#D6D6D6"
    />
    <g opacity="0.25">
      <path
        opacity="0.25"
        d="M238.915 99.3949L235.707 97.5425L232.504 99.3949L235.707 101.242L238.915 99.3949Z"
        fill="#FFB629"
      />
      <path
        opacity="0.25"
        d="M251.822 114.243L248.614 112.39L245.406 114.243L248.614 116.09L251.822 114.243Z"
        fill="#FFB629"
      />
      <path
        opacity="0.25"
        d="M213.205 99.3661L209.997 97.5137L206.789 99.3661L209.997 101.214L213.205 99.3661Z"
        fill="#FFB629"
      />
      <path
        opacity="0.25"
        d="M209.969 90.0994L206.766 91.947L209.969 93.7994L213.177 91.947L209.969 90.0994Z"
        fill="#FFB629"
      />
      <path
        opacity="0.25"
        d="M235.681 93.8282L238.889 91.9758L235.681 90.1282L232.473 91.9758L235.681 93.8282Z"
        fill="#FFB629"
      />
      <path
        opacity="0.25"
        d="M277.455 92.0238L274.247 90.1714L271.039 92.0238L274.247 93.8714L277.455 92.0238Z"
        fill="#FFB629"
      />
      <path
        opacity="0.25"
        d="M271.066 99.4381L274.274 101.29L277.478 99.4381L274.274 97.5857L271.066 99.4381Z"
        fill="#FFB629"
      />
      <path
        opacity="0.25"
        d="M226.06 99.3805L222.857 97.5281L219.648 99.3805L222.857 101.228L226.06 99.3805Z"
        fill="#FFB629"
      />
      <path
        opacity="0.25"
        d="M226.088 106.795L222.88 104.947L219.672 106.795L222.88 108.647L226.088 106.795Z"
        fill="#FFB629"
      />
      <path
        opacity="0.25"
        d="M238.989 121.643L235.786 119.79L232.578 121.643L235.786 123.495L238.989 121.643Z"
        fill="#FFB629"
      />
      <path
        opacity="0.25"
        d="M219.723 121.628L222.931 123.481L226.139 121.628L222.931 119.776L219.723 121.628Z"
        fill="#FFB629"
      />
      <path
        opacity="0.25"
        d="M219.669 110.495L216.461 108.647L213.258 110.495L216.461 112.347L219.669 110.495Z"
        fill="#FFB629"
      />
      <path
        opacity="0.25"
        d="M193.965 106.766L197.173 108.614L200.376 106.766L197.173 104.914L193.965 106.766Z"
        fill="#FFB629"
      />
      <path
        opacity="0.25"
        d="M239.02 125.357L242.228 127.209L245.436 125.357L242.228 123.509L239.02 125.357Z"
        fill="#FFB629"
      />
      <path
        opacity="0.25"
        d="M258.262 114.257L261.47 116.105L264.678 114.257L261.47 112.405L258.262 114.257Z"
        fill="#FFB629"
      />
      <path
        opacity="0.25"
        d="M238.859 80.8615L242.067 82.7091L245.276 80.8615L242.067 79.0091L238.859 80.8615Z"
        fill="#FFB629"
      />
      <path
        opacity="0.25"
        d="M245.252 73.4424L242.044 71.5948L238.836 73.4424L242.044 75.2948L245.252 73.4424Z"
        fill="#FFB629"
      />
      <path
        opacity="0.25"
        d="M258.135 80.8759L254.927 79.0236L251.719 80.8759L254.927 82.7235L258.135 80.8759Z"
        fill="#FFB629"
      />
      <path
        opacity="0.25"
        d="M225.982 77.128L222.774 75.2804L219.57 77.128L222.774 78.9804L225.982 77.128Z"
        fill="#FFB629"
      />
      <path
        opacity="0.25"
        d="M200.326 91.9326L197.118 90.0802L193.91 91.9326L197.118 93.7849L200.326 91.9326Z"
        fill="#FFB629"
      />
    </g>
    <g opacity="0.5">
      <path
        opacity="0.5"
        d="M238.915 136.663L235.707 134.811L232.504 136.663L235.707 138.511L238.915 136.663Z"
        fill="#FFB629"
      />
      <path
        opacity="0.5"
        d="M251.822 151.511L248.614 149.659L245.406 151.511L248.614 153.359L251.822 151.511Z"
        fill="#FFB629"
      />
      <path
        opacity="0.5"
        d="M213.205 136.634L209.997 134.782L206.789 136.634L209.997 138.482L213.205 136.634Z"
        fill="#FFB629"
      />
      <path
        opacity="0.5"
        d="M209.969 127.368L206.766 129.215L209.969 131.068L213.177 129.215L209.969 127.368Z"
        fill="#FFB629"
      />
      <path
        opacity="0.5"
        d="M235.681 131.096L238.889 129.244L235.681 127.396L232.473 129.244L235.681 131.096Z"
        fill="#FFB629"
      />
      <path
        opacity="0.5"
        d="M277.455 129.292L274.247 127.44L271.039 129.292L274.247 131.14L277.455 129.292Z"
        fill="#FFB629"
      />
      <path
        opacity="0.5"
        d="M271.066 136.706L274.274 138.559L277.478 136.706L274.274 134.859L271.066 136.706Z"
        fill="#FFB629"
      />
      <path
        opacity="0.5"
        d="M226.06 136.649L222.857 134.796L219.648 136.649L222.857 138.496L226.06 136.649Z"
        fill="#FFB629"
      />
      <path
        opacity="0.5"
        d="M226.088 144.063L222.88 142.216L219.672 144.063L222.88 145.915L226.088 144.063Z"
        fill="#FFB629"
      />
      <path
        opacity="0.5"
        d="M238.989 158.911L235.786 157.063L232.578 158.911L235.786 160.763L238.989 158.911Z"
        fill="#FFB629"
      />
      <path
        opacity="0.5"
        d="M219.723 158.896L222.931 160.749L226.139 158.896L222.931 157.044L219.723 158.896Z"
        fill="#FFB629"
      />
      <path
        opacity="0.5"
        d="M219.669 147.763L216.461 145.915L213.258 147.763L216.461 149.615L219.669 147.763Z"
        fill="#FFB629"
      />
      <path
        opacity="0.5"
        d="M193.965 144.034L197.173 145.887L200.376 144.034L197.173 142.182L193.965 144.034Z"
        fill="#FFB629"
      />
      <path
        opacity="0.5"
        d="M239.02 162.625L242.228 164.478L245.436 162.625L242.228 160.778L239.02 162.625Z"
        fill="#FFB629"
      />
      <path
        opacity="0.5"
        d="M258.262 151.525L261.47 153.378L264.678 151.525L261.47 149.673L258.262 151.525Z"
        fill="#FFB629"
      />
      <path
        opacity="0.5"
        d="M238.859 118.13L242.067 119.977L245.276 118.13L242.067 116.277L238.859 118.13Z"
        fill="#FFB629"
      />
      <path
        opacity="0.5"
        d="M245.252 110.715L242.044 108.863L238.836 110.715L242.044 112.563L245.252 110.715Z"
        fill="#FFB629"
      />
      <path
        opacity="0.5"
        d="M258.135 118.144L254.927 116.297L251.719 118.144L254.927 119.997L258.135 118.144Z"
        fill="#FFB629"
      />
      <path
        opacity="0.5"
        d="M225.982 114.396L222.774 112.549L219.57 114.396L222.774 116.249L225.982 114.396Z"
        fill="#FFB629"
      />
      <path
        opacity="0.5"
        d="M200.326 129.201L197.118 127.353L193.91 129.201L197.118 131.053L200.326 129.201Z"
        fill="#FFB629"
      />
    </g>
    <g opacity="0.75">
      <path
        opacity="0.75"
        d="M238.915 173.931L235.707 172.084L232.504 173.931L235.707 175.784L238.915 173.931Z"
        fill="#FFB629"
      />
      <path
        opacity="0.75"
        d="M251.822 188.779L248.614 186.932L245.406 188.779L248.614 190.632L251.822 188.779Z"
        fill="#FFB629"
      />
      <path
        opacity="0.75"
        d="M213.205 173.903L209.997 172.05L206.789 173.903L209.997 175.755L213.205 173.903Z"
        fill="#FFB629"
      />
      <path
        opacity="0.75"
        d="M209.969 164.636L206.766 166.488L209.969 168.336L213.177 166.488L209.969 164.636Z"
        fill="#FFB629"
      />
      <path
        opacity="0.75"
        d="M235.681 168.365L238.889 166.517L235.681 164.665L232.473 166.517L235.681 168.365Z"
        fill="#FFB629"
      />
      <path
        opacity="0.75"
        d="M277.455 166.56L274.247 164.713L271.039 166.56L274.247 168.413L277.455 166.56Z"
        fill="#FFB629"
      />
      <path
        opacity="0.75"
        d="M271.066 173.979L274.274 175.827L277.478 173.979L274.274 172.127L271.066 173.979Z"
        fill="#FFB629"
      />
      <path
        opacity="0.75"
        d="M226.06 173.917L222.857 172.069L219.648 173.917L222.857 175.769L226.06 173.917Z"
        fill="#FFB629"
      />
      <path
        opacity="0.75"
        d="M226.088 181.331L222.88 179.484L219.672 181.336L222.88 183.184L226.088 181.331Z"
        fill="#FFB629"
      />
      <path
        opacity="0.75"
        d="M219.669 185.036L216.461 183.184L213.258 185.036L216.461 186.884L219.669 185.036Z"
        fill="#FFB629"
      />
      <path
        opacity="0.75"
        d="M193.965 181.303L197.173 183.155L200.376 181.303L197.173 179.455L193.965 181.303Z"
        fill="#FFB629"
      />
      <path
        opacity="0.75"
        d="M258.262 188.794L261.47 190.646L264.678 188.794L261.47 186.946L258.262 188.794Z"
        fill="#FFB629"
      />
      <path
        opacity="0.75"
        d="M238.859 155.398L242.067 157.25L245.276 155.398L242.067 153.546L238.859 155.398Z"
        fill="#FFB629"
      />
      <path
        opacity="0.75"
        d="M245.252 147.984L242.044 146.131L238.836 147.984L242.044 149.831L245.252 147.984Z"
        fill="#FFB629"
      />
      <path
        opacity="0.75"
        d="M258.135 155.412L254.927 153.565L251.719 155.412L254.927 157.265L258.135 155.412Z"
        fill="#FFB629"
      />
      <path
        opacity="0.75"
        d="M225.982 151.669L222.774 149.817L219.57 151.669L222.774 153.517L225.982 151.669Z"
        fill="#FFB629"
      />
      <path
        opacity="0.75"
        d="M200.326 166.469L197.118 164.622L193.91 166.469L197.118 168.321L200.326 166.469Z"
        fill="#FFB629"
      />
    </g>
    <path
      d="M160.5 251.5L161.887 0H308.732V211.022L263.5 263L160.5 251.5Z"
      fill="url(#paint15_linear_3118_6028)"
    />
    <path
      d="M75.3879 257.495L203.379 331.335C204.363 331.907 205.208 331.58 205.386 330.558L221.527 234.858C221.71 233.774 220.917 232.214 219.866 231.609L91.894 157.769C90.9047 157.198 90.0594 157.529 89.8866 158.551L73.7214 254.251C73.5389 255.335 74.3361 256.89 75.3879 257.495Z"
      fill="black"
    />
    <path
      d="M169.336 293.011L159.351 287.253L159.644 285.52L169.629 291.279L169.336 293.011ZM158.04 284.594L152.604 281.451L152.311 283.183L157.747 286.341L158.04 284.594ZM144.142 276.57L140.204 274.3L139.911 276.028L143.849 278.303L144.142 276.57ZM147.023 278.226L145.679 277.453L145.386 279.181L146.73 279.958L147.023 278.226ZM150.99 280.52L148.551 279.109L148.258 280.841L150.697 282.252L150.99 280.52ZM161.743 278.029L157.795 275.783L157.502 277.516L161.436 279.786L161.743 278.029ZM170.978 283.366L163.27 278.912L162.977 280.645L170.661 285.098L170.978 283.366ZM162.607 265.509L160.163 264.098L159.87 265.83L162.314 267.241L162.607 265.509ZM165.619 221.1L180.141 229.488L180.434 227.756L165.912 219.367L165.619 221.1ZM160.499 218.144L164.091 220.222L164.384 218.489L160.792 216.411L160.499 218.144ZM129.835 213.508L133.432 215.581L133.725 213.849L130.128 211.776L129.835 213.508ZM175.521 231.154L179.459 233.428L179.752 231.696L175.814 229.421L175.521 231.154ZM166.286 225.841L174.018 230.295L174.311 228.562L166.598 224.109L166.286 225.841ZM162.319 223.547L164.764 224.958L165.057 223.226L162.612 221.815L162.319 223.547ZM153.017 218.197L160.725 222.65L161.018 220.918L153.31 216.464L153.017 218.197ZM149.045 215.893L151.485 217.304L151.778 215.572L149.338 214.161L149.045 215.893ZM152.248 222.084L156.182 224.358L156.475 222.626L152.537 220.351L152.248 222.084ZM143.018 216.757L150.726 221.205L151.019 219.478L143.311 215.024L143.018 216.757ZM139.051 214.463L141.491 215.874L141.784 214.141L139.339 212.731L139.051 214.463ZM157.93 225.361L161.868 227.631L162.161 225.899L158.223 223.629L157.93 225.361ZM119.75 207.706L127.799 212.356L128.092 210.624L120.043 205.974L119.75 207.706ZM112.402 203.464L118.223 206.823L118.516 205.091L112.695 201.732L112.402 203.464ZM122.891 259.981L114.842 255.33L114.549 257.063L122.632 261.713L122.891 259.981ZM130.239 264.223L124.418 260.864L124.125 262.596L129.946 265.955L130.239 264.223ZM135.699 267.376L131.766 265.106L131.473 266.838L135.406 269.108L135.699 267.376ZM125.566 265.883L117.512 261.233L117.219 262.965L125.292 267.625L125.566 265.883ZM132.914 270.125L127.088 266.766L126.795 268.499L132.621 271.858L132.914 270.125ZM138.374 273.278L134.436 271.008L134.143 272.741L138.081 275.011L138.374 273.278ZM158.064 258.565L155.346 256.996L155.053 258.728L157.771 260.297L158.064 258.565ZM163.184 261.521L159.611 259.467L159.318 261.199L162.91 263.273L163.184 261.521ZM169.989 236.687L178.038 241.337L178.331 239.604L170.282 234.954L169.989 236.687ZM162.641 232.44L168.462 235.799L168.755 234.067L162.934 230.707L162.641 232.44ZM157.209 229.287L161.147 231.561L161.436 229.829L157.502 227.554L157.209 229.287ZM174.681 243.722L177.399 245.291L177.692 243.559L174.979 241.99L174.681 243.722ZM169.561 240.751L173.154 242.825L173.447 241.092L169.854 239.019L169.561 240.751ZM162.247 236.524L168.039 239.883L168.332 238.15L162.54 234.791L162.247 236.524ZM154.395 269.458L151.677 267.889L151.384 269.622L154.102 271.191L154.395 269.458ZM159.515 272.424L155.918 270.346L155.625 272.079L159.222 274.152L159.515 272.424ZM150.251 263.042L144.464 259.683L144.171 261.415L149.934 264.775L150.251 263.042ZM159.721 268.201L151.927 263.705L151.634 265.437L159.438 269.943L159.721 268.201ZM163.688 270.49L161.248 269.084L160.955 270.812L163.395 272.223L163.688 270.49ZM167.496 272.693L165.057 271.282L164.764 273.014L167.203 274.425L167.496 272.693ZM166.973 250.349L159.265 245.896L158.972 247.628L166.68 252.082L166.973 250.349ZM170.94 252.643L168.5 251.232L168.207 252.965L170.647 254.371L170.94 252.643ZM166.445 245.699L163.726 244.111L163.433 245.843L166.152 247.417L166.445 245.699ZM156.84 248.866L154.117 247.297L153.828 249.029L156.547 250.599L156.84 248.866ZM152.959 246.63L146.437 242.868L146.164 244.591L152.69 248.358L152.959 246.63ZM145.275 242.201L141.39 239.96L141.102 241.692L144.982 243.933L145.275 242.201ZM171.554 248.655L167.957 246.577L167.664 248.31L171.261 250.388L171.554 248.655ZM171.891 244.591L169.172 243.016L168.879 244.749L171.617 246.318L171.891 244.591ZM177.01 247.547L173.418 245.469L173.125 247.201L176.717 249.279L177.01 247.547ZM160.778 251.146L158.338 249.735L158.045 251.467L160.485 252.873L160.778 251.146ZM164.586 253.344L162.146 251.933L161.853 253.665L164.293 255.076L164.586 253.344ZM155.159 278.615L147.364 274.104L147.071 275.831L154.875 280.342L155.159 278.615ZM159.126 280.904L156.686 279.493L156.393 281.225L158.833 282.636L159.126 280.904ZM162.934 283.102L160.49 281.696L160.197 283.423L162.641 284.834L162.934 283.102ZM164.721 286.039L170.003 289.081L170.296 287.349L165.013 284.306L164.721 286.039Z"
      fill="url(#paint16_linear_3118_6028)"
    />
    <path
      d="M159.61 257.024L151.926 252.576L152.219 250.844L159.932 255.297L159.61 257.024ZM163.87 257.586L161.425 256.175L161.132 257.907L163.577 259.318L163.87 257.586ZM158.649 263.22L150.937 258.766L150.644 260.499L158.356 264.952L158.649 263.22ZM134.983 216.464L149.51 224.853L149.803 223.12L135.276 214.732L134.983 216.464ZM151.604 226.062L155.542 228.332L155.835 226.599L151.897 224.33L151.604 226.062ZM170.761 232.78L178.791 237.392L179.079 235.66L171.03 231.01L170.761 232.78ZM163.413 228.538L169.234 231.897L169.527 230.165L163.706 226.806L163.413 228.538ZM106.984 200.335L110.918 202.61L111.211 200.877L107.263 198.579L106.984 200.335ZM166.814 276.657L161.022 273.298L160.729 275.03L166.521 278.389L166.814 276.657ZM145.822 273.221L137.495 268.422L137.202 270.154L145.529 274.953L145.822 273.221Z"
      fill="url(#paint17_linear_3118_6028)"
    />
    <path
      d="M395.822 255.858L267.831 329.699C266.847 330.27 266.001 329.944 265.824 328.922L249.682 233.222C249.5 232.133 250.292 230.578 251.344 229.973L379.335 156.132C380.324 155.561 381.17 155.892 381.342 156.915L397.488 252.609C397.671 253.708 396.854 255.254 395.822 255.858Z"
      fill="black"
    />
    <path
      d="M350.04 195.642L340.06 201.4L339.767 199.668L349.747 193.909L350.04 195.642ZM338.163 200.594L332.722 203.737L333.015 205.47L338.456 202.327L338.163 200.594ZM324.26 208.618L320.327 210.888L320.62 212.62L324.553 210.35L324.26 208.618ZM327.141 206.958L325.797 207.735L326.09 209.467L327.434 208.69L327.141 206.958ZM331.108 204.668L328.659 206.084L328.952 207.817L331.396 206.406L331.108 204.668ZM341.851 207.159L337.913 209.429L338.206 211.161L342.144 208.887L341.851 207.159ZM351.086 201.823L343.374 206.276L343.667 208.008L351.379 203.555L351.086 201.823ZM340.041 229.891L332.357 234.345L332.65 236.077L340.334 231.624L340.041 229.891ZM344.008 227.602L341.568 229.013L341.856 230.746L344.301 229.335L344.008 227.602ZM338.744 221.973L331.06 226.427L331.353 228.159L339.061 223.706L338.744 221.973ZM342.711 219.684L340.271 221.076L340.564 222.808L343.004 221.397L342.711 219.684ZM346.308 267.553L360.835 259.165L360.543 257.437L346.02 265.821L346.308 267.553ZM341.189 270.505L344.781 268.431L344.488 266.699L340.896 268.772L341.189 270.505ZM315.692 272.194L330.191 263.786L329.898 262.054L315.375 270.442L315.692 272.194ZM310.573 275.15L314.165 273.077L313.872 271.344L310.28 273.417L310.573 275.15ZM356.254 257.485L360.187 255.21L359.894 253.478L355.961 255.753L356.254 257.485ZM332.314 262.615L336.247 260.34L335.954 258.608L332.021 260.907L332.314 262.615ZM347.019 262.817L354.727 258.363L354.434 256.631L346.75 261.084L347.019 262.817ZM343.052 265.106L345.492 263.695L345.199 261.967L342.759 263.378L343.052 265.106ZM333.745 270.471L341.453 266.022L341.16 264.29L333.452 268.743L333.745 270.471ZM329.778 272.765L332.218 271.354L331.929 269.622L329.485 271.032L329.778 272.765ZM332.981 266.574L336.914 264.3L336.621 262.567L332.688 264.842L332.981 266.574ZM323.746 271.906L331.43 267.452L331.137 265.72L323.453 270.173L323.746 271.906ZM319.779 274.195L322.219 272.789L321.926 271.056L319.486 272.467L319.779 274.195ZM351.475 255.906L359.529 251.256L359.236 249.524L351.149 254.188L351.475 255.906ZM344.128 260.149L349.953 256.789L349.66 255.057L343.835 258.416L344.128 260.149ZM338.638 263.306L342.572 261.032L342.279 259.299L338.345 261.574L338.638 263.306ZM300.473 280.957L308.522 276.306L308.234 274.574L300.18 279.224L300.473 280.957ZM293.121 285.194L298.941 281.835L298.648 280.107L292.828 283.466L293.121 285.194ZM287.66 288.347L291.598 286.077L291.305 284.345L287.367 286.614L287.66 288.347ZM303.028 225.213L294.974 229.863L295.267 231.595L303.321 226.945L303.028 225.213ZM310.376 220.97L304.55 224.33L304.843 226.062L310.669 222.703L310.376 220.97ZM315.836 217.813L311.898 220.087L312.191 221.82L316.129 219.545L315.836 217.813ZM305.698 219.31L297.654 223.955L297.947 225.688L305.996 221.037L305.698 219.31ZM313.046 215.068L307.225 218.427L307.518 220.159L313.339 216.8L313.046 215.068ZM318.506 211.915L314.573 214.185L314.866 215.917L318.799 213.642L318.506 211.915ZM338.197 226.628L335.474 228.197L335.767 229.93L338.49 228.361L338.197 226.628ZM343.311 223.672L339.719 225.745L340.012 227.478L343.604 225.4L343.311 223.672ZM350.702 251.986L358.756 247.335L358.463 245.603L350.409 250.253L350.702 251.986ZM343.354 256.228L349.18 252.869L348.887 251.136L343.062 254.495L343.354 256.228ZM337.894 259.381L341.832 257.111L341.539 255.378L337.601 257.648L337.894 259.381ZM355.365 244.95L358.088 243.381L357.796 241.649L355.073 243.204L355.365 244.95ZM350.27 247.892L353.867 245.819L353.574 244.087L349.977 246.16L350.27 247.892ZM342.956 252.115L348.748 248.756L348.455 247.024L342.663 250.383L342.956 252.115ZM334.518 215.716L331.8 217.29L332.093 219.022L334.811 217.448L334.518 215.716ZM339.637 212.759L336.04 214.837L336.333 216.57L339.926 214.492L339.637 212.759ZM346.952 208.536L341.165 211.896L341.457 213.628L347.244 210.269L346.952 208.536ZM330.378 222.141L324.586 225.5L324.879 227.233L330.671 223.874L330.378 222.141ZM339.849 216.982L332.021 221.489L332.314 223.221L340.118 218.715L339.849 216.982ZM343.815 214.689L341.371 216.099L341.664 217.832L344.108 216.421L343.815 214.689ZM347.624 212.491L345.179 213.902L345.472 215.634L347.917 214.223L347.624 212.491ZM347.1 234.849L339.383 239.312L339.676 241.044L347.389 236.581L347.1 234.849ZM351.067 232.555L348.623 233.966L348.916 235.698L351.36 234.287L351.067 232.555ZM346.567 239.499L343.849 241.068L344.142 242.801L346.86 241.231L346.567 239.499ZM336.962 236.332L334.244 237.901L334.537 239.633L337.255 238.059L336.962 236.332ZM333.087 238.568L326.56 242.33L326.853 244.063L333.38 240.295L333.087 238.568ZM325.403 242.997L321.522 245.238L321.815 246.971L325.696 244.73L325.403 242.997ZM351.682 236.543L348.09 238.621L348.383 240.348L351.975 238.275L351.682 236.543ZM352.023 240.607L349.31 242.191L349.602 243.923L352.326 242.354L352.023 240.607ZM357.138 237.651L353.545 239.729L353.838 241.457L357.431 239.384L357.138 237.651ZM340.91 234.033L338.466 235.473L338.759 237.205L341.203 235.794L340.91 234.033ZM344.714 231.835L342.274 233.246L342.586 234.993L345.026 233.582L344.714 231.835ZM325.984 211.953L317.652 216.752L317.945 218.484L326.277 213.686L325.984 211.953ZM335.286 206.583L327.482 211.089L327.775 212.822L335.579 208.316L335.286 206.583ZM339.253 204.294L336.823 205.719L337.116 207.452L339.556 206.041L339.253 204.294ZM343.062 202.091L340.622 203.502L340.915 205.235L343.354 203.824L343.062 202.091ZM345.434 202.624L350.717 199.582L350.424 197.849L345.141 200.892L345.434 202.624Z"
      fill="url(#paint18_linear_3118_6028)"
    />
  </g>
  <defs>
    <filter
      id="filter0_b_3118_6028"
      x="301.52"
      y="273.91"
      width="117.102"
      height="79.5163"
      filterUnits="userSpaceOnUse"
      color-interpolation-filters="sRGB"
    >
      <feFlood flood-opacity="0" result="BackgroundImageFix" />
      <feGaussianBlur in="BackgroundImage" stdDeviation="7" />
      <feComposite in2="SourceAlpha" operator="in" result="effect1_backgroundBlur_3118_6028" />
      <feBlend
        mode="normal"
        in="SourceGraphic"
        in2="effect1_backgroundBlur_3118_6028"
        result="shape"
      />
    </filter>
    <filter
      id="filter1_b_3118_6028"
      x="314.145"
      y="278.133"
      width="128.699"
      height="86.0955"
      filterUnits="userSpaceOnUse"
      color-interpolation-filters="sRGB"
    >
      <feFlood flood-opacity="0" result="BackgroundImageFix" />
      <feGaussianBlur in="BackgroundImage" stdDeviation="7" />
      <feComposite in2="SourceAlpha" operator="in" result="effect1_backgroundBlur_3118_6028" />
      <feBlend
        mode="normal"
        in="SourceGraphic"
        in2="effect1_backgroundBlur_3118_6028"
        result="shape"
      />
    </filter>
    <filter
      id="filter2_b_3118_6028"
      x="391.266"
      y="269.03"
      width="35.793"
      height="32.4966"
      filterUnits="userSpaceOnUse"
      color-interpolation-filters="sRGB"
    >
      <feFlood flood-opacity="0" result="BackgroundImageFix" />
      <feGaussianBlur in="BackgroundImage" stdDeviation="7" />
      <feComposite in2="SourceAlpha" operator="in" result="effect1_backgroundBlur_3118_6028" />
      <feBlend
        mode="normal"
        in="SourceGraphic"
        in2="effect1_backgroundBlur_3118_6028"
        result="shape"
      />
    </filter>
    <filter
      id="filter3_b_3118_6028"
      x="49.7969"
      y="281.027"
      width="108.207"
      height="74.9908"
      filterUnits="userSpaceOnUse"
      color-interpolation-filters="sRGB"
    >
      <feFlood flood-opacity="0" result="BackgroundImageFix" />
      <feGaussianBlur in="BackgroundImage" stdDeviation="7" />
      <feComposite in2="SourceAlpha" operator="in" result="effect1_backgroundBlur_3118_6028" />
      <feBlend
        mode="normal"
        in="SourceGraphic"
        in2="effect1_backgroundBlur_3118_6028"
        result="shape"
      />
    </filter>
    <filter
      id="filter4_b_3118_6028"
      x="18.6758"
      y="284.617"
      width="128.695"
      height="86.0955"
      filterUnits="userSpaceOnUse"
      color-interpolation-filters="sRGB"
    >
      <feFlood flood-opacity="0" result="BackgroundImageFix" />
      <feGaussianBlur in="BackgroundImage" stdDeviation="7" />
      <feComposite in2="SourceAlpha" operator="in" result="effect1_backgroundBlur_3118_6028" />
      <feBlend
        mode="normal"
        in="SourceGraphic"
        in2="effect1_backgroundBlur_3118_6028"
        result="shape"
      />
    </filter>
    <linearGradient
      id="paint0_linear_3118_6028"
      x1="281.673"
      y1="320.667"
      x2="474.656"
      y2="320.667"
      gradientUnits="userSpaceOnUse"
    >
      <stop stop-color="#C4C4C4" stop-opacity="0.4" />
      <stop offset="1" stop-color="#C4C4C4" stop-opacity="0" />
    </linearGradient>
    <linearGradient
      id="paint1_linear_3118_6028"
      x1="96433.8"
      y1="63087.9"
      x2="137124"
      y2="63087.9"
      gradientUnits="userSpaceOnUse"
    >
      <stop stop-color="#C4C4C4" stop-opacity="0.4" />
      <stop offset="1" stop-color="#C4C4C4" stop-opacity="0" />
    </linearGradient>
    <linearGradient
      id="paint2_linear_3118_6028"
      x1="360.07"
      y1="287.91"
      x2="360.07"
      y2="339.427"
      gradientUnits="userSpaceOnUse"
    >
      <stop stop-color="#2C80FF" />
      <stop offset="1" stop-color="#40D4F4" stop-opacity="0.7" />
    </linearGradient>
    <linearGradient
      id="paint3_linear_3118_6028"
      x1="378.494"
      y1="292.133"
      x2="378.494"
      y2="350.229"
      gradientUnits="userSpaceOnUse"
    >
      <stop stop-color="#2C80FF" />
      <stop offset="1" stop-color="#40D4F4" stop-opacity="0.7" />
    </linearGradient>
    <linearGradient
      id="paint4_linear_3118_6028"
      x1="409.163"
      y1="283.03"
      x2="409.163"
      y2="287.526"
      gradientUnits="userSpaceOnUse"
    >
      <stop stop-color="#2C80FF" />
      <stop offset="1" stop-color="#40D4F4" stop-opacity="0.7" />
    </linearGradient>
    <linearGradient
      id="paint5_linear_3118_6028"
      x1="85608.5"
      y1="32860.6"
      x2="117423"
      y2="32860.6"
      gradientUnits="userSpaceOnUse"
    >
      <stop stop-color="#C4C4C4" stop-opacity="0.4" />
      <stop offset="1" stop-color="#C4C4C4" stop-opacity="0" />
    </linearGradient>
    <linearGradient
      id="paint6_linear_3118_6028"
      x1="15357"
      y1="32770.6"
      x2="47170.6"
      y2="32770.6"
      gradientUnits="userSpaceOnUse"
    >
      <stop stop-color="#C4C4C4" stop-opacity="0.4" />
      <stop offset="1" stop-color="#C4C4C4" stop-opacity="0" />
    </linearGradient>
    <linearGradient
      id="paint7_linear_3118_6028"
      x1="107142"
      y1="45804.9"
      x2="164832"
      y2="45804.9"
      gradientUnits="userSpaceOnUse"
    >
      <stop stop-color="#C4C4C4" stop-opacity="0.4" />
      <stop offset="1" stop-color="#C4C4C4" stop-opacity="0" />
    </linearGradient>
    <linearGradient
      id="paint8_linear_3118_6028"
      x1="14656.8"
      y1="45802.8"
      x2="72348.1"
      y2="45802.8"
      gradientUnits="userSpaceOnUse"
    >
      <stop stop-color="#C4C4C4" stop-opacity="0.4" />
      <stop offset="1" stop-color="#C4C4C4" stop-opacity="0" />
    </linearGradient>
    <linearGradient
      id="paint9_linear_3118_6028"
      x1="62946.8"
      y1="39075.2"
      x2="32658.7"
      y2="70161.5"
      gradientUnits="userSpaceOnUse"
    >
      <stop stop-color="#C4C4C4" stop-opacity="0.4" />
      <stop offset="1" stop-color="#C4C4C4" stop-opacity="0" />
    </linearGradient>
    <linearGradient
      id="paint10_linear_3118_6028"
      x1="298.329"
      y1="179.75"
      x2="241.636"
      y2="286.919"
      gradientUnits="userSpaceOnUse"
    >
      <stop stop-color="#FAFAFA" />
      <stop offset="1" stop-color="white" stop-opacity="0.23" />
    </linearGradient>
    <linearGradient
      id="paint11_linear_3118_6028"
      x1="9388.46"
      y1="88497.1"
      x2="86933.5"
      y2="88497.1"
      gradientUnits="userSpaceOnUse"
    >
      <stop stop-color="#C4C4C4" stop-opacity="0.4" />
      <stop offset="1" stop-color="#C4C4C4" stop-opacity="0" />
    </linearGradient>
    <linearGradient
      id="paint12_linear_3118_6028"
      x1="14770.6"
      y1="62968.9"
      x2="55459.8"
      y2="62968.9"
      gradientUnits="userSpaceOnUse"
    >
      <stop stop-color="#C4C4C4" stop-opacity="0.4" />
      <stop offset="1" stop-color="#C4C4C4" stop-opacity="0" />
    </linearGradient>
    <linearGradient
      id="paint13_linear_3118_6028"
      x1="103.9"
      y1="295.027"
      x2="103.9"
      y2="342.018"
      gradientUnits="userSpaceOnUse"
    >
      <stop stop-color="#2C80FF" />
      <stop offset="1" stop-color="#40D4F4" stop-opacity="0.7" />
    </linearGradient>
    <linearGradient
      id="paint14_linear_3118_6028"
      x1="83.0225"
      y1="298.617"
      x2="83.0225"
      y2="356.712"
      gradientUnits="userSpaceOnUse"
    >
      <stop stop-color="#2C80FF" />
      <stop offset="1" stop-color="#40D4F4" stop-opacity="0.7" />
    </linearGradient>
    <linearGradient
      id="paint15_linear_3118_6028"
      x1="235.307"
      y1="253.382"
      x2="235.307"
      y2="0"
      gradientUnits="userSpaceOnUse"
    >
      <stop stop-color="#F4B740" stop-opacity="0.49" />
      <stop offset="1" stop-color="white" stop-opacity="0" />
    </linearGradient>
    <linearGradient
      id="paint16_linear_3118_6028"
      x1="112.422"
      y1="247.369"
      x2="180.42"
      y2="247.369"
      gradientUnits="userSpaceOnUse"
    >
      <stop />
      <stop offset="1" stop-color="#CBCBCB" />
    </linearGradient>
    <linearGradient
      id="paint17_linear_3118_6028"
      x1="106.96"
      y1="238.482"
      x2="179.079"
      y2="238.482"
      gradientUnits="userSpaceOnUse"
    >
      <stop offset="0.41" stop-color="#FFB629" />
      <stop offset="1" stop-color="#121212" />
    </linearGradient>
    <linearGradient
      id="paint18_linear_3118_6028"
      x1="47823.6"
      y1="57969.9"
      x2="59061.3"
      y2="57969.9"
      gradientUnits="userSpaceOnUse"
    >
      <stop stop-color="#565656" />
      <stop offset="1" stop-color="#1BCD42" />
    </linearGradient>
    <clipPath id="clip0_3118_6028">
      <rect width="474.658" height="378" fill="white" />
    </clipPath>
  </defs>
</svg>
