<svg width="44" height="44" viewBox="0 0 112 112" fill="none" xmlns="http://www.w3.org/2000/svg">
  <path
    fill-rule="evenodd"
    clip-rule="evenodd"
    d="M33.59 0H78.41L112 33.59V78.41L78.41 112H33.59L0 78.41V33.59L33.59 0ZM62.11 104.85L104.85 62.11C108.22 58.74 108.22 53.27 104.85 49.89L62.11 7.15C58.73 3.78 53.26 3.78 49.89 7.15L7.15 49.89C3.78 53.27 3.78 58.74 7.15 62.11L49.89 104.85C53.26 108.22 58.73 108.22 62.11 104.85ZM44.27 56L56 44.27L67.72 56L56 67.72L44.27 56Z"
    fill="white"
  />
  <path
    d="M78.41 0L78.76 -0.35L78.61 -0.5H78.41V0ZM33.59 0V-0.5H33.39L33.24 -0.35L33.59 0ZM112 33.59H112.5V33.39L112.35 33.24L112 33.59ZM112 78.41L112.35 78.76L112.5 78.61V78.41H112ZM78.41 112V112.5H78.61L78.76 112.35L78.41 112ZM33.59 112L33.24 112.35L33.39 112.5H33.59V112ZM0 78.41H-0.5V78.61L-0.35 78.76L0 78.41ZM0 33.59L-0.35 33.24L-0.5 33.39V33.59H0ZM104.85 62.11L105.2 62.46L104.85 62.11ZM62.11 104.85L61.75 104.5L62.11 104.85ZM104.85 49.89L104.49 50.25L104.85 49.89ZM62.11 7.15L62.46 6.8L62.11 7.15ZM49.89 7.15L49.54 6.8L49.54 6.8L49.89 7.15ZM7.15 49.89L7.51 50.25L7.51 50.25L7.15 49.89ZM7.15 62.11L7.51 61.76L7.51 61.76L7.15 62.11ZM49.89 104.85L49.54 105.2L49.54 105.2L49.89 104.85ZM56 44.27L56.35 43.92L56 43.57L55.64 43.92L56 44.27ZM44.27 56L43.92 55.64L43.57 56L43.92 56.35L44.27 56ZM67.72 56L68.08 56.35L68.43 56L68.08 55.64L67.72 56ZM56 67.72L55.64 68.08L56 68.43L56.35 68.08L56 67.72ZM78.41 -0.5H33.59V0.5H78.41V-0.5ZM112.35 33.24L78.76 -0.35L78.05 0.35L111.65 33.95L112.35 33.24ZM112.5 78.41V33.59H111.5V78.41H112.5ZM78.76 112.35L112.35 78.76L111.65 78.05L78.05 111.65L78.76 112.35ZM33.59 112.5H78.41V111.5H33.59V112.5ZM-0.35 78.76L33.24 112.35L33.95 111.65L0.35 78.05L-0.35 78.76ZM-0.5 33.59V78.41H0.5V33.59H-0.5ZM33.24 -0.35L-0.35 33.24L0.35 33.95L33.95 0.35L33.24 -0.35ZM104.49 61.76L61.75 104.5L62.46 105.2L105.2 62.46L104.49 61.76ZM104.49 50.25C107.67 53.43 107.67 58.58 104.49 61.76L105.2 62.46C108.77 58.89 108.77 53.11 105.2 49.54L104.49 50.25ZM61.75 7.51L104.49 50.25L105.2 49.54L62.46 6.8L61.75 7.51ZM50.24 7.51C53.42 4.33 58.57 4.33 61.75 7.51L62.46 6.8C58.89 3.23 53.11 3.23 49.54 6.8L50.24 7.51ZM7.51 50.25L50.24 7.51L49.54 6.8L6.8 49.54L7.51 50.25ZM7.51 61.76C4.33 58.58 4.33 53.43 7.51 50.25L6.8 49.54C3.23 53.11 3.23 58.89 6.8 62.46L7.51 61.76ZM50.24 104.5L7.51 61.76L6.8 62.46L49.54 105.2L50.24 104.5ZM61.75 104.5C58.57 107.68 53.42 107.68 50.24 104.5L49.54 105.2C53.11 108.77 58.89 108.77 62.46 105.2L61.75 104.5ZM55.64 43.92L43.92 55.64L44.63 56.35L56.35 44.63L55.64 43.92ZM68.08 55.64L56.35 43.92L55.64 44.63L67.37 56.35L68.08 55.64ZM56.35 68.08L68.08 56.35L67.37 55.64L55.64 67.37L56.35 68.08ZM43.92 56.35L55.64 68.08L56.35 67.37L44.63 55.64L43.92 56.35Z"
    fill="white"
  />
</svg>
