<svg
  xmlns="http://www.w3.org/2000/svg"
  xmlns:xlink="http://www.w3.org/1999/xlink"
  id="Layer_1"
  style="enable-background: new 0 0 64 64"
  version="1.1"
  viewBox="0 0 64 64"
  xml:space="preserve"
>
  <style type="text/css">
    .st0 {
      fill: #b4e6dd;
    }

    .st1 {
      fill: #80d4c4;
    }

    .st2 {
      fill: #d2f0ea;
    }

    .st3 {
      fill: #ffffff;
    }

    .st4 {
      fill: #fbd872;
    }

    .st5 {
      fill: #db7767;
    }

    .st6 {
      fill: #eab308;
    }

    .st7 {
      fill: #f6af62;
    }

    .st8 {
      fill: #14b8a6;
    }

    .st9 {
      fill: #a38fd8;
    }

    .st10 {
      fill: #7c64bd;
    }

    .st11 {
      fill: #eaa157;
    }

    .st12 {
      fill: #9681cf;
    }

    .st13 {
      fill: #f9c46a;
    }

    .st14 {
      fill: #ce6b61;
    }
  </style>
  <g>
    <path
      class="st0"
      d="M43.15,11H21.52L11,21.52V54c0,1.1,0.9,2,2,2h30.15c1.1,0,2-0.9,2-2V13C45.15,11.9,44.25,11,43.15,11z"
    />
    <path
      class="st2"
      d="M40.15,8H18.52L8,18.52V51c0,1.1,0.9,2,2,2h30.15c1.1,0,2-0.9,2-2V10C42.15,8.9,41.25,8,40.15,8z"
    />
    <path class="st8" d="M16.52,18.52c1.1,0,2-0.9,2-2V8L8,18.52H16.52z" />
    <g>
      <rect class="st3" height="2" width="20.6" x="14.78" y="22.93" />
      <rect class="st3" height="2" width="20.6" x="14.78" y="27.31" />
      <rect class="st3" height="2" width="20.6" x="14.78" y="31.69" />
      <rect class="st3" height="2" width="20.6" x="14.78" y="36.07" />
      <rect class="st3" height="2" width="20.6" x="14.78" y="40.46" />
      <rect class="st3" height="2" width="20.6" x="14.78" y="44.84" />
    </g>
    <path
      class="st6"
      d="M46.93,26.79c-5.56-5.56-14.58-5.56-20.14,0c-5.56,5.56-5.56,14.58,0,20.14c4.96,4.96,12.67,5.48,18.23,1.59   l6.76,6.76c0.97,0.97,2.53,0.97,3.5,0c0.97-0.97,0.97-2.53,0-3.5l-6.76-6.76C52.42,39.47,51.9,31.76,46.93,26.79z"
    />
    <path
      class="st3"
      d="M44.1,44.1c-3.99,3.99-10.49,3.99-14.48,0c-3.99-3.99-3.99-10.49,0-14.48c3.99-3.99,10.49-3.99,14.48,0   C48.1,33.61,48.1,40.11,44.1,44.1z"
    />
    <path
      class="st2"
      d="M29.62,31.62c3.99-3.99,10.49-3.99,14.48,0c1.74,1.74,2.72,3.96,2.94,6.24c0.29-2.94-0.69-5.99-2.94-8.24   c-3.99-3.99-10.49-3.99-14.48,0c-2.25,2.25-3.23,5.3-2.95,8.24C26.9,35.58,27.88,33.36,29.62,31.62z"
    />
  </g>
</svg>
