<svg
  version="1.1"
  id="Layer_1"
  xmlns="http://www.w3.org/2000/svg"
  x="0px"
  y="0px"
  viewBox="0 0 512 512"
>
  <g>
    <g>
      <path
        d="M355.562,20.084c-5.088-2.152-10.961,0.232-13.112,5.323c-2.151,5.09,0.232,10.963,5.323,13.112
			c87.606,37.015,144.214,122.382,144.214,217.48c0,130.124-105.862,235.985-235.984,235.985S20.015,386.122,20.015,255.999
			S125.878,20.015,256.001,20.015c5.528,0,10.007-4.479,10.007-10.007C266.008,4.479,261.529,0,256.001,0
			c-141.16,0-256,114.84-256,255.999c0,141.16,114.84,256.001,256,256.001c141.158,0,255.999-114.84,255.999-256
			C512.001,152.839,450.594,60.236,355.562,20.084z"
      />
    </g>
  </g>
  <g>
    <g>
      <path
        d="M367.914,397.222H248.456c-5.528,0-10.007,4.479-10.007,10.007s4.479,10.007,10.007,10.007h119.457
			c5.528,0,10.007-4.479,10.007-10.007S373.442,397.222,367.914,397.222z"
      />
    </g>
  </g>
  <g>
    <g>
      <path
        d="M281.749,283.778c-3.389-4.369-9.674-5.16-14.04-1.773c-9.579,7.429-27.879,12.232-46.621,12.232
			c-19.203,0-37.257-4.714-45.991-12.006c-4.245-3.544-10.553-2.974-14.094,1.268c-3.543,4.243-2.974,10.553,1.268,14.094
			c12.492,10.43,34.48,16.658,58.817,16.658c23.609,0,45.624-6.143,58.889-16.432C284.343,294.43,285.137,288.144,281.749,283.778z"
      />
    </g>
  </g>
  <g>
    <g>
      <path
        d="M455.335,283.778c-3.388-4.369-9.675-5.16-14.04-1.773c-9.579,7.429-27.879,12.232-46.621,12.232
			c-19.202,0-37.254-4.713-45.99-12.006c-4.243-3.544-10.552-2.974-14.094,1.268c-3.544,4.242-2.977,10.553,1.266,14.094
			c12.492,10.43,34.48,16.658,58.816,16.658c23.609,0,45.624-6.143,58.889-16.432C457.929,294.43,458.723,288.144,455.335,283.778z"
      />
    </g>
  </g>
  <g>
    <g>
      <path
        d="M230.255,216.296c-4.889-2.582-10.941-0.705-13.519,4.184c-2.578,4.885-10.209,12.097-21.452,17.194
			c-11.486,5.21-21.594,6.17-26.521,4.804c-5.323-1.468-10.84,1.649-12.314,6.976c-1.473,5.325,1.648,10.84,6.976,12.314
			c3.085,0.853,6.547,1.272,10.266,1.272c9.024,0,19.554-2.463,29.859-7.136c14.098-6.393,25.647-16.145,30.889-26.089
			C237.019,224.928,235.144,218.874,230.255,216.296z"
      />
    </g>
  </g>
  <g>
    <g>
      <path
        d="M456.729,249.453c-1.474-5.325-6.98-8.45-12.314-6.973c-4.921,1.357-15.031,0.406-26.521-4.805
			c-11.24-5.096-18.872-12.309-21.449-17.194c-2.578-4.889-8.63-6.765-13.519-4.184c-4.889,2.578-6.762,8.632-4.184,13.519
			c5.242,9.945,16.79,19.696,30.888,26.088c10.308,4.673,20.837,7.136,29.861,7.136c3.717,0,7.181-0.418,10.266-1.273
			C455.082,260.293,458.204,254.779,456.729,249.453z"
      />
    </g>
  </g>
  <g>
    <g>
      <circle cx="319.102" cy="18.84" r="10.007" />
    </g>
  </g>
</svg>
