<svg width="483" height="430" viewBox="0 0 483 430" fill="none" xmlns="http://www.w3.org/2000/svg">
<g clip-path="url(#clip0_2477_24553)">
<path d="M437.001 159.274H436.91C436.956 159.507 436.987 159.742 437.001 159.979V159.274Z" fill="url(#paint0_linear_2477_24553)"/>
<path d="M437.001 150.758H436.91C436.957 150.989 436.987 151.223 437.001 151.458V150.758Z" fill="url(#paint1_linear_2477_24553)"/>
<path d="M436.851 140.153H436.766C436.808 140.385 436.836 140.618 436.851 140.853V140.153Z" fill="#121212"/>
<path d="M7.78954 225.51L142.188 303.072C148.195 306.545 158.696 306.107 165.639 302.1L431.129 148.883C434.826 146.746 436.751 144.032 436.848 141.435C436.861 141.241 436.861 141.047 436.848 140.853C436.833 140.618 436.804 140.384 436.762 140.153C436.393 138.347 435.093 136.664 432.814 135.345L298.416 57.7986C292.404 54.326 281.908 54.7641 274.965 58.7709L9.47461 211.988C5.56955 214.237 3.62767 217.138 3.73466 219.863C3.82025 221.973 5.15764 223.993 7.78954 225.51Z" fill="#121212" stroke="#F4B740" stroke-miterlimit="10"/>
<g opacity="0.5">
<path opacity="0.5" d="M83.7968 241.174L83.08 241.591L70.418 234.315L71.1348 233.903L83.7968 241.174Z" fill="#464646"/>
<path opacity="0.5" d="M83.811 241.174L83.0942 241.586L67.0781 232.386L67.795 231.974L83.811 241.174Z" fill="#464646"/>
<path opacity="0.5" d="M83.816 241.169L83.0992 241.58L63.7344 230.457L64.4512 230.046L83.816 241.169Z" fill="#464646"/>
<path opacity="0.5" d="M83.8194 241.164L83.1026 241.575L60.3945 228.534L61.1113 228.117L83.8194 241.164Z" fill="#464646"/>
<path opacity="0.5" d="M83.8245 241.158L83.113 241.57L57.0508 226.605L57.7676 226.194L83.8245 241.158Z" fill="#464646"/>
<path opacity="0.5" d="M83.8387 241.158L83.1219 241.569L53.7109 224.677L54.4278 224.265L83.8387 241.158Z" fill="#464646"/>
<path opacity="0.5" d="M83.8422 241.153L83.1254 241.564L50.3711 222.748L51.0879 222.337L83.8422 241.153Z" fill="#464646"/>
<path opacity="0.5" d="M83.8486 241.147L83.1318 241.559L47.0234 220.819L47.7403 220.408L83.8486 241.147Z" fill="#464646"/>
<path opacity="0.5" d="M83.8575 241.142L83.1407 241.554L43.6836 218.891L44.4004 218.479L83.8575 241.142Z" fill="#464646"/>
<path opacity="0.5" d="M99.731 232.028L99.0142 232.439L59.5625 209.776L60.2793 209.365L99.731 232.028Z" fill="#464646"/>
<path opacity="0.5" d="M115.602 222.908L114.885 223.32L75.4336 200.657L76.1504 200.246L115.602 222.908Z" fill="#464646"/>
<path opacity="0.5" d="M131.479 213.794L130.762 214.205L91.3047 191.543L92.0215 191.131L131.479 213.794Z" fill="#464646"/>
<path opacity="0.5" d="M147.35 204.674L146.633 205.086L107.176 182.423L107.893 182.011L147.35 204.674Z" fill="#464646"/>
<path opacity="0.5" d="M163.223 195.56L162.506 195.971L123.055 173.309L123.772 172.897L163.223 195.56Z" fill="#464646"/>
<path opacity="0.5" d="M179.094 186.44L178.378 186.852L138.926 164.189L139.643 163.778L179.094 186.44Z" fill="#464646"/>
<path opacity="0.5" d="M194.971 177.321L194.254 177.732L154.797 155.075L155.514 154.663L194.971 177.321Z" fill="#464646"/>
</g>
<path d="M174.607 196.543C174.727 196.482 174.859 196.451 174.993 196.451C175.126 196.451 175.258 196.482 175.378 196.543C175.424 196.559 175.463 196.589 175.492 196.629C175.52 196.668 175.535 196.716 175.535 196.765C175.535 196.813 175.52 196.861 175.492 196.9C175.463 196.94 175.424 196.97 175.378 196.986C175.258 197.046 175.126 197.076 174.993 197.076C174.859 197.076 174.727 197.046 174.607 196.986C174.559 196.973 174.516 196.944 174.485 196.904C174.454 196.864 174.438 196.815 174.438 196.765C174.438 196.714 174.454 196.665 174.485 196.625C174.516 196.585 174.559 196.556 174.607 196.543ZM176.608 198.146C176.727 198.206 176.859 198.238 176.993 198.238C177.127 198.238 177.259 198.206 177.378 198.146C177.592 198.028 177.592 197.83 177.378 197.708C177.259 197.648 177.127 197.617 176.993 197.617C176.86 197.617 176.728 197.648 176.608 197.708C176.394 197.814 176.399 198.012 176.608 198.135V198.146ZM178.609 198.856C178.563 198.872 178.523 198.902 178.495 198.942C178.467 198.982 178.452 199.029 178.452 199.078C178.452 199.127 178.467 199.174 178.495 199.214C178.523 199.253 178.563 199.283 178.609 199.3C178.728 199.36 178.86 199.392 178.994 199.392C179.128 199.392 179.26 199.36 179.379 199.3C179.593 199.177 179.588 198.979 179.379 198.856C179.261 198.793 179.13 198.759 178.996 198.756C178.862 198.753 178.729 198.782 178.609 198.84V198.856ZM180.609 200.01C180.395 200.128 180.395 200.325 180.609 200.448C180.729 200.508 180.861 200.538 180.995 200.538C181.128 200.538 181.26 200.508 181.38 200.448C181.426 200.432 181.465 200.402 181.494 200.362C181.522 200.323 181.537 200.275 181.537 200.226C181.537 200.178 181.522 200.13 181.494 200.091C181.465 200.051 181.426 200.021 181.38 200.005C181.261 199.943 181.129 199.91 180.995 199.909C180.861 199.908 180.729 199.939 180.609 199.999V200.01ZM183.375 201.164C183.255 201.105 183.124 201.074 182.99 201.074C182.856 201.074 182.724 201.105 182.605 201.164C182.559 201.18 182.519 201.21 182.491 201.25C182.463 201.29 182.448 201.337 182.448 201.386C182.448 201.434 182.463 201.482 182.491 201.522C182.519 201.561 182.559 201.591 182.605 201.608C182.723 201.668 182.854 201.7 182.987 201.7C183.12 201.7 183.251 201.668 183.37 201.608C183.589 201.474 183.589 201.276 183.375 201.153V201.164ZM185.376 202.313C185.256 202.252 185.124 202.221 184.991 202.221C184.857 202.221 184.725 202.252 184.605 202.313C184.559 202.329 184.52 202.359 184.491 202.399C184.463 202.438 184.448 202.486 184.448 202.534C184.448 202.583 184.463 202.631 184.491 202.67C184.52 202.71 184.559 202.74 184.605 202.756C184.725 202.817 184.857 202.848 184.991 202.848C185.124 202.848 185.256 202.817 185.376 202.756C185.426 202.743 185.47 202.713 185.502 202.672C185.533 202.631 185.55 202.581 185.55 202.529C185.55 202.477 185.533 202.427 185.502 202.386C185.47 202.345 185.426 202.315 185.376 202.302V202.313ZM187.376 203.467C187.257 203.406 187.125 203.375 186.991 203.375C186.857 203.375 186.725 203.406 186.606 203.467C186.56 203.483 186.52 203.513 186.492 203.553C186.464 203.592 186.449 203.64 186.449 203.688C186.449 203.737 186.464 203.785 186.492 203.824C186.52 203.864 186.56 203.894 186.606 203.91C186.726 203.969 186.858 204 186.991 204C187.125 204 187.257 203.969 187.376 203.91C187.427 203.898 187.472 203.87 187.504 203.829C187.537 203.789 187.555 203.739 187.556 203.687C187.558 203.635 187.542 203.585 187.511 203.543C187.48 203.501 187.437 203.471 187.387 203.456L187.376 203.467ZM189.377 204.621C189.257 204.561 189.126 204.531 188.992 204.531C188.858 204.531 188.726 204.561 188.607 204.621C188.561 204.637 188.521 204.667 188.493 204.707C188.465 204.746 188.45 204.794 188.45 204.842C188.45 204.891 188.465 204.939 188.493 204.978C188.521 205.018 188.561 205.048 188.607 205.064C188.726 205.123 188.858 205.154 188.992 205.154C189.126 205.154 189.257 205.123 189.377 205.064C189.427 205.051 189.471 205.021 189.503 204.98C189.534 204.939 189.552 204.889 189.552 204.837C189.552 204.785 189.534 204.735 189.503 204.694C189.471 204.653 189.427 204.623 189.377 204.61V204.621ZM191.372 205.775C191.254 205.714 191.123 205.683 190.99 205.683C190.857 205.683 190.726 205.714 190.607 205.775C190.561 205.791 190.522 205.821 190.494 205.861C190.465 205.9 190.45 205.948 190.45 205.996C190.45 206.045 190.465 206.093 190.494 206.132C190.522 206.172 190.561 206.202 190.607 206.218C190.727 206.279 190.859 206.31 190.993 206.31C191.126 206.31 191.258 206.279 191.378 206.218C191.422 206.202 191.461 206.172 191.487 206.133C191.514 206.094 191.528 206.047 191.528 206C191.527 205.952 191.512 205.906 191.484 205.868C191.456 205.83 191.417 205.801 191.372 205.785V205.775ZM193.373 206.923C193.254 206.863 193.122 206.831 192.988 206.831C192.854 206.831 192.722 206.863 192.603 206.923C192.557 206.939 192.517 206.969 192.489 207.009C192.461 207.049 192.446 207.096 192.446 207.145C192.446 207.194 192.461 207.241 192.489 207.281C192.517 207.321 192.557 207.351 192.603 207.367C192.722 207.427 192.854 207.459 192.988 207.459C193.122 207.459 193.254 207.427 193.373 207.367C193.423 207.353 193.467 207.324 193.499 207.283C193.53 207.242 193.548 207.191 193.548 207.14C193.548 207.088 193.53 207.038 193.499 206.997C193.467 206.956 193.423 206.926 193.373 206.913V206.923ZM186.809 190.896L185.846 190.362L178.357 194.636L179.32 195.17L186.809 190.896ZM187.729 191.43L180.24 195.704L181.209 196.238L188.698 191.964L187.729 191.43ZM190.575 193.076L189.612 192.541L182.123 196.815L183.086 197.35L190.575 193.076ZM198.541 190.682L197.572 190.148L184.012 197.911L184.975 198.445L198.541 190.682ZM198.353 193.663L190.864 197.937L191.827 198.472L199.316 194.198L198.353 193.663ZM200.236 194.732L192.747 199.006L193.71 199.54L201.199 195.266L200.236 194.732ZM202.125 195.8L194.636 200.074L195.598 200.608L203.088 196.335L202.125 195.8ZM203.055 181.568L202.087 181.034L186.804 189.758L187.772 190.292L203.055 181.568ZM188.687 190.826L189.655 191.387L203.836 183.267L202.868 182.733L188.687 190.826ZM191.538 192.472L206.843 183.71L205.875 183.176L190.597 191.938L191.538 192.472ZM201.065 189.181L208.737 184.795L207.763 184.261L200.103 188.647L201.065 189.181ZM200.279 193.615L212.219 186.782L211.251 186.248L199.316 193.081L200.279 193.615ZM202.162 194.684L214.134 187.883L213.166 187.348L201.221 194.182L202.162 194.684ZM204.045 195.752L216.006 188.908L215.038 188.374L203.082 195.218L204.045 195.752ZM208.528 194.684L201.039 198.958L202.007 199.492L209.496 195.218L208.528 194.684ZM210.464 194.684L218.291 190.207L217.322 189.672L209.501 194.149L210.464 194.684ZM219.227 190.741L202.927 200.069L203.89 200.603L220.195 191.361L219.227 190.741ZM221.115 191.809L204.81 201.143L205.773 201.677L222.083 192.429L221.115 191.809ZM172.548 198.984L171.585 198.45L165.455 202.003L166.418 202.537L172.548 198.984ZM168.322 203.568L174.431 200.069L173.468 199.535L167.354 203.114L168.322 203.568ZM177.234 201.688L167.99 206.982L168.953 207.516L178.202 202.222L177.234 201.688ZM178.689 204.84L171.457 208.98L172.42 209.514L179.652 205.374L178.689 204.84ZM164.508 202.58L162.336 203.825L163.299 204.359L165.455 203.114L164.508 202.58ZM164.219 204.909L165.182 205.443L167.359 204.199L166.396 203.664L164.219 204.909ZM180.62 210.786L177.507 212.57L178.475 213.105L181.588 211.32L180.62 210.786ZM179.395 213.655L180.358 214.189L183.471 212.41L182.508 211.876L179.395 213.655Z" fill="url(#paint2_linear_2477_24553)"/>
<path d="M250.47 207.693L250.304 207.602C238.883 201.319 220.77 201.357 209.579 207.746L216.351 211.55C223.974 207.276 236.262 207.276 243.949 211.582C251.545 216.022 251.545 223.159 243.917 227.54C236.289 231.921 223.723 231.921 216.004 227.492C215.95 227.46 215.907 227.423 215.848 227.39L209.199 231.21L209.36 231.307C220.765 237.862 239.268 237.894 250.603 231.381C261.939 224.869 261.875 214.243 250.47 207.693Z" fill="url(#paint3_linear_2477_24553)"/>
<g filter="url(#filter0_b_2477_24553)">
<path d="M216.313 211.539L216.179 211.614C208.562 215.984 208.556 223.106 216.11 227.545L209.46 231.365C198.227 224.805 198.227 214.269 209.46 207.768C209.546 207.741 216.313 211.539 216.313 211.539Z" fill="url(#paint4_linear_2477_24553)"/>
</g>
<path d="M100.367 248.872L155.418 280.495L155.899 280.217L100.849 248.6L100.367 248.872Z" fill="#464646"/>
<path d="M111.59 242.43L166.64 274.052L167.116 273.774L112.071 242.157L111.59 242.43Z" fill="#464646"/>
<path d="M123.289 235.709L178.34 267.325L178.816 267.053L123.765 235.436L123.289 235.709Z" fill="#464646"/>
<path d="M134.574 229.223L189.625 260.845L190.101 260.573L135.056 228.95L134.574 229.223Z" fill="#464646"/>
<path d="M144.168 223.72L199.218 255.337L199.695 255.064L144.644 223.442L144.168 223.72Z" fill="#464646"/>
<path d="M153.855 218.153L208.906 249.775L209.382 249.498L154.332 217.881L153.855 218.153Z" fill="#464646"/>
<path d="M163.319 271.717C162.832 271.987 162.288 272.141 161.731 272.166C161.174 272.191 160.619 272.087 160.109 271.861L126.044 252.297C125.226 251.822 125.328 250.994 126.28 250.449C126.767 250.178 127.311 250.025 127.868 250.001C128.425 249.977 128.98 250.082 129.49 250.31L163.57 269.895C164.389 270.344 164.287 271.178 163.319 271.717Z" fill="url(#paint5_linear_2477_24553)"/>
<path d="M205.778 247.612C205.291 247.881 204.747 248.033 204.19 248.057C203.633 248.082 203.078 247.977 202.569 247.751L174.506 231.633C173.687 231.162 173.789 230.334 174.736 229.789C175.223 229.519 175.767 229.365 176.324 229.34C176.881 229.315 177.436 229.42 177.946 229.645L206.008 245.763C206.832 246.239 206.731 247.067 205.778 247.612Z" fill="url(#paint6_linear_2477_24553)"/>
<path d="M186.113 258.633C185.625 258.902 185.082 259.055 184.525 259.079C183.968 259.103 183.413 258.998 182.904 258.772L162.041 246.789C161.223 246.319 161.324 245.491 162.271 244.946C162.758 244.675 163.302 244.521 163.859 244.496C164.416 244.471 164.971 244.575 165.481 244.802L186.343 256.785C187.167 257.255 187.06 258.088 186.113 258.633Z" fill="url(#paint7_linear_2477_24553)"/>
<path d="M149.404 276.515C148.917 276.786 148.373 276.94 147.816 276.965C147.259 276.99 146.704 276.885 146.194 276.659L144.135 275.478C143.316 275.003 143.418 274.175 144.365 273.63C144.853 273.36 145.396 273.208 145.953 273.184C146.51 273.159 147.065 273.265 147.574 273.491L149.629 274.672C150.431 275.142 150.324 275.975 149.404 276.515Z" fill="url(#paint8_linear_2477_24553)"/>
<path d="M170.43 262.357C169.942 262.625 169.398 262.777 168.842 262.801C168.285 262.826 167.73 262.721 167.221 262.496L155.522 255.775C154.703 255.305 154.805 254.477 155.752 253.932C156.239 253.663 156.783 253.51 157.34 253.486C157.897 253.462 158.452 253.567 158.961 253.793L170.66 260.509C171.479 260.984 171.377 261.812 170.43 262.357Z" fill="url(#paint9_linear_2477_24553)"/>
<path d="M333.425 84.853L322.726 78.7038C320.463 77.4002 317.034 77.2613 315.071 78.3885L234.729 124.537C233.22 125.402 233.022 126.759 234.033 127.935C234.388 128.337 234.81 128.675 235.28 128.934L245.978 135.083C248.246 136.386 251.675 136.525 253.639 135.398L333.96 89.2498C334.244 89.0908 334.502 88.889 334.725 88.6514C335.789 87.5135 335.318 85.9482 333.425 84.853Z" fill="#212121"/>
<path d="M300.7 91.4564C300.63 91.4921 300.552 91.5107 300.473 91.5107C300.394 91.5107 300.316 91.4921 300.246 91.4564C300.217 91.4481 300.191 91.4306 300.173 91.4065C300.155 91.3824 300.145 91.3531 300.145 91.3229C300.145 91.2927 300.155 91.2633 300.173 91.2392C300.191 91.2151 300.217 91.1976 300.246 91.1893C300.316 91.1536 300.394 91.135 300.473 91.135C300.552 91.135 300.63 91.1536 300.7 91.1893C300.829 91.2534 300.829 91.3709 300.7 91.4564ZM301.893 91.8785C301.822 91.8443 301.743 91.8266 301.663 91.8266C301.584 91.8266 301.505 91.8443 301.433 91.8785C301.31 91.9533 301.31 92.0708 301.433 92.1403C301.505 92.1744 301.584 92.1922 301.663 92.1922C301.743 92.1922 301.822 92.1744 301.893 92.1403C301.925 92.134 301.953 92.117 301.974 92.0922C301.994 92.0673 302.005 92.0362 302.005 92.004C302.005 91.9719 301.994 91.9408 301.974 91.9159C301.953 91.8911 301.925 91.8741 301.893 91.8678V91.8785ZM303.086 92.5677C303.015 92.5307 302.936 92.5114 302.856 92.5114C302.776 92.5114 302.697 92.5307 302.626 92.5677C302.498 92.6371 302.498 92.7547 302.626 92.8295C302.697 92.8664 302.776 92.8857 302.856 92.8857C302.936 92.8857 303.015 92.8664 303.086 92.8295C303.118 92.8232 303.146 92.8062 303.167 92.7813C303.187 92.7565 303.198 92.7253 303.198 92.6932C303.198 92.6611 303.187 92.6299 303.167 92.6051C303.146 92.5803 303.118 92.5633 303.086 92.557V92.5677ZM304.274 93.2515C304.203 93.2158 304.125 93.1972 304.046 93.1972C303.967 93.1972 303.89 93.2158 303.819 93.2515C303.691 93.3263 303.691 93.4438 303.819 93.5133C303.89 93.549 303.967 93.5675 304.046 93.5675C304.125 93.5675 304.203 93.549 304.274 93.5133C304.305 93.507 304.334 93.49 304.354 93.4652C304.375 93.4403 304.386 93.4092 304.386 93.3771C304.386 93.3449 304.375 93.3138 304.354 93.2889C304.334 93.2641 304.305 93.2471 304.274 93.2408V93.2515ZM305.467 93.9407C305.396 93.9037 305.317 93.8844 305.237 93.8844C305.157 93.8844 305.078 93.9037 305.007 93.9407C304.884 94.0101 304.884 94.1277 305.007 94.2025C305.078 94.2395 305.157 94.2588 305.237 94.2588C305.317 94.2588 305.396 94.2395 305.467 94.2025C305.498 94.1962 305.527 94.1792 305.547 94.1543C305.568 94.1295 305.579 94.0984 305.579 94.0662C305.579 94.0341 305.568 94.003 305.547 93.9781C305.527 93.9533 305.498 93.9363 305.467 93.93V93.9407ZM306.66 94.6245C306.588 94.5903 306.509 94.5726 306.43 94.5726C306.35 94.5726 306.271 94.5903 306.2 94.6245C306.071 94.6993 306.071 94.8169 306.2 94.8863C306.271 94.9205 306.35 94.9382 306.43 94.9382C306.509 94.9382 306.588 94.9205 306.66 94.8863C306.689 94.8783 306.714 94.8613 306.733 94.8379C306.752 94.8145 306.763 94.7858 306.765 94.7558C306.767 94.7258 306.759 94.6959 306.743 94.6705C306.727 94.645 306.704 94.6252 306.676 94.6138L306.66 94.6245ZM307.847 95.3137C307.777 95.2767 307.699 95.2574 307.62 95.2574C307.541 95.2574 307.463 95.2767 307.393 95.3137C307.264 95.3832 307.264 95.5007 307.393 95.5755C307.464 95.6125 307.542 95.6318 307.623 95.6318C307.703 95.6318 307.782 95.6125 307.853 95.5755C307.976 95.4953 307.976 95.3778 307.847 95.303V95.3137ZM309.04 95.9975C308.968 95.9634 308.89 95.9456 308.81 95.9456C308.731 95.9456 308.652 95.9634 308.58 95.9975C308.457 96.0723 308.457 96.1899 308.58 96.2593C308.651 96.295 308.728 96.3136 308.807 96.3136C308.886 96.3136 308.964 96.295 309.035 96.2593C309.067 96.2537 309.095 96.2373 309.116 96.2128C309.137 96.1884 309.149 96.1574 309.15 96.1253C309.15 96.0931 309.14 96.0618 309.12 96.0365C309.1 96.0113 309.072 95.9937 309.04 95.9869V95.9975ZM310.233 96.6867C310.162 96.6497 310.083 96.6304 310.003 96.6304C309.923 96.6304 309.844 96.6497 309.773 96.6867C309.65 96.7562 309.65 96.8737 309.773 96.9485C309.844 96.9855 309.923 97.0048 310.003 97.0048C310.083 97.0048 310.162 96.9855 310.233 96.9485C310.361 96.8684 310.361 96.7508 310.233 96.676V96.6867ZM311.426 97.3706C311.354 97.3364 311.276 97.3187 311.196 97.3187C311.116 97.3187 311.038 97.3364 310.966 97.3706C310.838 97.4454 310.838 97.5629 310.966 97.6323C311.038 97.6665 311.116 97.6843 311.196 97.6843C311.276 97.6843 311.354 97.6665 311.426 97.6323C311.454 97.6225 311.479 97.6041 311.496 97.5797C311.514 97.5553 311.523 97.5261 311.523 97.4961C311.523 97.4662 311.514 97.4369 311.496 97.4125C311.479 97.3881 311.454 97.3697 311.426 97.3599V97.3706ZM306.938 87.4816L302.476 90.0353L303.054 90.3666L307.51 87.8129L306.938 87.4816ZM308.061 88.1281L303.6 90.6818L304.172 91.013L308.634 88.4593L308.061 88.1281ZM309.185 88.7745L304.723 91.3282L305.296 91.6594L309.757 89.1057L309.185 88.7745ZM313.924 87.3534L305.847 91.9747L306.419 92.3059L314.502 87.6793L313.924 87.3534ZM314.39 89.4583L309.928 92.0121L310.506 92.3433L314.967 89.7896L314.39 89.4583ZM315.513 90.1048L311.052 92.6585L311.629 92.9897L316.085 90.436L315.513 90.1048ZM316.636 90.7512L312.175 93.3049L312.753 93.6362L317.209 91.0824L316.636 90.7512ZM316.636 81.9415L307.542 87.1557L308.115 87.487L317.209 82.2727L316.636 81.9415ZM317.102 82.9672L308.655 87.8022L309.227 88.1334L317.679 83.2985L317.102 82.9672ZM318.894 83.229L309.8 88.4486L310.372 88.7798L319.493 83.5602L318.894 83.229ZM320.022 83.8754L315.454 86.4879L316.032 86.8192L320.595 84.2067L320.022 83.8754ZM322.098 85.0615L314.983 89.1324L315.561 89.4637L322.676 85.3927L322.098 85.0615ZM323.221 85.7026L316.107 89.7789L316.684 90.1101L323.799 86.0338L323.221 85.7026ZM324.35 86.349L317.23 90.4253L317.802 90.7566L324.928 86.6802L324.35 86.349ZM320.472 90.1315L316.016 92.6852L316.588 93.0164L321.049 90.4627L320.472 90.1315ZM325.714 87.1237L321.055 89.7949L321.627 90.1262L326.292 87.4549L325.714 87.1237ZM326.848 87.7755L317.134 93.3316L317.711 93.6629L327.426 88.1014L326.848 87.7755ZM327.977 88.4166L318.257 93.9781L318.835 94.3093L328.555 88.7478L327.977 88.4166ZM298.459 92.3647L294.821 94.4482L295.394 94.7795L299.037 92.6905L298.459 92.3647ZM299.582 93.0111L295.945 95.0947L296.517 95.4259L300.16 93.3423L299.582 93.0111ZM301.829 94.304L296.319 97.456L296.892 97.7873L302.407 94.6352L301.829 94.304ZM298.384 98.6474L298.962 98.9786L303.241 96.5104L302.669 96.1792L298.384 98.6474ZM292.949 95.5167L293.527 95.848L294.821 95.1053L294.249 94.7741L292.949 95.5167ZM294.073 96.1632L294.65 96.4944L295.945 95.7518L295.373 95.4206L294.073 96.1632ZM301.995 100.726L302.567 101.057L304.424 99.9884L303.846 99.6571L301.995 100.726ZM303.113 101.372L303.691 101.703L305.547 100.635L304.969 100.304L303.113 101.372Z" fill="url(#paint10_linear_2477_24553)"/>
<g filter="url(#filter1_b_2477_24553)">
<path d="M250.47 126.962C252.802 128.303 256.584 128.309 258.9 126.962C261.217 125.616 261.206 123.458 258.9 122.117C258.847 122.09 260.853 120.936 260.853 120.936C264.351 122.945 264.367 126.156 260.944 128.122C257.52 130.088 251.93 130.077 248.485 128.122C248.437 128.09 250.448 126.936 250.448 126.936L250.47 126.962Z" fill="url(#paint11_linear_2477_24553)"/>
</g>
<path d="M251.129 119.98V121.908C253.44 120.888 256.767 120.968 258.912 122.176L260.924 121.022C258.26 119.499 254.344 119.157 251.129 119.98Z" fill="#FFB629"/>
<g filter="url(#filter2_b_2477_24553)">
<path d="M264.872 118.452C267.199 119.793 270.981 119.798 273.303 118.452C275.624 117.106 275.603 114.947 273.303 113.606C273.249 113.58 275.255 112.426 275.255 112.426C278.754 114.434 278.77 117.645 275.346 119.611C271.923 121.577 266.333 121.567 262.888 119.611C262.839 119.579 264.851 118.425 264.851 118.425L264.872 118.452Z" fill="url(#paint12_linear_2477_24553)"/>
</g>
<path d="M271.777 69.552V72.0363C271.776 72.2534 271.833 72.467 271.942 72.6549C272.051 72.8428 272.208 72.9981 272.398 73.1047L286.927 81.4497C287.577 81.8248 288.315 82.0223 289.067 82.0223C289.818 82.0223 290.556 81.8248 291.206 81.4497L305.687 73.1315C305.875 73.0253 306.03 72.8694 306.135 72.6808C306.24 72.4922 306.29 72.2784 306.281 72.063H306.372V69.552H271.777Z" fill="#2D2D2D"/>
<path d="M286.943 78.8426L272.441 70.4977C272.25 70.3916 272.092 70.2366 271.981 70.0487C271.871 69.8609 271.812 69.647 271.812 69.4292C271.812 69.2113 271.871 68.9974 271.981 68.8096C272.092 68.6218 272.25 68.4668 272.441 68.3607L287.05 59.9676C287.644 59.6289 288.316 59.4507 289 59.4507C289.684 59.4507 290.356 59.6289 290.95 59.9676L305.719 68.4836C305.899 68.5871 306.049 68.7362 306.153 68.9158C306.257 69.0954 306.311 69.2992 306.311 69.5066C306.311 69.7141 306.257 69.9179 306.153 70.0975C306.049 70.2771 305.899 70.4262 305.719 70.5297L291.233 78.848C290.581 79.2243 289.841 79.4219 289.087 79.421C288.334 79.4201 287.594 79.2206 286.943 78.8426Z" fill="#212121"/>
<path d="M326.797 102.943V105.427C326.794 105.644 326.85 105.857 326.958 106.045C327.066 106.233 327.223 106.389 327.412 106.495L341.946 114.84C342.597 115.215 343.335 115.413 344.086 115.413C344.837 115.413 345.575 115.215 346.226 114.84L360.707 106.522C360.898 106.413 361.055 106.253 361.159 106.059C361.263 105.865 361.31 105.646 361.295 105.427H361.386V102.943H326.797Z" fill="#2D2D2D"/>
<path d="M341.981 112.292L327.453 103.947C327.262 103.841 327.103 103.686 326.993 103.498C326.882 103.31 326.824 103.096 326.824 102.878C326.824 102.661 326.882 102.447 326.993 102.259C327.103 102.071 327.262 101.916 327.453 101.81L342.056 93.4169C342.65 93.0757 343.324 92.8961 344.009 92.8961C344.694 92.8961 345.367 93.0757 345.961 93.4169L360.752 101.911C360.932 102.016 361.082 102.165 361.185 102.345C361.289 102.525 361.344 102.729 361.344 102.937C361.344 103.145 361.289 103.349 361.185 103.529C361.082 103.709 360.932 103.859 360.752 103.963L346.261 112.292C345.61 112.667 344.872 112.864 344.121 112.864C343.37 112.864 342.632 112.667 341.981 112.292Z" fill="#212121"/>
<path d="M245.695 84.2548V86.7337C245.695 86.9506 245.752 87.1638 245.861 87.3515C245.97 87.5391 246.127 87.6946 246.316 87.8022L260.845 96.1471C261.497 96.5181 262.234 96.7132 262.985 96.7132C263.735 96.7132 264.472 96.5181 265.124 96.1471L279.605 87.8289C279.793 87.7223 279.947 87.5662 280.052 87.3778C280.157 87.1893 280.208 86.9757 280.199 86.7604H280.284V84.2815L245.695 84.2548Z" fill="#2D2D2D"/>
<path d="M260.856 93.5934L246.328 85.2484C246.137 85.1423 245.978 84.9873 245.868 84.7995C245.757 84.6116 245.699 84.3977 245.699 84.1799C245.699 83.9621 245.757 83.7482 245.868 83.5603C245.978 83.3725 246.137 83.2175 246.328 83.1114L260.937 74.7184C261.53 74.3771 262.202 74.1974 262.887 74.1974C263.571 74.1974 264.243 74.3771 264.836 74.7184L279.628 83.2129C279.809 83.3161 279.959 83.4653 280.064 83.6455C280.169 83.8257 280.224 84.0303 280.224 84.2387C280.224 84.447 280.169 84.6517 280.064 84.8318C279.959 85.012 279.809 85.1613 279.628 85.2644L265.147 93.5934C264.495 93.9705 263.755 94.1691 263.002 94.1691C262.248 94.1691 261.508 93.9705 260.856 93.5934Z" fill="#212121"/>
<path d="M219.602 100.111V102.595C219.6 102.813 219.657 103.026 219.766 103.214C219.875 103.402 220.033 103.557 220.222 103.664L234.751 112.009C235.402 112.384 236.14 112.581 236.891 112.581C237.642 112.581 238.38 112.384 239.031 112.009L253.511 103.691C253.699 103.584 253.853 103.428 253.958 103.239C254.063 103.051 254.114 102.837 254.105 102.622H254.191V100.111H219.602Z" fill="#2D2D2D"/>
<path d="M234.765 109.434L220.236 101.073C220.047 100.965 219.89 100.81 219.78 100.622C219.671 100.435 219.613 100.221 219.613 100.004C219.613 99.787 219.671 99.5737 219.78 99.386C219.89 99.1983 220.047 99.0429 220.236 98.9357L234.845 90.548C235.438 90.2067 236.111 90.027 236.795 90.027C237.48 90.027 238.152 90.2067 238.745 90.548L253.536 99.0426C253.717 99.1457 253.868 99.295 253.973 99.4751C254.078 99.6553 254.133 99.8599 254.133 100.068C254.133 100.277 254.078 100.481 253.973 100.661C253.868 100.842 253.717 100.991 253.536 101.094L239.055 109.412C238.404 109.789 237.665 109.988 236.913 109.992C236.161 109.996 235.42 109.803 234.765 109.434Z" fill="#212121"/>
<path d="M154.278 120.84L202.898 148.781C203.23 148.973 203.607 149.075 203.99 149.076C204.374 149.076 204.75 148.977 205.083 148.786C205.416 148.596 205.692 148.321 205.885 147.99C206.078 147.659 206.181 147.284 206.183 146.901V119.328C206.182 118.619 205.994 117.923 205.638 117.31C205.282 116.697 204.771 116.188 204.155 115.834L154.112 87.0915C154.017 87.0376 153.91 87.0093 153.801 87.0093C153.693 87.0093 153.586 87.0377 153.491 87.0916C153.397 87.1456 153.318 87.2232 153.262 87.3169C153.207 87.4106 153.177 87.517 153.176 87.6258V118.959C153.178 119.342 153.281 119.717 153.475 120.047C153.668 120.377 153.945 120.651 154.278 120.84Z" fill="url(#paint13_linear_2477_24553)"/>
<path d="M163.925 116.887L212.551 144.817C212.883 145.009 213.26 145.111 213.644 145.111C214.028 145.112 214.405 145.012 214.738 144.821C215.071 144.629 215.347 144.354 215.54 144.023C215.733 143.691 215.834 143.315 215.835 142.931V115.364C215.835 114.655 215.648 113.958 215.292 113.345C214.936 112.731 214.424 112.223 213.808 111.87L163.77 83.1274C163.675 83.0721 163.567 83.0427 163.458 83.0421C163.348 83.0414 163.24 83.0695 163.145 83.1236C163.049 83.1778 162.97 83.2559 162.914 83.3503C162.859 83.4448 162.829 83.5521 162.828 83.6616V114.995C162.827 115.379 162.929 115.756 163.121 116.088C163.314 116.421 163.591 116.696 163.925 116.887Z" fill="url(#paint14_linear_2477_24553)"/>
<path d="M173.564 112.922L222.195 140.853C222.527 141.045 222.904 141.147 223.288 141.148C223.671 141.149 224.048 141.048 224.381 140.857C224.714 140.666 224.99 140.391 225.182 140.059C225.374 139.727 225.475 139.35 225.474 138.967V111.394C225.474 110.687 225.287 109.992 224.932 109.379C224.577 108.767 224.067 108.259 223.452 107.906L173.409 79.1686C173.314 79.1147 173.207 79.0863 173.098 79.0864C172.989 79.0864 172.882 79.1148 172.788 79.1687C172.693 79.2227 172.615 79.3003 172.559 79.394C172.504 79.4877 172.474 79.5941 172.473 79.7029V111.037C172.473 111.419 172.574 111.794 172.766 112.125C172.957 112.456 173.232 112.731 173.564 112.922Z" fill="url(#paint15_linear_2477_24553)"/>
<path d="M144.636 124.815L193.267 152.751C193.599 152.941 193.975 153.042 194.359 153.042C194.742 153.042 195.118 152.941 195.45 152.75C195.782 152.559 196.058 152.285 196.25 151.954C196.443 151.623 196.545 151.247 196.546 150.865V123.292C196.547 122.584 196.359 121.888 196.003 121.275C195.647 120.662 195.135 120.154 194.519 119.803L144.481 91.0556C144.386 91.002 144.278 90.9739 144.169 90.9741C144.06 90.9742 143.953 91.0025 143.858 91.0563C143.763 91.1102 143.684 91.1876 143.628 91.2811C143.572 91.3746 143.542 91.4809 143.539 91.5898V122.929C143.538 123.312 143.639 123.688 143.832 124.02C144.025 124.351 144.302 124.625 144.636 124.815Z" fill="url(#paint16_linear_2477_24553)"/>
<path d="M134.999 128.784L183.625 156.715C183.957 156.907 184.334 157.008 184.718 157.009C185.102 157.01 185.479 156.909 185.812 156.718C186.145 156.527 186.421 156.252 186.614 155.92C186.807 155.589 186.909 155.212 186.909 154.829V127.251C186.908 126.543 186.72 125.848 186.364 125.235C186.008 124.623 185.497 124.115 184.882 123.762L134.838 95.0198C134.744 94.9642 134.637 94.9345 134.527 94.9337C134.418 94.9329 134.31 94.961 134.215 95.0153C134.12 95.0696 134.041 95.148 133.986 95.2426C133.931 95.3372 133.902 95.4447 133.902 95.5541V126.893C133.902 127.277 134.004 127.654 134.196 127.986C134.389 128.318 134.666 128.593 134.999 128.784Z" fill="url(#paint17_linear_2477_24553)"/>
<path d="M141.471 106.955L135.758 103.674V104.268L141.471 107.548V106.955Z" fill="url(#paint18_linear_2477_24553)"/>
<path d="M141.471 109.087L135.758 105.801V106.394L141.471 109.674V109.087Z" fill="url(#paint19_linear_2477_24553)"/>
<path d="M135.758 100.207V100.795L137.753 101.944V101.356L135.758 100.207Z" fill="url(#paint20_linear_2477_24553)"/>
<path d="M135.758 101.361V101.954L137.753 103.103V102.51L135.758 101.361Z" fill="url(#paint21_linear_2477_24553)"/>
<path d="M135.758 109.514V110.107L137.432 111.069V110.481L135.758 109.514Z" fill="url(#paint22_linear_2477_24553)"/>
<path d="M135.758 110.673V111.261L137.432 112.228V111.635L135.758 110.673Z" fill="url(#paint23_linear_2477_24553)"/>
<path d="M135.758 114.141V114.728L139.631 116.956V116.363L135.758 114.141Z" fill="url(#paint24_linear_2477_24553)"/>
<path d="M135.758 116.448V117.041L139.631 119.269V118.676L135.758 116.448Z" fill="url(#paint25_linear_2477_24553)"/>
<path d="M135.758 117.682V118.275L137.213 119.109V118.521L135.758 117.682Z" fill="url(#paint26_linear_2477_24553)"/>
<path d="M135.758 121.15V121.743L137.213 122.582V121.988L135.758 121.15Z" fill="url(#paint27_linear_2477_24553)"/>
<path d="M135.758 123.463V124.056L137.213 124.889V124.302L135.758 123.463Z" fill="url(#paint28_linear_2477_24553)"/>
<path d="M155.92 122.977C155.92 120.706 157.525 119.771 159.504 120.893V114.856C154.486 112.009 150.41 114.322 150.41 120.033L155.947 123.239C155.925 123.159 155.92 123.078 155.92 122.977Z" fill="url(#paint29_linear_2477_24553)"/>
<path d="M155.935 123.233L150.398 120.028C150.398 122.972 151.426 126.182 153.073 129.03L157.064 126.653C156.414 125.622 156.027 124.448 155.935 123.233Z" fill="url(#paint30_linear_2477_24553)"/>
<g filter="url(#filter3_b_2477_24553)">
<path d="M168.72 130.579C168.72 124.815 164.601 117.805 159.556 114.91C159.492 114.878 159.503 120.915 159.503 120.915C160.571 121.591 161.462 122.512 162.103 123.601C162.744 124.689 163.116 125.915 163.188 127.176C163.188 129.468 161.584 130.381 159.556 129.238C158.527 128.604 157.673 127.725 157.069 126.679L153.078 129.057C154.627 131.812 156.848 134.131 159.535 135.799C164.617 138.721 168.72 136.392 168.72 130.617V130.579Z" fill="url(#paint31_linear_2477_24553)"/>
</g>
<path d="M366.957 171.369L321.252 145.191C320.663 144.854 320.173 144.368 319.832 143.782C319.492 143.196 319.312 142.53 319.312 141.852C319.312 141.174 319.492 140.508 319.832 139.922C320.173 139.335 320.663 138.849 321.252 138.513L367.203 112.174C369.072 111.106 371.188 110.543 373.342 110.543C375.495 110.543 377.611 111.106 379.48 112.174L426.02 138.844C426.588 139.168 427.06 139.637 427.388 140.202C427.717 140.767 427.89 141.409 427.89 142.063C427.89 142.716 427.717 143.358 427.388 143.924C427.06 144.489 426.588 144.957 426.02 145.282L380.464 171.39C378.407 172.565 376.078 173.182 373.708 173.178C371.338 173.174 369.011 172.551 366.957 171.369Z" fill="#212121"/>
<path d="M357.198 137.578L368.282 131.215C368.419 131.131 368.532 131.013 368.611 130.873C368.69 130.732 368.731 130.574 368.731 130.414C368.731 130.253 368.69 130.095 368.611 129.954C368.532 129.814 368.419 129.696 368.282 129.612L357.134 123.201C356.681 122.942 356.168 122.805 355.647 122.805C355.125 122.805 354.612 122.942 354.159 123.201L342.878 129.682C342.738 129.759 342.622 129.872 342.541 130.009C342.461 130.146 342.418 130.302 342.418 130.462C342.418 130.621 342.461 130.777 342.541 130.914C342.622 131.051 342.738 131.164 342.878 131.242L353.924 137.588C354.423 137.873 354.988 138.021 355.562 138.02C356.137 138.018 356.701 137.865 357.198 137.578Z" fill="#2D2D2D"/>
<path d="M339.441 147.686L350.541 141.318C350.678 141.234 350.792 141.116 350.87 140.975C350.949 140.835 350.99 140.677 350.99 140.516C350.99 140.355 350.949 140.197 350.87 140.057C350.792 139.917 350.678 139.799 350.541 139.715L339.398 133.304C338.945 133.044 338.431 132.907 337.909 132.907C337.386 132.907 336.872 133.044 336.419 133.304L325.137 139.784C324.999 139.863 324.885 139.978 324.805 140.115C324.725 140.252 324.684 140.408 324.684 140.567C324.684 140.726 324.725 140.882 324.805 141.019C324.885 141.157 324.999 141.271 325.137 141.35L336.183 147.697C336.68 147.978 337.242 148.125 337.814 148.123C338.385 148.121 338.946 147.97 339.441 147.686Z" fill="#2D2D2D"/>
<g filter="url(#filter4_b_2477_24553)">
<path d="M350.778 127.652C353.586 126.049 358.128 126.022 360.942 127.604C361.263 127.79 361.258 128.074 360.942 128.245C360.776 128.327 360.593 128.369 360.407 128.369C360.221 128.369 360.038 128.327 359.872 128.245C358.625 127.625 357.249 127.305 355.856 127.31C354.463 127.316 353.09 127.647 351.848 128.277C349.623 129.554 349.612 131.621 351.848 132.893C353.093 133.518 354.467 133.844 355.86 133.844C357.253 133.844 358.627 133.518 359.872 132.893C360.042 132.804 360.231 132.759 360.423 132.759C360.615 132.759 360.804 132.804 360.974 132.893C361.274 133.063 361.274 133.341 360.974 133.518C358.139 135.12 353.56 135.152 350.751 133.518C347.943 131.883 347.954 129.276 350.778 127.652Z" fill="url(#paint32_linear_2477_24553)"/>
</g>
<path d="M374.777 127.951L385.85 121.583C385.988 121.499 386.103 121.382 386.182 121.242C386.262 121.101 386.304 120.942 386.304 120.781C386.304 120.62 386.262 120.461 386.182 120.321C386.103 120.18 385.988 120.063 385.85 119.98L374.707 113.569C374.254 113.309 373.742 113.172 373.22 113.172C372.698 113.172 372.185 113.309 371.733 113.569L360.446 120.049C360.308 120.128 360.193 120.242 360.114 120.38C360.034 120.517 359.992 120.673 359.992 120.832C359.992 120.991 360.034 121.147 360.114 121.284C360.193 121.421 360.308 121.535 360.446 121.615L371.492 127.961C371.992 128.248 372.559 128.397 373.136 128.396C373.712 128.394 374.278 128.24 374.777 127.951Z" fill="#2D2D2D"/>
<g filter="url(#filter5_b_2477_24553)">
<path d="M368.36 118.025C371.163 116.422 375.71 116.39 378.524 117.976C378.84 118.163 378.84 118.441 378.524 118.618C378.357 118.698 378.174 118.74 377.989 118.74C377.804 118.74 377.621 118.698 377.454 118.618C376.207 117.998 374.832 117.677 373.439 117.682C372.046 117.686 370.673 118.016 369.43 118.644C367.21 119.921 367.199 121.994 369.43 123.26C370.674 123.887 372.049 124.213 373.442 124.213C374.836 124.213 376.21 123.887 377.454 123.26C377.625 123.173 377.814 123.128 378.005 123.128C378.197 123.128 378.385 123.173 378.556 123.26C378.621 123.283 378.677 123.325 378.717 123.381C378.757 123.437 378.778 123.504 378.778 123.573C378.778 123.641 378.757 123.708 378.717 123.764C378.677 123.82 378.621 123.863 378.556 123.885C375.721 125.488 371.137 125.525 368.333 123.885C365.53 122.245 365.52 119.643 368.36 118.025Z" fill="url(#paint33_linear_2477_24553)"/>
</g>
<path d="M332.629 137.845C335.437 136.242 339.979 136.216 342.793 137.802C343.109 137.989 343.103 138.267 342.793 138.438C342.627 138.521 342.444 138.564 342.258 138.564C342.072 138.564 341.889 138.521 341.723 138.438C340.478 137.814 339.104 137.489 337.711 137.489C336.318 137.489 334.944 137.814 333.699 138.438C331.474 139.715 331.463 141.788 333.699 143.054C334.944 143.68 336.318 144.006 337.711 144.006C339.104 144.006 340.478 143.68 341.723 143.054C341.889 142.972 342.072 142.929 342.258 142.929C342.444 142.929 342.627 142.972 342.793 143.054C342.858 143.077 342.914 143.119 342.954 143.175C342.993 143.231 343.015 143.298 343.015 143.367C343.015 143.435 342.993 143.502 342.954 143.558C342.914 143.614 342.858 143.656 342.793 143.679C339.952 145.309 335.373 145.319 332.565 143.706C329.756 142.092 329.805 139.469 332.629 137.845Z" fill="#FF0000"/>
<path d="M295.769 167.913L245.271 196.917C244.926 197.117 244.535 197.223 244.137 197.224C243.739 197.224 243.347 197.121 243.001 196.922C242.656 196.724 242.369 196.439 242.169 196.094C241.969 195.75 241.864 195.359 241.863 194.962V166.331C241.864 165.595 242.058 164.873 242.427 164.236C242.797 163.599 243.327 163.071 243.966 162.704L295.935 132.855C296.031 132.799 296.141 132.768 296.253 132.767C296.365 132.765 296.475 132.793 296.573 132.847C296.671 132.901 296.754 132.979 296.813 133.074C296.871 133.169 296.904 133.278 296.908 133.389V165.931C296.913 166.332 296.81 166.728 296.61 167.077C296.409 167.425 296.119 167.714 295.769 167.913Z" fill="url(#paint34_linear_2477_24553)"/>
<path d="M304.845 173.576L254.341 202.58C253.996 202.778 253.605 202.883 253.207 202.883C252.808 202.882 252.417 202.778 252.072 202.579C251.727 202.381 251.44 202.095 251.24 201.751C251.041 201.407 250.935 201.017 250.934 200.619V171.994C250.934 171.258 251.129 170.536 251.498 169.899C251.867 169.262 252.397 168.734 253.036 168.367L305.005 138.518C305.102 138.463 305.211 138.434 305.323 138.433C305.434 138.433 305.544 138.46 305.641 138.514C305.739 138.568 305.821 138.645 305.88 138.739C305.939 138.834 305.973 138.941 305.979 139.052V171.594C305.983 171.995 305.881 172.39 305.681 172.738C305.482 173.087 305.193 173.376 304.845 173.576Z" fill="url(#paint35_linear_2477_24553)"/>
<path d="M316.188 179.244L265.69 208.248C265.347 208.447 264.958 208.552 264.562 208.554C264.166 208.556 263.776 208.455 263.431 208.26C263.086 208.065 262.798 207.783 262.596 207.443C262.393 207.103 262.284 206.715 262.277 206.32V177.684C262.278 176.949 262.473 176.227 262.842 175.591C263.211 174.955 263.742 174.428 264.38 174.062L316.349 144.208C316.446 144.153 316.555 144.124 316.666 144.123C316.778 144.123 316.887 144.15 316.985 144.204C317.083 144.257 317.165 144.335 317.224 144.429C317.283 144.523 317.317 144.631 317.323 144.742V177.283C317.322 177.681 317.217 178.071 317.018 178.415C316.819 178.759 316.533 179.045 316.188 179.244Z" fill="url(#paint36_linear_2477_24553)"/>
<path d="M327.54 184.907L277.036 213.911C276.692 214.111 276.301 214.217 275.903 214.218C275.504 214.219 275.113 214.115 274.767 213.917C274.422 213.719 274.135 213.433 273.935 213.089C273.735 212.745 273.629 212.354 273.629 211.956V183.347C273.63 182.612 273.825 181.89 274.194 181.254C274.563 180.619 275.093 180.091 275.731 179.725L327.701 149.876C327.797 149.82 327.907 149.79 328.019 149.788C328.131 149.787 328.241 149.814 328.339 149.868C328.437 149.922 328.52 150 328.578 150.095C328.637 150.19 328.67 150.299 328.674 150.411V182.952C328.673 183.348 328.568 183.738 328.369 184.081C328.17 184.424 327.884 184.709 327.54 184.907Z" fill="url(#paint37_linear_2477_24553)"/>
<path d="M337.738 190.004L287.24 219.008C286.895 219.208 286.504 219.314 286.106 219.315C285.707 219.316 285.316 219.212 284.97 219.014C284.625 218.815 284.338 218.53 284.138 218.186C283.938 217.841 283.833 217.451 283.832 217.053V188.422C283.833 187.687 284.027 186.964 284.396 186.327C284.765 185.69 285.296 185.162 285.934 184.795L337.904 154.946C338 154.89 338.11 154.86 338.222 154.858C338.334 154.857 338.444 154.884 338.542 154.938C338.64 154.992 338.723 155.07 338.781 155.165C338.84 155.26 338.873 155.369 338.877 155.481V188.048C338.877 188.446 338.772 188.836 338.572 189.18C338.371 189.523 338.084 189.807 337.738 190.004Z" fill="url(#paint38_linear_2477_24553)"/>
<path d="M328.878 191.724L324.711 185.586C324.592 185.414 324.428 185.279 324.237 185.195C324.046 185.111 323.836 185.081 323.629 185.11C323.422 185.138 323.228 185.223 323.066 185.355C322.905 185.487 322.783 185.661 322.715 185.858L321.774 188.673C321.724 188.82 321.637 188.952 321.522 189.056C321.406 189.16 321.266 189.232 321.114 189.266C320.963 189.3 320.805 189.294 320.656 189.249C320.507 189.204 320.373 189.122 320.265 189.01L315.799 184.394C315.625 184.214 315.408 184.082 315.168 184.009C314.928 183.937 314.674 183.927 314.429 183.98C314.185 184.034 313.958 184.149 313.771 184.315C313.583 184.481 313.442 184.692 313.359 184.928L310.107 194.288C309.97 194.682 309.741 195.038 309.439 195.325C309.137 195.613 308.77 195.824 308.37 195.941C307.969 196.058 307.546 196.078 307.137 195.999C306.727 195.919 306.342 195.743 306.014 195.485L305.517 195.095C305.39 194.997 305.24 194.932 305.082 194.907C304.923 194.881 304.761 194.896 304.609 194.949C304.458 195.002 304.322 195.092 304.214 195.211C304.107 195.33 304.03 195.474 303.992 195.629L300.922 207.383L328.878 191.724Z" fill="url(#paint39_linear_2477_24553)"/>
<path d="M331.016 167.32L336.953 163.906V164.52L331.016 167.929V167.32ZM331.016 170.14L336.953 166.732V166.117L331.016 169.526V170.14ZM334.878 161.496V162.111L336.953 160.919V160.305L334.878 161.496ZM334.878 162.698V163.313L336.953 162.121V161.507L334.878 162.698ZM335.21 170.974V171.594L336.953 170.594V169.991L335.21 170.974ZM335.21 172.176V172.79L336.953 171.786V171.171L335.21 172.176ZM332.931 177.086V177.7L336.953 175.392V174.799L332.931 177.086ZM332.931 179.484V180.142L336.953 177.834V177.219L332.931 179.484ZM335.44 179.324V179.938L336.953 179.073V178.459L335.44 179.324ZM335.44 182.925V183.539L336.953 182.674V182.059L335.44 182.925ZM335.44 185.329V185.943L336.953 185.073V184.458L335.44 185.329Z" fill="url(#paint40_linear_2477_24553)"/>
<path d="M295.501 191.313C295.501 190.009 294.581 189.475 293.441 190.116V186.649C296.325 185.014 298.652 186.339 298.668 189.619L295.49 191.446C295.496 191.404 295.501 191.361 295.501 191.313Z" fill="url(#paint41_linear_2477_24553)"/>
<path d="M295.5 191.446L298.678 189.619C298.619 191.447 298.087 193.229 297.132 194.791L294.848 193.423C295.22 192.826 295.444 192.148 295.5 191.446Z" fill="url(#paint42_linear_2477_24553)"/>
<g filter="url(#filter6_b_2477_24553)">
<path d="M288.15 195.661C288.15 192.354 290.514 188.331 293.413 186.67C293.446 186.67 293.413 190.116 293.413 190.116C292.796 190.501 292.279 191.029 291.907 191.654C291.535 192.28 291.317 192.985 291.274 193.711C291.274 195.026 292.21 195.554 293.365 194.892C293.955 194.526 294.445 194.022 294.794 193.423L297.078 194.79C296.191 196.376 294.918 197.711 293.376 198.674C290.455 200.347 288.102 199.011 288.102 195.693L288.15 195.661Z" fill="url(#paint43_linear_2477_24553)"/>
</g>
<path d="M365.174 146.724C365.314 146.655 365.469 146.619 365.626 146.619C365.782 146.619 365.937 146.655 366.078 146.724C366.324 146.869 366.329 147.098 366.078 147.259C365.937 147.328 365.782 147.365 365.626 147.365C365.469 147.365 365.314 147.328 365.174 147.259C365.112 147.246 365.056 147.213 365.016 147.164C364.976 147.116 364.955 147.055 364.955 146.992C364.955 146.929 364.976 146.868 365.016 146.819C365.056 146.77 365.112 146.737 365.174 146.724ZM367.522 148.594C367.661 148.666 367.815 148.703 367.971 148.703C368.128 148.703 368.282 148.666 368.421 148.594C368.492 148.594 368.56 148.566 368.61 148.516C368.66 148.466 368.688 148.398 368.688 148.327C368.688 148.256 368.66 148.188 368.61 148.138C368.56 148.088 368.492 148.06 368.421 148.06C368.281 147.989 368.126 147.952 367.969 147.952C367.811 147.952 367.657 147.989 367.517 148.06C367.271 148.22 367.271 148.45 367.522 148.621V148.594ZM369.86 149.428C369.614 149.572 369.614 149.802 369.86 149.962C369.999 150.033 370.153 150.07 370.309 150.07C370.465 150.07 370.619 150.033 370.758 149.962C371.01 149.823 371.01 149.588 370.758 149.428C370.619 149.357 370.465 149.321 370.309 149.321C370.153 149.321 369.999 149.357 369.86 149.428ZM372.203 150.779C371.957 150.918 371.957 151.153 372.203 151.314C372.342 151.385 372.496 151.422 372.652 151.422C372.808 151.422 372.962 151.385 373.101 151.314C373.353 151.169 373.353 150.94 373.101 150.779C372.964 150.706 372.811 150.665 372.655 150.662C372.498 150.658 372.344 150.691 372.203 150.758V150.779ZM375.45 152.131C375.309 152.061 375.155 152.025 374.998 152.025C374.841 152.025 374.686 152.061 374.546 152.131C374.484 152.143 374.428 152.177 374.388 152.226C374.348 152.274 374.327 152.335 374.327 152.398C374.327 152.461 374.348 152.522 374.388 152.571C374.428 152.62 374.484 152.653 374.546 152.665C374.685 152.735 374.839 152.772 374.995 152.772C375.151 152.772 375.305 152.735 375.444 152.665C375.685 152.505 375.685 152.275 375.45 152.131ZM377.793 153.483C377.652 153.413 377.498 153.377 377.341 153.377C377.184 153.377 377.029 153.413 376.889 153.483C376.643 153.627 376.643 153.857 376.889 154.017C377.028 154.087 377.182 154.123 377.338 154.123C377.494 154.123 377.648 154.087 377.787 154.017C378.044 153.857 378.044 153.627 377.793 153.483ZM380.136 154.834C379.997 154.763 379.843 154.726 379.686 154.726C379.53 154.726 379.376 154.763 379.237 154.834C378.986 154.979 378.986 155.208 379.237 155.369C379.376 155.44 379.53 155.477 379.686 155.477C379.843 155.477 379.997 155.44 380.136 155.369C380.207 155.369 380.275 155.34 380.325 155.29C380.375 155.24 380.403 155.172 380.403 155.101C380.403 155.031 380.375 154.963 380.325 154.913C380.275 154.863 380.207 154.834 380.136 154.834ZM382.479 156.181C382.34 156.109 382.186 156.072 382.029 156.072C381.873 156.072 381.719 156.109 381.58 156.181C381.329 156.32 381.329 156.555 381.58 156.715C381.719 156.786 381.873 156.823 382.029 156.823C382.186 156.823 382.34 156.786 382.479 156.715C382.73 156.56 382.73 156.325 382.479 156.181ZM384.822 157.532C384.683 157.461 384.529 157.424 384.373 157.424C384.216 157.424 384.062 157.461 383.923 157.532C383.672 157.671 383.672 157.906 383.923 158.067C384.063 158.137 384.216 158.173 384.373 158.173C384.529 158.173 384.682 158.137 384.822 158.067C385.073 157.906 385.073 157.703 384.822 157.532ZM387.165 158.884C387.025 158.814 386.872 158.778 386.716 158.778C386.56 158.778 386.406 158.814 386.266 158.884C386.015 159.028 386.015 159.258 386.266 159.418C386.406 159.488 386.56 159.525 386.716 159.525C386.872 159.525 387.025 159.488 387.165 159.418C387.416 159.258 387.416 159.028 387.165 158.884ZM379.472 140.073L378.36 139.432L369.587 144.449L370.716 145.1L379.472 140.073ZM383.891 142.616L382.757 141.964L373.984 146.986L375.118 147.638L383.891 142.616ZM393.22 139.811L392.092 139.16L376.193 148.242L377.322 148.894L393.22 139.811ZM393.001 143.305L384.228 148.327L385.357 148.979L394.13 143.957L393.001 143.305ZM395.21 144.582L386.437 149.599L387.566 150.251L396.339 145.229L395.21 144.582ZM397.42 145.854L388.647 150.876L389.775 151.527L398.548 146.505L397.42 145.854ZM398.49 129.169L397.355 128.523L379.446 138.775L380.58 139.427L398.49 129.169ZM381.676 140.073L382.805 140.725L399.426 131.21L398.297 130.558L381.676 140.073ZM385.014 141.996L402.967 131.717L401.828 131.066L383.902 141.329L385.014 141.996ZM395.258 143.343L409.253 135.329L408.118 134.683L394.13 142.696L395.258 143.343ZM397.468 144.614L411.473 136.6L410.333 135.954L396.339 143.968L397.468 144.614ZM399.677 145.886L413.687 137.872L412.553 137.22L398.543 145.234L399.677 145.886ZM404.925 144.657L396.152 149.679L397.281 150.331L406.054 145.309L404.925 144.657ZM407.193 144.657L416.367 139.411L415.228 138.759L406.064 144.005L407.193 144.657ZM419.678 141.302L400.57 152.243L401.699 152.89L420.818 141.948L419.678 141.302ZM362.761 149.69L361.627 149.038L354.464 153.141L355.598 153.787L362.761 149.69ZM357.802 155.032L364.965 150.929L363.836 150.277L356.673 154.38L357.802 155.032ZM368.255 152.826L357.417 159.028L358.546 159.68L369.384 153.477L368.255 152.826ZM369.956 156.517L361.482 161.374L362.611 162.02L371.09 157.169L369.956 156.517ZM353.341 153.75L350.789 155.208L351.918 155.86L354.469 154.402L353.341 153.75ZM352.998 156.485L354.127 157.132L356.679 155.673L355.545 155.021L352.998 156.485ZM370.78 166.732L371.914 167.384L375.562 165.295L374.433 164.643L370.78 166.732Z" fill="url(#paint44_linear_2477_24553)"/>
<path d="M380.55 140.703L371.777 145.725L372.911 146.377L381.684 141.355L380.55 140.703Z" fill="url(#paint45_linear_2477_24553)"/>
<path d="M396.183 138.123L405.165 132.983L404.031 132.337L395.055 137.476L396.183 138.123Z" fill="url(#paint46_linear_2477_24553)"/>
<path d="M417.462 140.003L398.359 150.939L399.488 151.586L418.596 140.65L417.462 140.003Z" fill="url(#paint47_linear_2477_24553)"/>
<path d="M372.222 163.393L368.574 165.482L369.703 166.133L373.351 164.044L372.222 163.393Z" fill="url(#paint48_linear_2477_24553)"/>
<path d="M75.7227 237.103L107.557 218.244L107.996 200.048L136.754 199.166L124.68 173.292L168.149 180.313L182.86 170.445" fill="url(#paint49_linear_2477_24553)"/>
<path d="M75.7227 237.103L107.557 218.244L107.996 200.048L136.754 199.166L124.68 173.292L168.149 180.313L182.86 170.445" stroke="#308DFD" stroke-miterlimit="10"/>
<path opacity="0.5" d="M346.954 253.882L364.776 288.834L320.644 316.536L258.69 309.286L240.869 274.334L285.001 246.633L346.954 253.882Z" fill="url(#paint50_linear_2477_24553)"/>
<path d="M345.476 248.175L363.302 283.135L319.159 310.844L257.19 303.592L239.364 268.632L283.507 240.923L345.476 248.175Z" fill="url(#paint51_linear_2477_24553)" stroke="#FFB21D" stroke-width="2" stroke-linejoin="round"/>
<path d="M347.257 233.277L364.766 259.777L363.385 275L320.946 302.702L258.993 295.452L241.171 262.194L240.868 245.531L285.303 226.027L347.257 233.277Z" fill="#E9E9E9"/>
<g filter="url(#filter7_bd_2477_24553)">
<path d="M346.954 225.101L364.776 260.052L320.644 287.754L258.69 280.504L240.869 245.553L285.001 217.851L346.954 225.101Z" fill="url(#paint52_linear_2477_24553)" shape-rendering="crispEdges"/>
<path d="M285.099 218.045L346.709 225.254L364.432 260.012L320.545 287.56L258.935 280.351L241.212 245.593L285.099 218.045Z" stroke="url(#paint53_linear_2477_24553)" stroke-width="0.5" shape-rendering="crispEdges"/>
</g>
<path d="M285.839 242.297C296.383 236.487 312.162 236.583 321.079 242.498C328.165 247.197 328.794 254.154 323.486 259.728C322.75 259.879 321.983 259.79 321.304 259.474C320.406 258.888 318.152 257.357 318.152 257.357C318.884 257.054 319.598 256.709 320.289 256.324C323.262 254.688 322.615 253.104 322.157 252.273C321.92 251.874 321.796 251.421 321.796 250.96C321.796 250.499 321.92 250.047 322.157 249.647C322.381 249.201 322.157 248.921 321.51 249.175C321.326 249.249 321.146 249.334 320.972 249.429C318.744 250.654 320.63 252.763 319.427 253.961C319.029 254.336 318.582 254.656 318.098 254.915C317.297 255.356 316.421 255.653 315.511 255.79C314.381 255.312 313.144 255.126 311.919 255.248C316.041 252.544 317.379 250.199 316.652 248.046L316.571 247.81L316.239 247.171L316.104 246.961C315.287 245.853 314.256 244.911 313.069 244.187C310.644 242.577 308.821 242.437 306.324 242.271C305.039 240.791 303.286 239.77 301.34 239.366C301.224 239.411 301.113 239.467 301.008 239.532C299.426 240.507 298.229 241.975 297.613 243.697C295.593 244.283 293.656 245.112 291.847 246.165C290.346 246.949 288.94 247.894 287.654 248.982C285.543 249.236 282.166 249.857 280.846 250.566C280.695 250.643 280.559 250.743 280.442 250.864C280.55 251.31 281.107 252.474 284.331 253.926C284.537 254.53 283.783 256.455 287.294 258.8C288.493 259.574 289.773 260.222 291.111 260.734L291.749 260.962C291.749 260.962 292.063 261.058 292.386 261.137L292.737 261.224C296.517 262.099 300.173 261.224 304.941 259.054C304.277 260.34 304.815 261.198 307.384 262.904C309.952 264.611 310.339 264.812 310.922 265.206C311.506 265.599 311.326 266.081 311.156 266.518C301.475 269.231 290.015 268.216 282.921 263.499C273.994 257.584 275.314 248.072 285.848 242.262" fill="black"/>
<path opacity="0.5" d="M458.954 213.882L476.776 248.834L432.644 276.536L370.69 269.286L352.869 234.334L397.001 206.633L458.954 213.882Z" fill="url(#paint54_linear_2477_24553)"/>
<path d="M457.476 208.175L475.302 243.135L431.159 270.844L369.19 263.592L351.364 228.632L395.507 200.923L457.476 208.175Z" fill="url(#paint55_linear_2477_24553)" stroke="#FFB21D" stroke-width="2" stroke-linejoin="round"/>
<path d="M459.257 193.277L476.766 219.777L475.385 235L432.946 262.702L370.993 255.452L353.171 222.194L352.868 205.531L397.303 186.027L459.257 193.277Z" fill="#E9E9E9"/>
<g filter="url(#filter8_d_2477_24553)">
<path d="M458.954 185.101L476.776 220.052L432.644 247.754L370.69 240.504L352.869 205.553L397.001 177.851L458.954 185.101Z" fill="url(#paint56_linear_2477_24553)" shape-rendering="crispEdges"/>
<path d="M397.099 178.045L458.709 185.254L476.432 220.012L432.545 247.56L370.935 240.351L353.212 205.593L397.099 178.045Z" stroke="url(#paint57_linear_2477_24553)" stroke-width="0.5" shape-rendering="crispEdges"/>
</g>
<path opacity="0.5" d="M449.954 304.882L467.776 339.834L423.644 367.536L361.69 360.286L343.869 325.334L388.001 297.633L449.954 304.882Z" fill="url(#paint58_linear_2477_24553)"/>
<path d="M448.476 299.175L466.302 334.135L422.159 361.844L360.19 354.592L342.364 319.632L386.507 291.923L448.476 299.175Z" fill="url(#paint59_linear_2477_24553)" stroke="#FFB21D" stroke-width="2" stroke-linejoin="round"/>
<path d="M450.257 284.277L467.766 310.778L466.385 326L423.946 353.702L361.993 346.452L344.171 313.194L343.868 296.531L388.303 277.027L450.257 284.277Z" fill="#E9E9E9"/>
<g filter="url(#filter9_d_2477_24553)">
<path d="M449.954 276.101L467.776 311.052L423.644 338.754L361.69 331.504L343.869 296.553L388.001 268.851L449.954 276.101Z" fill="url(#paint60_linear_2477_24553)" shape-rendering="crispEdges"/>
<path d="M388.099 269.045L449.709 276.254L467.432 311.012L423.545 338.56L361.935 331.351L344.212 296.593L388.099 269.045Z" stroke="url(#paint61_linear_2477_24553)" stroke-width="0.5" shape-rendering="crispEdges"/>
</g>
<path d="M374.487 304.056C374.326 304.147 374.201 304.257 374.121 304.379C374.042 304.5 374.009 304.63 374.026 304.76C374.042 304.889 374.108 305.015 374.218 305.128C374.327 305.242 374.479 305.34 374.662 305.416L407.382 318.962C407.784 319.128 408.273 319.206 408.764 319.183C409.256 319.161 409.718 319.039 410.069 318.84L432.27 306.023C432.535 305.874 432.698 305.675 432.73 305.463C432.762 305.25 432.661 305.038 432.444 304.865L408.663 285.793C408.531 285.688 408.361 285.6 408.165 285.537C407.969 285.473 407.751 285.436 407.526 285.426C407.302 285.416 407.077 285.435 406.866 285.481C406.656 285.527 406.465 285.599 406.308 285.692L374.487 304.056ZM414.277 304.528L407.191 308.619L395.249 303.94L405.97 297.75L414.277 304.528Z" fill="#2684FF"/>
<path d="M416.201 291.844L405.971 297.75L414.277 304.528L407.191 308.619L408.756 319.182C409.25 319.162 409.716 319.04 410.069 318.839L432.276 306.02C432.54 305.871 432.703 305.672 432.735 305.459C432.767 305.247 432.666 305.035 432.45 304.862L416.201 291.844Z" fill="url(#paint62_linear_2477_24553)"/>
<path opacity="0.5" d="M325.954 334.882L343.776 369.834L299.644 397.536L237.69 390.286L219.869 355.334L264.001 327.633L325.954 334.882Z" fill="url(#paint63_linear_2477_24553)"/>
<path d="M324.476 329.175L342.302 364.135L298.159 391.844L236.19 384.592L218.364 349.632L262.507 321.923L324.476 329.175Z" fill="url(#paint64_linear_2477_24553)" stroke="#FFB21D" stroke-width="2" stroke-linejoin="round"/>
<path d="M326.257 314.277L343.766 340.778L342.385 356L299.946 383.702L237.993 376.452L220.171 343.194L219.868 326.531L264.303 307.027L326.257 314.277Z" fill="#E9E9E9"/>
<g filter="url(#filter10_d_2477_24553)">
<path d="M325.954 306.101L343.776 341.052L299.644 368.754L237.69 361.504L219.869 326.553L264.001 298.851L325.954 306.101Z" fill="url(#paint65_linear_2477_24553)" shape-rendering="crispEdges"/>
<path d="M264.099 299.045L325.709 306.254L343.432 341.012L299.545 368.56L237.935 361.351L220.212 326.593L264.099 299.045Z" stroke="url(#paint66_linear_2477_24553)" stroke-width="0.5" shape-rendering="crispEdges"/>
</g>
<path d="M273.374 333.066L285.446 326.243L295.133 340.352V340.36L273.374 333.066Z" fill="#E24329"/>
<path d="M285.45 326.243L293.91 321.457L295.145 340.352H295.137L285.45 326.243Z" fill="#FC6D26"/>
<path d="M293.906 321.457L300.521 323.665C301.123 323.873 301.424 324.298 301.246 324.73L295.141 340.352L293.906 321.457Z" fill="#FCA326"/>
<path d="M279.843 317.15C279.988 317.071 280.148 317.022 280.312 317.006C280.477 316.99 280.643 317.007 280.8 317.058L293.922 321.457L285.432 326.243L279.596 317.752C279.45 317.536 279.596 317.312 279.828 317.173" fill="#E24329"/>
<path d="M264.915 337.852L273.374 333.066L295.133 340.36L264.915 337.852Z" fill="#FC6D26"/>
<path d="M264.942 337.851L295.16 340.36L269.527 342.675C269.074 342.728 268.615 342.639 268.215 342.42L268.107 342.351C268.023 342.288 267.95 342.213 267.891 342.127L264.95 337.836" fill="#FCA326"/>
<path d="M259.304 328.759C259.451 328.681 259.612 328.633 259.778 328.618C259.944 328.604 260.111 328.623 260.269 328.674L273.391 333.066L264.9 337.851L259.065 329.361C258.911 329.145 259.065 328.921 259.289 328.774" fill="#E24329"/>
<path d="M422.214 217.032C426.744 213.295 430.485 210.207 430.526 210.17L430.601 210.104L419.227 209.536C412.971 209.223 407.84 208.96 407.824 208.951C407.793 208.933 398.386 197.309 398.364 197.261C398.356 197.245 408.309 198.776 422.489 200.972C435.766 203.028 446.712 204.724 446.814 204.74L447 204.769L430.489 214.298L413.977 223.828L422.214 217.032L422.214 217.032ZM400.517 227.383C400.508 227.378 398.707 223.512 396.514 218.791L392.526 210.209L393.546 203.479C394.106 199.777 394.571 196.741 394.578 196.731C394.585 196.722 394.655 196.815 394.733 196.938C394.811 197.061 398.357 202.685 402.613 209.435L410.352 221.709L405.442 224.55C402.742 226.113 400.525 227.388 400.517 227.383L400.517 227.383Z" fill="#0089D6"/>
</g>
<defs>
<filter id="filter0_b_2477_24553" x="187.035" y="193.767" width="43.2773" height="51.5978" filterUnits="userSpaceOnUse" color-interpolation-filters="sRGB">
<feFlood flood-opacity="0" result="BackgroundImageFix"/>
<feGaussianBlur in="BackgroundImage" stdDeviation="7"/>
<feComposite in2="SourceAlpha" operator="in" result="effect1_backgroundBlur_2477_24553"/>
<feBlend mode="normal" in="SourceGraphic" in2="effect1_backgroundBlur_2477_24553" result="shape"/>
</filter>
<filter id="filter1_b_2477_24553" x="234.484" y="106.936" width="43.0117" height="36.6562" filterUnits="userSpaceOnUse" color-interpolation-filters="sRGB">
<feFlood flood-opacity="0" result="BackgroundImageFix"/>
<feGaussianBlur in="BackgroundImage" stdDeviation="7"/>
<feComposite in2="SourceAlpha" operator="in" result="effect1_backgroundBlur_2477_24553"/>
<feBlend mode="normal" in="SourceGraphic" in2="effect1_backgroundBlur_2477_24553" result="shape"/>
</filter>
<filter id="filter2_b_2477_24553" x="248.887" y="98.4257" width="43.0117" height="36.6561" filterUnits="userSpaceOnUse" color-interpolation-filters="sRGB">
<feFlood flood-opacity="0" result="BackgroundImageFix"/>
<feGaussianBlur in="BackgroundImage" stdDeviation="7"/>
<feComposite in2="SourceAlpha" operator="in" result="effect1_backgroundBlur_2477_24553"/>
<feBlend mode="normal" in="SourceGraphic" in2="effect1_backgroundBlur_2477_24553" result="shape"/>
</filter>
<filter id="filter3_b_2477_24553" x="139.078" y="100.91" width="43.6406" height="50.1508" filterUnits="userSpaceOnUse" color-interpolation-filters="sRGB">
<feFlood flood-opacity="0" result="BackgroundImageFix"/>
<feGaussianBlur in="BackgroundImage" stdDeviation="7"/>
<feComposite in2="SourceAlpha" operator="in" result="effect1_backgroundBlur_2477_24553"/>
<feBlend mode="normal" in="SourceGraphic" in2="effect1_backgroundBlur_2477_24553" result="shape"/>
</filter>
<filter id="filter4_b_2477_24553" x="334.652" y="112.433" width="40.5469" height="36.2983" filterUnits="userSpaceOnUse" color-interpolation-filters="sRGB">
<feFlood flood-opacity="0" result="BackgroundImageFix"/>
<feGaussianBlur in="BackgroundImage" stdDeviation="7"/>
<feComposite in2="SourceAlpha" operator="in" result="effect1_backgroundBlur_2477_24553"/>
<feBlend mode="normal" in="SourceGraphic" in2="effect1_backgroundBlur_2477_24553" result="shape"/>
</filter>
<filter id="filter5_b_2477_24553" x="352.23" y="102.804" width="40.5469" height="36.2971" filterUnits="userSpaceOnUse" color-interpolation-filters="sRGB">
<feFlood flood-opacity="0" result="BackgroundImageFix"/>
<feGaussianBlur in="BackgroundImage" stdDeviation="7"/>
<feComposite in2="SourceAlpha" operator="in" result="effect1_backgroundBlur_2477_24553"/>
<feBlend mode="normal" in="SourceGraphic" in2="effect1_backgroundBlur_2477_24553" result="shape"/>
</filter>
<filter id="filter6_b_2477_24553" x="274.102" y="172.67" width="36.9766" height="40.7256" filterUnits="userSpaceOnUse" color-interpolation-filters="sRGB">
<feFlood flood-opacity="0" result="BackgroundImageFix"/>
<feGaussianBlur in="BackgroundImage" stdDeviation="7"/>
<feComposite in2="SourceAlpha" operator="in" result="effect1_backgroundBlur_2477_24553"/>
<feBlend mode="normal" in="SourceGraphic" in2="effect1_backgroundBlur_2477_24553" result="shape"/>
</filter>
<filter id="filter7_bd_2477_24553" x="226.867" y="203.851" width="151.91" height="97.9031" filterUnits="userSpaceOnUse" color-interpolation-filters="sRGB">
<feFlood flood-opacity="0" result="BackgroundImageFix"/>
<feGaussianBlur in="BackgroundImage" stdDeviation="7"/>
<feComposite in2="SourceAlpha" operator="in" result="effect1_backgroundBlur_2477_24553"/>
<feColorMatrix in="SourceAlpha" type="matrix" values="0 0 0 0 0 0 0 0 0 0 0 0 0 0 0 0 0 0 127 0" result="hardAlpha"/>
<feOffset dy="4"/>
<feGaussianBlur stdDeviation="2"/>
<feComposite in2="hardAlpha" operator="out"/>
<feColorMatrix type="matrix" values="0 0 0 0 0 0 0 0 0 0 0 0 0 0 0 0 0 0 0.04 0"/>
<feBlend mode="normal" in2="effect1_backgroundBlur_2477_24553" result="effect2_dropShadow_2477_24553"/>
<feBlend mode="normal" in="SourceGraphic" in2="effect2_dropShadow_2477_24553" result="shape"/>
</filter>
<filter id="filter8_d_2477_24553" x="348.867" y="177.851" width="131.91" height="77.903" filterUnits="userSpaceOnUse" color-interpolation-filters="sRGB">
<feFlood flood-opacity="0" result="BackgroundImageFix"/>
<feColorMatrix in="SourceAlpha" type="matrix" values="0 0 0 0 0 0 0 0 0 0 0 0 0 0 0 0 0 0 127 0" result="hardAlpha"/>
<feOffset dy="4"/>
<feGaussianBlur stdDeviation="2"/>
<feComposite in2="hardAlpha" operator="out"/>
<feColorMatrix type="matrix" values="0 0 0 0 0 0 0 0 0 0 0 0 0 0 0 0 0 0 0.04 0"/>
<feBlend mode="normal" in2="BackgroundImageFix" result="effect1_dropShadow_2477_24553"/>
<feBlend mode="normal" in="SourceGraphic" in2="effect1_dropShadow_2477_24553" result="shape"/>
</filter>
<filter id="filter9_d_2477_24553" x="339.867" y="268.851" width="131.91" height="77.9031" filterUnits="userSpaceOnUse" color-interpolation-filters="sRGB">
<feFlood flood-opacity="0" result="BackgroundImageFix"/>
<feColorMatrix in="SourceAlpha" type="matrix" values="0 0 0 0 0 0 0 0 0 0 0 0 0 0 0 0 0 0 127 0" result="hardAlpha"/>
<feOffset dy="4"/>
<feGaussianBlur stdDeviation="2"/>
<feComposite in2="hardAlpha" operator="out"/>
<feColorMatrix type="matrix" values="0 0 0 0 0 0 0 0 0 0 0 0 0 0 0 0 0 0 0.04 0"/>
<feBlend mode="normal" in2="BackgroundImageFix" result="effect1_dropShadow_2477_24553"/>
<feBlend mode="normal" in="SourceGraphic" in2="effect1_dropShadow_2477_24553" result="shape"/>
</filter>
<filter id="filter10_d_2477_24553" x="215.867" y="298.851" width="131.91" height="77.9031" filterUnits="userSpaceOnUse" color-interpolation-filters="sRGB">
<feFlood flood-opacity="0" result="BackgroundImageFix"/>
<feColorMatrix in="SourceAlpha" type="matrix" values="0 0 0 0 0 0 0 0 0 0 0 0 0 0 0 0 0 0 127 0" result="hardAlpha"/>
<feOffset dy="4"/>
<feGaussianBlur stdDeviation="2"/>
<feComposite in2="hardAlpha" operator="out"/>
<feColorMatrix type="matrix" values="0 0 0 0 0 0 0 0 0 0 0 0 0 0 0 0 0 0 0.04 0"/>
<feBlend mode="normal" in2="BackgroundImageFix" result="effect1_dropShadow_2477_24553"/>
<feBlend mode="normal" in="SourceGraphic" in2="effect1_dropShadow_2477_24553" result="shape"/>
</filter>
<linearGradient id="paint0_linear_2477_24553" x1="436.91" y1="159.626" x2="437.001" y2="159.626" gradientUnits="userSpaceOnUse">
<stop stop-color="#C4C4C4" stop-opacity="0.4"/>
<stop offset="1" stop-color="#C4C4C4" stop-opacity="0"/>
</linearGradient>
<linearGradient id="paint1_linear_2477_24553" x1="436.91" y1="151.126" x2="437.001" y2="151.126" gradientUnits="userSpaceOnUse">
<stop stop-color="#C4C4C4" stop-opacity="0"/>
<stop offset="1" stop-color="#C4C4C4" stop-opacity="0.4"/>
</linearGradient>
<linearGradient id="paint2_linear_2477_24553" x1="80652.1" y1="21191" x2="87325.2" y2="21191" gradientUnits="userSpaceOnUse">
<stop stop-color="#C4C4C4" stop-opacity="0.4"/>
<stop offset="1" stop-color="#C4C4C4" stop-opacity="0"/>
</linearGradient>
<linearGradient id="paint3_linear_2477_24553" x1="71754.2" y1="22690.1" x2="76402.6" y2="22690.1" gradientUnits="userSpaceOnUse">
<stop stop-color="#C4C4C4" stop-opacity="0.4"/>
<stop offset="1" stop-color="#C4C4C4" stop-opacity="0"/>
</linearGradient>
<linearGradient id="paint4_linear_2477_24553" x1="208.674" y1="207.767" x2="208.674" y2="231.365" gradientUnits="userSpaceOnUse">
<stop stop-color="#2C80FF"/>
<stop offset="1" stop-color="#40D4F4" stop-opacity="0.7"/>
</linearGradient>
<linearGradient id="paint5_linear_2477_24553" x1="125.494" y1="261.086" x2="164.121" y2="261.086" gradientUnits="userSpaceOnUse">
<stop stop-color="#979797"/>
<stop offset="0.97" stop-color="#121212" stop-opacity="0.03"/>
<stop offset="1" stop-color="white" stop-opacity="0"/>
</linearGradient>
<linearGradient id="paint6_linear_2477_24553" x1="44815.7" y1="13534.8" x2="46804.8" y2="13534.8" gradientUnits="userSpaceOnUse">
<stop stop-color="#979797"/>
<stop offset="0.97" stop-color="#121212" stop-opacity="0.03"/>
<stop offset="1" stop-color="white" stop-opacity="0"/>
</linearGradient>
<linearGradient id="paint7_linear_2477_24553" x1="34352.3" y1="10969.9" x2="35560.3" y2="10969.9" gradientUnits="userSpaceOnUse">
<stop stop-color="#C4C4C4" stop-opacity="0.4"/>
<stop offset="1" stop-color="#C4C4C4" stop-opacity="0"/>
</linearGradient>
<linearGradient id="paint8_linear_2477_24553" x1="8784.94" y1="3223.07" x2="8866.48" y2="3223.07" gradientUnits="userSpaceOnUse">
<stop stop-color="#C4C4C4" stop-opacity="0.4"/>
<stop offset="1" stop-color="#C4C4C4" stop-opacity="0"/>
</linearGradient>
<linearGradient id="paint9_linear_2477_24553" x1="21814.7" y1="7217.32" x2="22308.6" y2="7217.32" gradientUnits="userSpaceOnUse">
<stop stop-color="#676767"/>
<stop offset="0.97" stop-color="#121212" stop-opacity="0.03"/>
<stop offset="1" stop-color="white" stop-opacity="0"/>
</linearGradient>
<linearGradient id="paint10_linear_2477_24553" x1="56951.9" y1="8691.58" x2="59321.8" y2="8691.58" gradientUnits="userSpaceOnUse">
<stop stop-color="#C4C4C4" stop-opacity="0.4"/>
<stop offset="1" stop-color="#C4C4C4" stop-opacity="0"/>
</linearGradient>
<linearGradient id="paint11_linear_2477_24553" x1="255.989" y1="120.936" x2="255.989" y2="129.592" gradientUnits="userSpaceOnUse">
<stop stop-color="#2C80FF"/>
<stop offset="1" stop-color="#40D4F4" stop-opacity="0.7"/>
</linearGradient>
<linearGradient id="paint12_linear_2477_24553" x1="270.392" y1="112.426" x2="270.392" y2="121.082" gradientUnits="userSpaceOnUse">
<stop stop-color="#2C80FF"/>
<stop offset="1" stop-color="#40D4F4" stop-opacity="0.7"/>
</linearGradient>
<linearGradient id="paint13_linear_2477_24553" x1="70656.3" y1="30174.9" x2="75908.7" y2="30174.9" gradientUnits="userSpaceOnUse">
<stop stop-color="#C4C4C4" stop-opacity="0.4"/>
<stop offset="1" stop-color="#C4C4C4" stop-opacity="0"/>
</linearGradient>
<linearGradient id="paint14_linear_2477_24553" x1="71621.2" y1="29711.2" x2="76873.7" y2="29711.2" gradientUnits="userSpaceOnUse">
<stop stop-color="#C4C4C4" stop-opacity="0.4"/>
<stop offset="1" stop-color="#C4C4C4" stop-opacity="0"/>
</linearGradient>
<linearGradient id="paint15_linear_2477_24553" x1="72579.2" y1="29243.1" x2="77830.6" y2="29243.1" gradientUnits="userSpaceOnUse">
<stop stop-color="#C4C4C4" stop-opacity="0.4"/>
<stop offset="1" stop-color="#C4C4C4" stop-opacity="0"/>
</linearGradient>
<linearGradient id="paint16_linear_2477_24553" x1="69690.9" y1="30640.1" x2="74943.4" y2="30640.1" gradientUnits="userSpaceOnUse">
<stop stop-color="#C4C4C4" stop-opacity="0.4"/>
<stop offset="1" stop-color="#C4C4C4" stop-opacity="0"/>
</linearGradient>
<linearGradient id="paint17_linear_2477_24553" x1="68726.1" y1="31108.4" x2="73978.5" y2="31108.4" gradientUnits="userSpaceOnUse">
<stop stop-color="#C4C4C4" stop-opacity="0.4"/>
<stop offset="1" stop-color="#C4C4C4" stop-opacity="0"/>
</linearGradient>
<linearGradient id="paint18_linear_2477_24553" x1="2960.74" y1="998.291" x2="3021.76" y2="998.291" gradientUnits="userSpaceOnUse">
<stop stop-color="#C4C4C4" stop-opacity="0.4"/>
<stop offset="1" stop-color="#C4C4C4" stop-opacity="0"/>
</linearGradient>
<linearGradient id="paint19_linear_2477_24553" x1="2960.74" y1="1015.83" x2="3021.76" y2="1015.83" gradientUnits="userSpaceOnUse">
<stop stop-color="#C4C4C4" stop-opacity="0.4"/>
<stop offset="1" stop-color="#C4C4C4" stop-opacity="0"/>
</linearGradient>
<linearGradient id="paint20_linear_2477_24553" x1="1122.38" y1="486.5" x2="1129.82" y2="486.5" gradientUnits="userSpaceOnUse">
<stop stop-color="#C4C4C4" stop-opacity="0.4"/>
<stop offset="1" stop-color="#C4C4C4" stop-opacity="0"/>
</linearGradient>
<linearGradient id="paint21_linear_2477_24553" x1="1122.38" y1="492.607" x2="1129.82" y2="492.607" gradientUnits="userSpaceOnUse">
<stop stop-color="#C4C4C4" stop-opacity="0.4"/>
<stop offset="1" stop-color="#C4C4C4" stop-opacity="0"/>
</linearGradient>
<linearGradient id="paint22_linear_2477_24553" x1="963.673" y1="482.209" x2="968.913" y2="482.209" gradientUnits="userSpaceOnUse">
<stop stop-color="#C4C4C4" stop-opacity="0.4"/>
<stop offset="1" stop-color="#C4C4C4" stop-opacity="0"/>
</linearGradient>
<linearGradient id="paint23_linear_2477_24553" x1="963.673" y1="486.728" x2="968.913" y2="486.728" gradientUnits="userSpaceOnUse">
<stop stop-color="#C4C4C4" stop-opacity="0.4"/>
<stop offset="1" stop-color="#C4C4C4" stop-opacity="0"/>
</linearGradient>
<linearGradient id="paint24_linear_2477_24553" x1="2050.81" y1="816.773" x2="2078.85" y2="816.773" gradientUnits="userSpaceOnUse">
<stop stop-color="#C4C4C4" stop-opacity="0.4"/>
<stop offset="1" stop-color="#C4C4C4" stop-opacity="0"/>
</linearGradient>
<linearGradient id="paint25_linear_2477_24553" x1="2050.81" y1="832.633" x2="2078.85" y2="832.633" gradientUnits="userSpaceOnUse">
<stop stop-color="#C4C4C4" stop-opacity="0.4"/>
<stop offset="1" stop-color="#C4C4C4" stop-opacity="0"/>
</linearGradient>
<linearGradient id="paint26_linear_2477_24553" x1="855.226" y1="481.291" x2="859.183" y2="481.291" gradientUnits="userSpaceOnUse">
<stop stop-color="#C4C4C4" stop-opacity="0.4"/>
<stop offset="1" stop-color="#C4C4C4" stop-opacity="0"/>
</linearGradient>
<linearGradient id="paint27_linear_2477_24553" x1="855.226" y1="495.403" x2="859.183" y2="495.403" gradientUnits="userSpaceOnUse">
<stop stop-color="#C4C4C4" stop-opacity="0.4"/>
<stop offset="1" stop-color="#C4C4C4" stop-opacity="0"/>
</linearGradient>
<linearGradient id="paint28_linear_2477_24553" x1="855.226" y1="502.489" x2="859.183" y2="502.489" gradientUnits="userSpaceOnUse">
<stop stop-color="#C4C4C4" stop-opacity="0.4"/>
<stop offset="1" stop-color="#C4C4C4" stop-opacity="0"/>
</linearGradient>
<linearGradient id="paint29_linear_2477_24553" x1="12198.5" y1="4774.94" x2="12353.4" y2="4774.94" gradientUnits="userSpaceOnUse">
<stop stop-color="#C4C4C4" stop-opacity="0.4"/>
<stop offset="1" stop-color="#C4C4C4" stop-opacity="0"/>
</linearGradient>
<linearGradient id="paint30_linear_2477_24553" x1="8981.03" y1="4593.61" x2="9064.22" y2="4593.61" gradientUnits="userSpaceOnUse">
<stop stop-color="#C4C4C4" stop-opacity="0.4"/>
<stop offset="1" stop-color="#C4C4C4" stop-opacity="0"/>
</linearGradient>
<linearGradient id="paint31_linear_2477_24553" x1="160.899" y1="114.91" x2="160.899" y2="137.06" gradientUnits="userSpaceOnUse">
<stop stop-color="#2C80FF"/>
<stop offset="1" stop-color="#40D4F4" stop-opacity="0.7"/>
</linearGradient>
<linearGradient id="paint32_linear_2477_24553" x1="354.926" y1="126.433" x2="354.926" y2="134.732" gradientUnits="userSpaceOnUse">
<stop stop-color="#2C80FF"/>
<stop offset="1" stop-color="#40D4F4" stop-opacity="0.7"/>
</linearGradient>
<linearGradient id="paint33_linear_2477_24553" x1="372.504" y1="116.804" x2="372.504" y2="125.101" gradientUnits="userSpaceOnUse">
<stop stop-color="#2C80FF"/>
<stop offset="1" stop-color="#40D4F4" stop-opacity="0.7"/>
</linearGradient>
<linearGradient id="paint34_linear_2477_24553" x1="82580.8" y1="37043.9" x2="88244.9" y2="37043.9" gradientUnits="userSpaceOnUse">
<stop stop-color="#C4C4C4" stop-opacity="0.4"/>
<stop offset="1" stop-color="#C4C4C4" stop-opacity="0"/>
</linearGradient>
<linearGradient id="paint35_linear_2477_24553" x1="83523.4" y1="37728.4" x2="89187.6" y2="37728.4" gradientUnits="userSpaceOnUse">
<stop stop-color="#C4C4C4" stop-opacity="0.4"/>
<stop offset="1" stop-color="#C4C4C4" stop-opacity="0"/>
</linearGradient>
<linearGradient id="paint36_linear_2477_24553" x1="84702.1" y1="38407.1" x2="90366.3" y2="38407.1" gradientUnits="userSpaceOnUse">
<stop stop-color="#C4C4C4" stop-opacity="0.4"/>
<stop offset="1" stop-color="#C4C4C4" stop-opacity="0"/>
</linearGradient>
<linearGradient id="paint37_linear_2477_24553" x1="85880.5" y1="39095.1" x2="91544.6" y2="39095.1" gradientUnits="userSpaceOnUse">
<stop stop-color="#C4C4C4" stop-opacity="0.4"/>
<stop offset="1" stop-color="#C4C4C4" stop-opacity="0"/>
</linearGradient>
<linearGradient id="paint38_linear_2477_24553" x1="86941.4" y1="39731.3" x2="92605.5" y2="39731.3" gradientUnits="userSpaceOnUse">
<stop stop-color="#C4C4C4" stop-opacity="0.4"/>
<stop offset="1" stop-color="#C4C4C4" stop-opacity="0"/>
</linearGradient>
<linearGradient id="paint39_linear_2477_24553" x1="309.149" y1="186.323" x2="315.72" y2="201.459" gradientUnits="userSpaceOnUse">
<stop stop-color="#8F8F8F"/>
<stop offset="1" stop-color="#121212" stop-opacity="0.03"/>
</linearGradient>
<linearGradient id="paint40_linear_2477_24553" x1="10202.7" y1="15233.2" x2="10268.6" y2="15233.2" gradientUnits="userSpaceOnUse">
<stop stop-color="#C4C4C4" stop-opacity="0.4"/>
<stop offset="1" stop-color="#C4C4C4" stop-opacity="0"/>
</linearGradient>
<linearGradient id="paint41_linear_2477_24553" x1="-40542" y1="3578.04" x2="-40593.1" y2="3578.04" gradientUnits="userSpaceOnUse">
<stop stop-color="#C4C4C4" stop-opacity="0.4"/>
<stop offset="1" stop-color="#C4C4C4" stop-opacity="0"/>
</linearGradient>
<linearGradient id="paint42_linear_2477_24553" x1="-28642.8" y1="3414.51" x2="-28670.2" y2="3414.51" gradientUnits="userSpaceOnUse">
<stop stop-color="#C4C4C4" stop-opacity="0.4"/>
<stop offset="1" stop-color="#C4C4C4" stop-opacity="0"/>
</linearGradient>
<linearGradient id="paint43_linear_2477_24553" x1="292.59" y1="186.67" x2="292.59" y2="199.395" gradientUnits="userSpaceOnUse">
<stop stop-color="#2C80FF"/>
<stop offset="1" stop-color="#40D4F4" stop-opacity="0.7"/>
</linearGradient>
<linearGradient id="paint44_linear_2477_24553" x1="119362" y1="21143.9" x2="128529" y2="21143.9" gradientUnits="userSpaceOnUse">
<stop stop-color="#C4C4C4" stop-opacity="0.4"/>
<stop offset="1" stop-color="#C4C4C4" stop-opacity="0"/>
</linearGradient>
<linearGradient id="paint45_linear_2477_24553" x1="9641.42" y1="1853.94" x2="9824.9" y2="1853.94" gradientUnits="userSpaceOnUse">
<stop stop-color="#979797"/>
<stop offset="1" stop-color="#121212" stop-opacity="0.03"/>
</linearGradient>
<linearGradient id="paint46_linear_2477_24553" x1="10295" y1="1789.49" x2="10486.1" y2="1789.49" gradientUnits="userSpaceOnUse">
<stop stop-color="#878787"/>
<stop offset="1" stop-color="#121212" stop-opacity="0.03"/>
</linearGradient>
<linearGradient id="paint47_linear_2477_24553" x1="20339.1" y1="3686.34" x2="21104.7" y2="3686.34" gradientUnits="userSpaceOnUse">
<stop stop-color="#8B8B8B"/>
<stop offset="1" stop-color="#121212" stop-opacity="0.03"/>
</linearGradient>
<linearGradient id="paint48_linear_2477_24553" x1="4809.68" y1="1099.83" x2="4852.34" y2="1099.83" gradientUnits="userSpaceOnUse">
<stop stop-color="#7B7B7B"/>
<stop offset="1" stop-color="#121212" stop-opacity="0.03"/>
</linearGradient>
<linearGradient id="paint49_linear_2477_24553" x1="112.987" y1="183.539" x2="132.273" y2="207.535" gradientUnits="userSpaceOnUse">
<stop offset="0.09" stop-color="#409EF4"/>
<stop offset="1" stop-color="#121212" stop-opacity="0.03"/>
</linearGradient>
<linearGradient id="paint50_linear_2477_24553" x1="347.245" y1="253.7" x2="302.529" y2="338.228" gradientUnits="userSpaceOnUse">
<stop stop-color="#C4C4C4"/>
<stop offset="1" stop-color="#C4C4C4" stop-opacity="0"/>
</linearGradient>
<linearGradient id="paint51_linear_2477_24553" x1="345.476" y1="248.175" x2="303.266" y2="327.967" gradientUnits="userSpaceOnUse">
<stop stop-color="#FAFAFA"/>
<stop offset="1" stop-color="white" stop-opacity="0.23"/>
</linearGradient>
<linearGradient id="paint52_linear_2477_24553" x1="346.954" y1="225.101" x2="304.755" y2="304.872" gradientUnits="userSpaceOnUse">
<stop stop-color="#FAFAFA"/>
<stop offset="1" stop-color="white" stop-opacity="0.23"/>
</linearGradient>
<linearGradient id="paint53_linear_2477_24553" x1="346.954" y1="225.101" x2="304.755" y2="304.872" gradientUnits="userSpaceOnUse">
<stop stop-color="#ECECEC"/>
<stop offset="1" stop-color="#ECECEC" stop-opacity="0"/>
</linearGradient>
<linearGradient id="paint54_linear_2477_24553" x1="459.245" y1="213.7" x2="414.529" y2="298.228" gradientUnits="userSpaceOnUse">
<stop stop-color="#C4C4C4"/>
<stop offset="1" stop-color="#C4C4C4" stop-opacity="0"/>
</linearGradient>
<linearGradient id="paint55_linear_2477_24553" x1="457.476" y1="208.175" x2="415.266" y2="287.967" gradientUnits="userSpaceOnUse">
<stop stop-color="#FAFAFA"/>
<stop offset="1" stop-color="white" stop-opacity="0.23"/>
</linearGradient>
<linearGradient id="paint56_linear_2477_24553" x1="458.954" y1="185.101" x2="416.755" y2="264.872" gradientUnits="userSpaceOnUse">
<stop stop-color="#FAFAFA"/>
<stop offset="1" stop-color="white" stop-opacity="0.23"/>
</linearGradient>
<linearGradient id="paint57_linear_2477_24553" x1="458.954" y1="185.101" x2="416.755" y2="264.872" gradientUnits="userSpaceOnUse">
<stop stop-color="#ECECEC"/>
<stop offset="1" stop-color="#ECECEC" stop-opacity="0"/>
</linearGradient>
<linearGradient id="paint58_linear_2477_24553" x1="450.245" y1="304.7" x2="405.529" y2="389.228" gradientUnits="userSpaceOnUse">
<stop stop-color="#C4C4C4"/>
<stop offset="1" stop-color="#C4C4C4" stop-opacity="0"/>
</linearGradient>
<linearGradient id="paint59_linear_2477_24553" x1="448.476" y1="299.175" x2="406.266" y2="378.967" gradientUnits="userSpaceOnUse">
<stop stop-color="#FAFAFA"/>
<stop offset="1" stop-color="white" stop-opacity="0.23"/>
</linearGradient>
<linearGradient id="paint60_linear_2477_24553" x1="449.954" y1="276.101" x2="407.755" y2="355.872" gradientUnits="userSpaceOnUse">
<stop stop-color="#FAFAFA"/>
<stop offset="1" stop-color="white" stop-opacity="0.23"/>
</linearGradient>
<linearGradient id="paint61_linear_2477_24553" x1="449.954" y1="276.101" x2="407.755" y2="355.872" gradientUnits="userSpaceOnUse">
<stop stop-color="#ECECEC"/>
<stop offset="1" stop-color="#ECECEC" stop-opacity="0"/>
</linearGradient>
<linearGradient id="paint62_linear_2477_24553" x1="421.374" y1="292.099" x2="420.125" y2="309.653" gradientUnits="userSpaceOnUse">
<stop offset="0.18" stop-color="#0052CC"/>
<stop offset="1" stop-color="#2684FF"/>
</linearGradient>
<linearGradient id="paint63_linear_2477_24553" x1="326.245" y1="334.7" x2="281.529" y2="419.228" gradientUnits="userSpaceOnUse">
<stop stop-color="#C4C4C4"/>
<stop offset="1" stop-color="#C4C4C4" stop-opacity="0"/>
</linearGradient>
<linearGradient id="paint64_linear_2477_24553" x1="324.476" y1="329.175" x2="282.266" y2="408.967" gradientUnits="userSpaceOnUse">
<stop stop-color="#FAFAFA"/>
<stop offset="1" stop-color="white" stop-opacity="0.23"/>
</linearGradient>
<linearGradient id="paint65_linear_2477_24553" x1="325.954" y1="306.101" x2="283.755" y2="385.872" gradientUnits="userSpaceOnUse">
<stop stop-color="#FAFAFA"/>
<stop offset="1" stop-color="white" stop-opacity="0.23"/>
</linearGradient>
<linearGradient id="paint66_linear_2477_24553" x1="325.954" y1="306.101" x2="283.755" y2="385.872" gradientUnits="userSpaceOnUse">
<stop stop-color="#ECECEC"/>
<stop offset="1" stop-color="#ECECEC" stop-opacity="0"/>
</linearGradient>
<clipPath id="clip0_2477_24553">
<rect width="483" height="381.854" fill="white" transform="translate(0 24)"/>
</clipPath>
</defs>
</svg>
