<svg width="483" height="430" viewBox="0 0 483 430" fill="none" xmlns="http://www.w3.org/2000/svg">
<g style="mix-blend-mode:lighten">
<path d="M238.944 401.689C237.392 401.725 235.857 401.364 234.484 400.64L134.064 342.67C133.486 342.393 132.994 341.965 132.639 341.431C132.285 340.897 132.081 340.276 132.051 339.636C132.132 338.835 132.423 338.07 132.895 337.417C133.366 336.764 134.001 336.247 134.735 335.917L233.813 278.702C235.35 277.837 237.072 277.352 238.835 277.286C240.599 277.22 242.352 277.576 243.95 278.324L344.369 336.294C344.948 336.571 345.44 337 345.794 337.534C346.149 338.068 346.352 338.688 346.383 339.329C346.301 340.13 346.01 340.895 345.539 341.548C345.068 342.201 344.433 342.718 343.698 343.048L244.621 400.263C242.88 401.211 240.927 401.701 238.944 401.689ZM235.253 399.298C236.62 399.899 238.107 400.176 239.598 400.108C241.09 400.04 242.545 399.629 243.852 398.906L342.929 341.705C343.418 341.497 343.847 341.171 344.179 340.756C344.511 340.341 344.735 339.851 344.831 339.329C344.788 338.966 344.652 338.622 344.437 338.327C344.221 338.033 343.933 337.8 343.6 337.651L243.167 279.667C241.8 279.075 240.317 278.802 238.829 278.87C237.341 278.938 235.889 279.344 234.582 280.058L135.504 337.259C135.016 337.467 134.586 337.794 134.255 338.208C133.923 338.623 133.699 339.114 133.603 339.636C133.646 339.998 133.781 340.343 133.997 340.637C134.213 340.931 134.501 341.164 134.833 341.314L235.253 399.298Z" fill="#F4B740"/>
</g>
<path opacity="0.2" d="M238.96 378.162L132.305 316.585L238.96 255.021L345.602 316.585L238.96 378.162Z" fill="url(#paint0_linear_3118_9509)"/>
<path opacity="0.2" d="M238.96 367.966L132.305 306.389L238.96 244.825L345.602 306.389L238.96 367.966Z" fill="url(#paint1_linear_3118_9509)"/>
<g style="mix-blend-mode:lighten">
<path d="M238.944 345.635C237.392 345.672 235.857 345.311 234.484 344.586L134.064 286.617C133.486 286.34 132.994 285.911 132.639 285.377C132.285 284.843 132.081 284.223 132.051 283.582C132.132 282.781 132.423 282.016 132.895 281.363C133.366 280.71 134.001 280.193 134.735 279.863L233.813 222.648C235.35 221.783 237.072 221.298 238.835 221.232C240.599 221.167 242.352 221.523 243.95 222.271L344.369 280.241C344.948 280.518 345.44 280.946 345.794 281.48C346.149 282.014 346.352 282.634 346.383 283.275C346.301 284.076 346.01 284.841 345.539 285.494C345.068 286.147 344.433 286.664 343.698 286.994L244.621 344.209C242.88 345.157 240.927 345.648 238.944 345.635ZM235.253 343.244C236.62 343.845 238.107 344.122 239.598 344.054C241.09 343.986 242.545 343.575 243.852 342.853L342.929 285.652C343.418 285.443 343.847 285.117 344.179 284.703C344.511 284.288 344.735 283.797 344.831 283.275C344.788 282.913 344.652 282.568 344.437 282.274C344.221 281.98 343.933 281.747 343.6 281.597L243.167 223.613C241.8 223.021 240.317 222.748 238.829 222.816C237.341 222.884 235.889 223.29 234.582 224.005L135.504 281.205C135.016 281.414 134.586 281.74 134.255 282.155C133.923 282.569 133.699 283.06 133.603 283.582C133.646 283.945 133.781 284.289 133.997 284.583C134.213 284.877 134.501 285.111 134.833 285.26L235.253 343.244Z" fill="#F4B740"/>
</g>
<path d="M345.602 240.993V253.325L238.96 314.889L132.305 253.325V240.993H345.602Z" fill="url(#paint2_linear_3118_9509)"/>
<g filter="url(#filter0_b_3118_9509)">
<path d="M238.96 302.57L132.305 240.993L238.96 179.429L345.602 240.993L238.96 302.57Z" fill="url(#paint3_linear_3118_9509)"/>
</g>
<path opacity="0.5" d="M238.959 288.364L156.926 241.006L238.959 193.649L320.978 241.006L238.959 288.364Z" fill="#121212"/>
<g filter="url(#filter1_b_3118_9509)">
<path d="M238.959 276.424L156.926 229.066L238.959 181.709L320.978 229.066L238.959 276.424Z" fill="url(#paint4_linear_3118_9509)" fill-opacity="0.3"/>
<path d="M238.959 275.847L157.926 229.066L238.959 182.286L319.978 229.066L238.959 275.847Z" stroke="url(#paint5_linear_3118_9509)"/>
</g>
<path d="M238.958 247.997L206.184 229.065L238.958 210.148L271.732 229.065L238.958 247.997Z" fill="url(#paint6_linear_3118_9509)"/>
<path d="M238.947 254.087L195.973 229.321L238.947 204.573L281.922 229.321L238.947 254.087Z" fill="url(#paint7_linear_3118_9509)" fill-opacity="0.5"/>
<path d="M238.958 211.881L270.222 229.946L271.732 229.065L238.958 210.148L206.184 229.065L207.68 229.946L238.958 211.881Z" fill="url(#paint8_linear_3118_9509)"/>
<g filter="url(#filter2_b_3118_9509)">
<path d="M238.961 276.423V288.364L320.98 241.006V229.066L238.961 276.423Z" fill="#9C7C0A" fill-opacity="0.2"/>
</g>
<g filter="url(#filter3_b_3118_9509)">
<path d="M156.926 229.066V241.006L238.959 288.364V276.423L156.926 229.066Z" fill="#9C7C0A" fill-opacity="0.2"/>
</g>
<path opacity="0.8" d="M238.959 275.122L158.058 228.422L156.926 229.065L238.959 276.423L320.978 229.065L319.86 228.422L238.959 275.122Z" fill="url(#paint9_linear_3118_9509)"/>
<g opacity="0.5" filter="url(#filter4_b_3118_9509)">
<path d="M471.862 219.306V169.74C470.716 152.849 464.032 136.756 452.818 122.047V171.585C464.004 186.309 470.716 202.346 471.862 219.278V219.306ZM447.086 164.636V115.084C442.999 110.497 438.618 106.182 433.971 102.164V151.703C438.618 155.725 442.999 160.045 447.086 164.636ZM425.847 145.061V95.5645C420.481 91.4799 414.904 87.6809 409.138 84.183V133.736C414.904 137.229 420.481 141.023 425.847 145.103V145.061ZM397.883 141.943V63.1679C443.52 87.385 471.988 122.005 471.988 160.33V239.147C471.988 200.836 443.492 166.202 397.883 141.985V141.943Z" fill="url(#paint10_linear_3118_9509)"/>
</g>
<path opacity="0.5" d="M314.433 104.15V89.9159C310.947 89.2447 307.428 88.6248 303.877 88.0562V102.29C307.428 102.859 310.947 103.479 314.433 104.15ZM295.446 86.7978V74.2139C291.838 73.7106 288.194 73.2445 284.512 72.8157V85.3996C288.184 85.8004 291.829 86.2665 295.446 86.7978ZM332.708 93.9147V76.6888C329.371 75.8591 325.992 75.0762 322.571 74.3398V91.5098C325.983 92.2555 329.362 93.0385 332.708 93.8588V93.9147ZM275.801 84.6026V59.2391C272.072 58.9221 268.344 58.6565 264.615 58.4421V83.7917C268.39 84.0014 272.137 84.2811 275.801 84.6026ZM235.001 83.2044V57.8129C231.179 57.8688 227.381 57.9807 223.605 58.1484V83.4981C227.334 83.3489 231.132 83.2371 235.001 83.1625V83.2044ZM214.741 84.0294V52.0942C211.012 52.3459 207.284 52.6442 203.555 52.989V84.8683C207.246 84.5327 210.952 84.2251 214.741 83.9874V84.0294ZM255.611 83.3722V46.8928C252.199 46.781 248.759 46.6971 245.306 46.6691H244.089V83.1345H245.306C248.759 83.1345 252.199 83.2464 255.611 83.3582V83.3722ZM194.984 85.7771V40.1534C191.349 40.5729 187.741 41.039 184.162 41.5517V87.2033C187.741 86.6906 191.349 86.2246 194.984 85.8051V85.7771ZM160.938 36.2524C188.669 30.4297 216.957 27.6727 245.292 28.0309C284.917 28.4224 322.026 34.5187 354.282 44.9353V123.767C322.026 113.35 284.917 107.254 245.292 106.848C216.958 106.497 188.67 109.254 160.938 115.07V36.2524Z" fill="url(#paint11_linear_3118_9509)"/>
<path opacity="0.5" d="M26.8187 143.159V127.289C22.2199 133.845 18.462 140.953 15.633 148.444V195.438C18.4652 187.952 22.2229 180.85 26.8187 174.297V158.428C28.2169 156.456 29.6151 154.527 31.1532 152.597V161.154C34.1137 157.439 37.2785 153.891 40.633 150.528V141.971C55.51 127.01 75.3087 113.88 98.7567 103.31V88.0415C94.5807 89.9058 90.5259 91.8679 86.5922 93.928C84.6161 94.9533 82.6773 95.9927 80.7757 97.046C66.6359 104.715 53.5865 114.242 41.9753 125.374L40.5771 126.772V118.215C37.2191 121.58 34.054 125.133 31.0972 128.855V137.412C29.5685 139.333 28.1237 141.271 26.7628 143.229L26.8187 143.159ZM12.543 142.67C21.5055 104.205 59.1873 71.0672 112.641 50.4575V129.275C59.1873 149.898 21.5055 183.022 12.543 221.557V142.67Z" fill="url(#paint12_linear_3118_9509)"/>
<path opacity="0.75" d="M40.6347 126.702L42.0329 125.304V140.572C50.5037 132.372 59.8054 125.076 69.7874 118.802C73.3389 116.537 77.0208 114.347 80.8333 112.231V97.0461C82.6976 95.9834 84.6364 94.9441 86.6499 93.928V109.183C90.5788 107.155 94.6337 105.184 98.8143 103.31C75.3663 113.881 55.5676 127.01 40.6906 141.971V126.702H40.6347ZM26.8203 143.159C28.1906 141.202 29.6354 139.263 31.1548 137.343V152.597C29.6307 154.527 28.1906 156.456 26.8203 158.428V143.159Z" fill="url(#paint13_linear_3118_9509)"/>
<path opacity="0.88" d="M86.5898 93.9292C90.5235 91.8878 94.5783 89.9256 98.7543 88.0427V103.255C94.5597 105.129 90.5188 107.1 86.5898 109.128V93.9292Z" fill="url(#paint14_linear_3118_9509)"/>
<path opacity="0.88" d="M41.9805 125.373C50.4548 117.177 59.756 109.881 69.735 103.603V118.872C59.7529 125.146 50.4513 132.442 41.9805 140.642V125.373Z" fill="url(#paint15_linear_3118_9509)"/>
<path opacity="0.97" d="M69.7305 103.604C73.2819 101.358 76.9639 99.1719 80.7764 97.0466V112.301C76.9732 114.426 73.2912 116.617 69.7305 118.873V103.604Z" fill="url(#paint16_linear_3118_9509)"/>
<path opacity="0.75" d="M15.625 148.446C18.454 140.954 22.2119 133.847 26.8107 127.291V143.161C22.2119 149.717 18.454 156.824 15.625 164.316V179.57C18.4542 172.083 22.2122 164.98 26.8107 158.429V174.299C22.2149 180.852 18.4572 187.954 15.625 195.44V148.446Z" fill="url(#paint17_linear_3118_9509)"/>
<path opacity="0.88" d="M15.625 164.315C18.454 156.824 22.2119 149.716 26.8107 143.16V158.429C22.2122 164.98 18.4542 172.083 15.625 179.57V164.315Z" fill="url(#paint18_linear_3118_9509)"/>
<path opacity="0.75" d="M31.1484 152.598C34.1089 148.883 37.2738 145.335 40.6283 141.971V150.529C37.2738 153.892 34.1089 157.44 31.1484 161.155V152.598ZM31.1484 128.828C34.1052 125.106 37.2702 121.553 40.6283 118.188V126.745C37.2736 130.113 34.1088 133.666 31.1484 137.385V128.828Z" fill="url(#paint19_linear_3118_9509)"/>
<path opacity="0.88" d="M31.1484 137.343C34.1088 133.623 37.2736 130.071 40.6283 126.703V141.971C37.2738 145.335 34.1089 148.883 31.1484 152.598V137.343Z" fill="url(#paint20_linear_3118_9509)"/>
<path opacity="0.75" d="M452.758 122.046C463.944 136.755 470.655 152.807 471.802 169.739V219.306C470.655 202.429 463.972 186.336 452.758 171.613V122.046Z" fill="url(#paint21_linear_3118_9509)"/>
<path d="M433.961 102.164C438.608 106.182 442.989 110.497 447.076 115.083V164.636C442.989 160.045 438.608 155.725 433.961 151.703V102.164Z" fill="url(#paint22_linear_3118_9509)" fill-opacity="0.4"/>
<path d="M409.129 84.1831C414.894 87.6809 420.472 91.48 425.838 95.5646V145.103C420.471 141.023 414.894 137.229 409.129 133.736V84.1831Z" fill="url(#paint23_linear_3118_9509)" fill-opacity="0.4"/>
<path opacity="0.75" d="M322.574 74.3959C325.986 75.1416 329.365 75.9246 332.711 76.7449V93.9149C329.374 93.0946 325.995 92.3116 322.574 91.5659V74.3959Z" fill="url(#paint24_linear_3118_9509)"/>
<path d="M303.875 88.0555C307.427 88.6335 310.945 89.2533 314.432 89.9152V104.149C310.945 103.478 307.427 102.858 303.875 102.289V88.0555Z" fill="url(#paint25_linear_3118_9509)"/>
<path opacity="0.75" d="M284.512 72.8445C288.184 73.2546 291.829 73.7207 295.446 74.2427V86.8266C291.838 86.3232 288.194 85.8572 284.512 85.4284V72.8445Z" fill="url(#paint26_linear_3118_9509)"/>
<path opacity="0.75" d="M264.555 58.5126C268.33 58.7176 272.058 58.9833 275.74 59.3096V84.6032C272.021 84.2816 268.274 84.002 264.555 83.7922V58.5126Z" fill="url(#paint27_linear_3118_9509)"/>
<path d="M244.074 46.6552H245.291C248.744 46.6552 252.184 46.767 255.595 46.8789V83.3722C252.184 83.2604 248.744 83.1765 245.291 83.1485H244.074V46.6552Z" fill="url(#paint28_linear_3118_9509)"/>
<path opacity="0.75" d="M223.605 58.149C227.334 57.9812 231.133 57.8693 235.001 57.8134V83.163C231.179 83.2376 227.381 83.3495 223.605 83.4986V58.149Z" fill="url(#paint29_linear_3118_9509)"/>
<path opacity="0.75" d="M203.609 52.9888C207.338 52.6439 211.066 52.3456 214.795 52.0939V83.9871C211.062 84.2248 207.357 84.5324 203.609 84.868V52.9888Z" fill="url(#paint30_linear_3118_9509)"/>
<path d="M184.16 41.5804C187.74 41.0491 191.347 40.583 194.982 40.1822V85.7779C191.347 86.216 187.74 86.6821 184.16 87.1761V41.5804Z" fill="url(#paint31_linear_3118_9509)"/>
<path opacity="0.5" d="M83.7703 324.257V310.932C86.4362 312.358 89.1674 313.756 91.9638 315.126V328.451C89.1674 327.09 86.4362 325.692 83.7703 324.257ZM57.5538 307.604V283.065C59.763 284.729 62.042 286.379 64.405 287.987V312.526C62.0467 310.913 59.763 309.273 57.5538 307.604ZM70.0538 316.245V287.302C72.5053 288.859 75.0175 290.378 77.5902 291.86V320.817C75.0175 319.316 72.5053 317.792 70.0538 316.245ZM36.4967 288.602V256.443C38.1885 258.317 39.9783 260.163 41.8239 262.036V294.195C39.9783 292.377 38.1885 290.532 36.4967 288.602ZM46.2842 298.39V263.588C48.251 265.369 50.2877 267.116 52.3944 268.832V303.619C50.2971 301.895 48.2603 300.147 46.2842 298.376V298.39ZM21.2142 267.629V229.877C22.3514 231.919 23.5679 233.937 24.8636 235.932V273.683C23.5679 271.679 22.3514 269.661 21.2142 267.629ZM28.0655 278.353V229.276C29.4916 231.234 30.9971 233.173 32.5817 235.093V284.17C31.0064 282.25 29.501 280.311 28.0655 278.353ZM15.9849 256.499V201.046C16.8145 203.153 17.7466 205.246 18.7813 207.324V262.749C17.7933 260.68 16.8611 258.587 15.9849 256.471V256.499ZM108.798 268.762C56.0577 247.523 19.6342 213.952 12 175.501V254.332C19.6342 292.783 56.0577 326.34 108.798 347.593V268.762Z" fill="url(#paint32_linear_3118_9509)"/>
<g filter="url(#filter5_b_3118_9509)">
<path d="M263.409 356.331V338.546C272.488 338.042 281.399 337.25 290.143 336.169V353.954C281.408 355.026 272.497 355.818 263.409 356.331ZM220.763 356.401V324.004C226.207 324.284 231.697 324.447 237.234 324.493C241.019 324.493 244.785 324.493 248.532 324.493V356.904C244.803 356.979 241.037 356.979 237.234 356.904C231.697 356.848 226.207 356.68 220.763 356.401ZM179.67 352.206V302.611C188.255 304.01 197.064 305.058 206.04 305.841V355.394C197.064 354.597 188.255 353.52 179.67 352.15V352.206ZM304.195 351.996V299.619C312.724 298.23 321.048 296.576 329.167 294.656V346.977C321.057 348.906 312.733 350.561 304.195 351.94V351.996ZM350.196 277.136C316.639 287.483 278.062 293.173 237.234 292.768C210.112 292.572 183.087 289.498 156.613 283.596V362.427C183.089 368.315 210.113 371.39 237.234 371.599C278.062 372.005 316.597 366.3 350.196 355.967V277.08V277.136Z" fill="url(#paint33_linear_3118_9509)"/>
</g>
<path opacity="0.5" d="M406.828 299.634V284.365C443.615 262.651 467.552 233.694 471.467 201.465V216.734C467.552 248.893 443.615 277.906 406.828 299.634ZM471.999 241.51V162.679C470.824 201.242 441.028 235.652 394.426 259.379V338.155C441.028 314.385 470.824 280.003 471.999 241.454V241.51Z" fill="url(#paint34_linear_3118_9509)"/>
<path opacity="0.75" d="M471.468 201.465C467.553 233.624 443.615 262.651 406.828 284.365V299.634C443.615 277.905 467.553 248.948 471.468 216.734V201.465Z" fill="url(#paint35_linear_3118_9509)"/>
<g filter="url(#filter6_b_3118_9509)">
<path d="M206.042 305.842C197.066 305.059 188.257 303.969 179.672 302.612V352.137C188.257 353.535 197.066 354.584 206.042 355.381V305.842Z" fill="url(#paint36_linear_3118_9509)"/>
</g>
<path d="M290.148 336.169C281.414 337.25 272.502 338.043 263.414 338.546V356.331C272.493 355.828 281.404 355.036 290.148 353.954V336.169Z" fill="url(#paint37_linear_3118_9509)" fill-opacity="0.6"/>
<g filter="url(#filter7_b_3118_9509)">
<path d="M329.171 294.657C321.062 296.577 312.738 298.231 304.199 299.62V351.941C312.728 350.552 321.052 348.898 329.171 346.978V294.657Z" fill="url(#paint38_linear_3118_9509)"/>
</g>
<g filter="url(#filter8_b_3118_9509)">
<path d="M248.534 324.452C244.806 324.517 241.04 324.517 237.237 324.452C231.7 324.396 226.209 324.233 220.766 323.963V356.359C226.209 356.639 231.7 356.807 237.237 356.863C241.021 356.863 244.787 356.863 248.534 356.863V324.452Z" fill="url(#paint39_linear_3118_9509)"/>
</g>
<path opacity="0.75" fill-rule="evenodd" clip-rule="evenodd" d="M18.7652 207.325C17.7771 205.256 16.845 203.163 15.9688 201.047V256.472C16.7984 258.579 17.7305 260.671 18.7652 262.75V207.325ZM24.9082 235.931C23.6126 233.937 22.3961 231.919 21.2589 229.877V267.629C22.3961 269.67 23.6126 271.688 24.9082 273.683V235.931ZM28.1209 229.248C29.5564 231.205 31.0618 233.144 32.6371 235.064V284.142C31.0525 282.221 29.5471 280.282 28.1209 278.325V229.248Z" fill="url(#paint40_linear_3118_9509)"/>
<path fill-rule="evenodd" clip-rule="evenodd" d="M57.5547 283.065C59.7639 284.729 62.043 286.379 64.406 287.987V312.525C62.0476 310.922 59.7639 309.281 57.5547 307.603V283.065ZM83.8233 310.917C86.4892 312.362 89.2204 313.76 92.0168 315.112V328.437C89.2204 327.066 86.4892 325.668 83.8233 324.242V310.917Z" fill="url(#paint41_linear_3118_9509)"/>
<g filter="url(#filter9_b_3118_9509)">
<path d="M41.8389 262.022C39.9933 260.204 38.2036 258.359 36.5117 256.429V288.588C38.2036 290.462 39.9933 292.307 41.8389 294.181V262.022Z" fill="url(#paint42_linear_3118_9509)"/>
</g>
<g filter="url(#filter10_b_3118_9509)">
<path d="M52.4539 268.831C50.3566 267.116 48.3199 265.368 46.3438 263.587V298.375C48.3106 300.146 50.3473 301.894 52.4539 303.618V268.831Z" fill="url(#paint43_linear_3118_9509)"/>
</g>
<g filter="url(#filter11_b_3118_9509)">
<path d="M77.5871 291.86C75.0144 290.378 72.5023 288.859 70.0508 287.302V316.245C72.5023 317.801 75.0144 319.326 77.5871 320.817V291.86Z" fill="url(#paint44_linear_3118_9509)"/>
</g>
<path d="M262.605 178.563L273.978 141.168L300.279 181.545" stroke="#F4B740" stroke-miterlimit="10"/>
<path d="M252.349 122.164L239.125 158.671L220.992 186.305" stroke="#F4B740" stroke-miterlimit="10"/>
<path d="M220.047 118.534L253.108 120.701L273.741 145.149L301.098 121.108" stroke="#F4B740" stroke-miterlimit="10"/>
<path d="M263.403 178.155L221.452 186.101L208.523 149.984L220.581 117.867L238.881 86.2877" stroke="#F4B740" stroke-miterlimit="10"/>
<path d="M209.339 152.003L178.853 121.646L178.297 182.638" stroke="url(#paint45_linear_3118_9509)" stroke-miterlimit="10"/>
<path d="M238.681 89.2706L239.107 159.135L178.504 183.176" stroke="#F4B740" stroke-miterlimit="10"/>
<path d="M241.324 158.523L300.538 180.527L239.249 218.33L178.035 182.101" stroke="#F4B740" stroke-miterlimit="10"/>
<path d="M239.693 85.6035L177.293 123.017L221.708 118.683L239.118 158.672L274.125 143.225" stroke="url(#paint46_linear_3118_9509)" stroke-miterlimit="10"/>
<path opacity="0.7" d="M253.105 120.701H300.002L298.909 179.934L244.715 160.282" stroke="#F4B740" stroke-miterlimit="10"/>
<path d="M254.201 122.738L239.977 84.9171L300.135 122.053" stroke="#F4B740" stroke-miterlimit="10"/>
<g filter="url(#filter12_b_3118_9509)">
<path fill-rule="evenodd" clip-rule="evenodd" d="M248.384 85.9914C248.388 87.8568 247.838 89.6813 246.804 91.2341C245.77 92.7869 244.299 93.9981 242.577 94.7145C240.855 95.4309 238.958 95.6203 237.128 95.2586C235.298 94.8969 233.617 94.0005 232.297 92.6828C230.976 91.365 230.077 89.6853 229.711 87.856C229.346 86.0267 229.532 84.1302 230.245 82.4065C230.958 80.6827 232.166 79.2092 233.717 78.1725C235.268 77.1358 237.091 76.5824 238.956 76.5824C240.193 76.5799 241.419 76.8215 242.563 77.2933C243.706 77.765 244.746 78.4577 245.621 79.3317C246.497 80.2056 247.192 81.2437 247.666 82.3864C248.14 83.5292 248.384 84.7542 248.384 85.9914ZM307.541 127.351C308.574 125.798 309.124 123.974 309.12 122.109C309.12 120.871 308.876 119.646 308.402 118.504C307.928 117.361 307.234 116.323 306.358 115.449C305.482 114.575 304.443 113.882 303.299 113.41C302.156 112.939 300.93 112.697 299.693 112.7C297.827 112.7 296.004 113.253 294.453 114.29C292.903 115.326 291.694 116.8 290.981 118.524C290.268 120.247 290.083 122.144 290.448 123.973C290.813 125.802 291.713 127.482 293.033 128.8C294.354 130.118 296.035 131.014 297.865 131.376C299.695 131.737 301.591 131.548 303.314 130.832C305.036 130.115 306.507 128.904 307.541 127.351ZM246.804 163.469C247.838 161.916 248.388 160.092 248.384 158.227C248.384 156.989 248.14 155.764 247.666 154.622C247.192 153.479 246.497 152.441 245.621 151.567C244.746 150.693 243.706 150 242.563 149.528C241.419 149.057 240.193 148.815 238.956 148.818C237.091 148.818 235.268 149.371 233.717 150.408C232.166 151.444 230.958 152.918 230.245 154.642C229.532 156.365 229.346 158.262 229.711 160.091C230.077 161.92 230.976 163.6 232.297 164.918C233.617 166.236 235.298 167.132 237.128 167.494C238.958 167.855 240.855 167.666 242.577 166.95C244.299 166.233 245.77 165.022 246.804 163.469ZM187.146 187.547C188.18 185.994 188.73 184.169 188.726 182.304C188.726 181.067 188.482 179.842 188.008 178.699C187.534 177.556 186.839 176.518 185.964 175.644C185.088 174.77 184.049 174.077 182.905 173.606C181.761 173.134 180.536 172.892 179.299 172.895C177.433 172.895 175.61 173.448 174.059 174.485C172.508 175.522 171.3 176.995 170.587 178.719C169.874 180.443 169.688 182.339 170.054 184.168C170.419 185.998 171.319 187.677 172.639 188.995C173.959 190.313 175.641 191.209 177.471 191.571C179.301 191.933 181.197 191.743 182.919 191.027C184.642 190.311 186.113 189.099 187.146 187.547ZM231.328 185.546C231.332 187.411 230.782 189.235 229.749 190.788C228.715 192.341 227.244 193.552 225.522 194.269C223.799 194.985 221.903 195.174 220.073 194.813C218.243 194.451 216.562 193.555 215.241 192.237C213.921 190.919 213.021 189.239 212.656 187.41C212.291 185.581 212.476 183.684 213.189 181.961C213.902 180.237 215.111 178.763 216.661 177.727C218.212 176.69 220.036 176.136 221.901 176.136C223.138 176.134 224.364 176.376 225.507 176.847C226.651 177.319 227.69 178.012 228.566 178.886C229.442 179.76 230.137 180.798 230.611 181.941C231.085 183.083 231.328 184.308 231.328 185.546ZM309.12 181.379C309.124 183.244 308.574 185.069 307.541 186.621C306.507 188.174 305.036 189.385 303.314 190.102C301.591 190.818 299.695 191.008 297.865 190.646C296.035 190.284 294.354 189.388 293.033 188.07C291.713 186.752 290.813 185.073 290.448 183.243C290.083 181.414 290.268 179.517 290.981 177.794C291.694 176.07 292.903 174.597 294.453 173.56C296.004 172.523 297.827 171.97 299.693 171.97C300.93 171.967 302.156 172.209 303.299 172.681C304.443 173.152 305.482 173.845 306.358 174.719C307.234 175.593 307.928 176.631 308.402 177.774C308.876 178.916 309.12 180.142 309.12 181.379ZM246.804 223.201C247.838 221.648 248.388 219.824 248.384 217.958C248.384 216.721 248.14 215.496 247.666 214.353C247.192 213.21 246.497 212.172 245.621 211.298C244.746 210.424 243.706 209.732 242.563 209.26C241.419 208.788 240.193 208.547 238.956 208.549C237.091 208.549 235.268 209.103 233.717 210.139C232.166 211.176 230.958 212.649 230.245 214.373C229.532 216.097 229.346 217.993 229.711 219.823C230.077 221.652 230.976 223.332 232.297 224.65C233.617 225.967 235.298 226.864 237.128 227.225C238.958 227.587 240.855 227.398 242.577 226.681C244.299 225.965 245.77 224.754 246.804 223.201ZM261.231 126.888C262.265 125.335 262.815 123.511 262.811 121.645C262.811 120.408 262.567 119.183 262.093 118.04C261.619 116.898 260.924 115.86 260.049 114.986C259.173 114.112 258.134 113.419 256.99 112.947C255.846 112.475 254.621 112.234 253.383 112.236C251.518 112.236 249.695 112.79 248.144 113.826C246.593 114.863 245.385 116.337 244.672 118.06C243.959 119.784 243.773 121.681 244.138 123.51C244.504 125.339 245.403 127.019 246.724 128.337C248.044 129.654 249.726 130.551 251.556 130.913C253.386 131.274 255.282 131.085 257.004 130.368C258.726 129.652 260.197 128.441 261.231 126.888ZM283.185 142.945C283.189 144.811 282.639 146.635 281.605 148.188C280.571 149.741 279.1 150.952 277.378 151.669C275.656 152.385 273.759 152.574 271.929 152.213C270.1 151.851 268.418 150.954 267.098 149.637C265.777 148.319 264.877 146.639 264.512 144.81C264.147 142.981 264.333 141.084 265.046 139.36C265.759 137.637 266.967 136.163 268.518 135.127C270.068 134.09 271.892 133.536 273.757 133.536C274.994 133.534 276.22 133.776 277.364 134.247C278.507 134.719 279.547 135.412 280.422 136.286C281.298 137.16 281.993 138.198 282.467 139.34C282.941 140.483 283.185 141.708 283.185 142.945ZM270.181 182.919C271.215 181.366 271.766 179.541 271.762 177.675C271.764 176.438 271.523 175.214 271.051 174.071C270.579 172.928 269.886 171.89 269.011 171.016C268.137 170.142 267.099 169.449 265.956 168.977C264.814 168.505 263.589 168.263 262.353 168.266C260.487 168.262 258.661 168.812 257.108 169.847C255.555 170.881 254.344 172.353 253.628 174.077C252.912 175.8 252.724 177.697 253.087 179.528C253.45 181.358 254.348 183.04 255.668 184.359C256.988 185.679 258.669 186.577 260.5 186.94C262.33 187.304 264.227 187.115 265.951 186.399C267.674 185.684 269.146 184.472 270.181 182.919ZM218.362 150.818C218.365 152.683 217.815 154.508 216.782 156.06C215.748 157.613 214.277 158.824 212.555 159.541C210.832 160.257 208.936 160.446 207.106 160.085C205.276 159.723 203.595 158.827 202.274 157.509C200.954 156.191 200.054 154.511 199.689 152.682C199.324 150.853 199.509 148.956 200.222 147.233C200.935 145.509 202.144 144.035 203.694 142.999C205.245 141.962 207.069 141.409 208.934 141.409C210.171 141.406 211.397 141.648 212.54 142.119C213.684 142.591 214.724 143.284 215.599 144.158C216.475 145.032 217.17 146.07 217.644 147.213C218.118 148.355 218.362 149.58 218.362 150.818ZM228.748 124.11C229.782 122.558 230.331 120.733 230.328 118.868C230.328 117.631 230.084 116.406 229.61 115.263C229.136 114.12 228.441 113.082 227.565 112.208C226.69 111.334 225.65 110.641 224.506 110.17C223.363 109.698 222.137 109.456 220.9 109.459C219.035 109.459 217.211 110.012 215.661 111.049C214.11 112.086 212.901 113.559 212.188 115.283C211.475 117.006 211.29 118.903 211.655 120.732C212.02 122.562 212.92 124.241 214.24 125.559C215.561 126.877 217.242 127.773 219.072 128.135C220.902 128.497 222.798 128.307 224.521 127.591C226.243 126.874 227.714 125.663 228.748 124.11Z" fill="#FFB21D"/>
</g>
<mask id="mask0_3118_9509" style="mask-type:alpha" maskUnits="userSpaceOnUse" x="195" y="110" width="87" height="88">
<circle cx="238.481" cy="153.656" r="43.4418" fill="url(#paint47_linear_3118_9509)"/>
</mask>
<g mask="url(#mask0_3118_9509)">
<g filter="url(#filter13_f_3118_9509)">
<circle cx="264.638" cy="125.629" r="33.1653" fill="#FFB21D" fill-opacity="0.6"/>
</g>
<g filter="url(#filter14_f_3118_9509)">
<circle cx="264.638" cy="125.629" r="33.1653" fill="#FFB21D" fill-opacity="0.6"/>
</g>
<g filter="url(#filter15_f_3118_9509)">
<circle cx="189.9" cy="106.944" r="33.1653" fill="#FFB21D" fill-opacity="0.6"/>
</g>
<g filter="url(#filter16_f_3118_9509)">
<circle cx="200.177" cy="191.025" r="33.1653" fill="#FFB21D" fill-opacity="0.6"/>
</g>
</g>
<path d="M263.404 121.958C263.408 123.915 262.831 125.83 261.746 127.46C260.662 129.089 259.118 130.36 257.31 131.112C255.503 131.864 253.513 132.063 251.593 131.683C249.672 131.303 247.907 130.363 246.522 128.98C245.136 127.597 244.192 125.834 243.809 123.915C243.425 121.995 243.62 120.005 244.368 118.196C245.117 116.387 246.385 114.84 248.012 113.752C249.64 112.664 251.553 112.084 253.511 112.084C254.809 112.081 256.095 112.335 257.295 112.83C258.496 113.325 259.586 114.052 260.505 114.969C261.424 115.886 262.153 116.975 262.651 118.175C263.148 119.374 263.404 120.659 263.404 121.958Z" fill="#FFB21D"/>
<path d="M266.904 121.955C266.909 124.604 266.128 127.194 264.66 129.399C263.191 131.605 261.101 133.326 258.654 134.344C256.208 135.361 253.514 135.63 250.914 135.117C248.314 134.603 245.925 133.329 244.049 131.457C242.174 129.585 240.895 127.199 240.376 124.6C239.858 122.001 240.121 119.307 241.134 116.858C242.147 114.409 243.864 112.316 246.067 110.843C248.269 109.371 250.858 108.584 253.507 108.584C253.508 108.584 253.51 108.584 253.511 108.584L253.511 112.084L266.904 121.955ZM266.904 121.955C266.904 121.956 266.904 121.957 266.904 121.958L263.404 121.958L266.904 121.951C266.904 121.952 266.904 121.954 266.904 121.955Z" stroke="#FFB21D" stroke-opacity="0.2" stroke-width="7"/>
<path d="M187.566 122.343C187.569 124.007 187.079 125.634 186.157 127.019C185.235 128.404 183.923 129.484 182.387 130.123C180.851 130.762 179.16 130.931 177.528 130.608C175.896 130.286 174.396 129.486 173.219 128.311C172.041 127.136 171.239 125.637 170.913 124.006C170.587 122.375 170.753 120.683 171.388 119.146C172.024 117.608 173.102 116.294 174.485 115.37C175.868 114.445 177.494 113.951 179.158 113.951C180.261 113.949 181.354 114.165 182.375 114.586C183.395 115.006 184.321 115.624 185.102 116.403C185.883 117.183 186.503 118.109 186.926 119.128C187.349 120.147 187.566 121.24 187.566 122.343Z" fill="#FFB21D"/>
<path d="M191.066 122.34C191.066 120.778 190.757 119.23 190.159 117.787C189.56 116.343 188.682 115.031 187.575 113.926C186.468 112.822 185.155 111.946 183.709 111.35L182.375 114.586L179.158 110.451C179.157 110.451 179.156 110.451 179.155 110.451C176.8 110.452 174.498 111.151 172.54 112.46C170.581 113.769 169.055 115.631 168.154 117.808C167.254 119.985 167.019 122.381 167.481 124.691C167.942 127.002 169.079 129.124 170.746 130.788C172.414 132.453 174.538 133.585 176.849 134.042C179.161 134.499 181.556 134.259 183.731 133.354C185.907 132.45 187.765 130.92 189.071 128.958C190.376 126.998 191.07 124.695 191.066 122.34ZM191.066 122.34C191.066 122.341 191.066 122.342 191.066 122.343L187.566 122.343L191.066 122.336C191.066 122.338 191.066 122.339 191.066 122.34Z" stroke="#FFB21D" stroke-opacity="0.2" stroke-width="7"/>
<path d="M271.646 228.863L239.415 247.548L205.316 228.863L117.965 120.492H361.332L271.646 228.863Z" fill="url(#paint48_linear_3118_9509)"/>
<defs>
<filter id="filter0_b_3118_9509" x="124.305" y="171.429" width="229.297" height="139.141" filterUnits="userSpaceOnUse" color-interpolation-filters="sRGB">
<feFlood flood-opacity="0" result="BackgroundImageFix"/>
<feGaussianBlur in="BackgroundImage" stdDeviation="4"/>
<feComposite in2="SourceAlpha" operator="in" result="effect1_backgroundBlur_3118_9509"/>
<feBlend mode="normal" in="SourceGraphic" in2="effect1_backgroundBlur_3118_9509" result="shape"/>
</filter>
<filter id="filter1_b_3118_9509" x="142.926" y="167.709" width="192.051" height="122.715" filterUnits="userSpaceOnUse" color-interpolation-filters="sRGB">
<feFlood flood-opacity="0" result="BackgroundImageFix"/>
<feGaussianBlur in="BackgroundImage" stdDeviation="7"/>
<feComposite in2="SourceAlpha" operator="in" result="effect1_backgroundBlur_3118_9509"/>
<feBlend mode="normal" in="SourceGraphic" in2="effect1_backgroundBlur_3118_9509" result="shape"/>
</filter>
<filter id="filter2_b_3118_9509" x="224.961" y="215.066" width="110.02" height="87.2982" filterUnits="userSpaceOnUse" color-interpolation-filters="sRGB">
<feFlood flood-opacity="0" result="BackgroundImageFix"/>
<feGaussianBlur in="BackgroundImage" stdDeviation="7"/>
<feComposite in2="SourceAlpha" operator="in" result="effect1_backgroundBlur_3118_9509"/>
<feBlend mode="normal" in="SourceGraphic" in2="effect1_backgroundBlur_3118_9509" result="shape"/>
</filter>
<filter id="filter3_b_3118_9509" x="142.926" y="215.066" width="110.031" height="87.2982" filterUnits="userSpaceOnUse" color-interpolation-filters="sRGB">
<feFlood flood-opacity="0" result="BackgroundImageFix"/>
<feGaussianBlur in="BackgroundImage" stdDeviation="7"/>
<feComposite in2="SourceAlpha" operator="in" result="effect1_backgroundBlur_3118_9509"/>
<feBlend mode="normal" in="SourceGraphic" in2="effect1_backgroundBlur_3118_9509" result="shape"/>
</filter>
<filter id="filter4_b_3118_9509" x="373.883" y="39.1679" width="122.105" height="223.979" filterUnits="userSpaceOnUse" color-interpolation-filters="sRGB">
<feFlood flood-opacity="0" result="BackgroundImageFix"/>
<feGaussianBlur in="BackgroundImage" stdDeviation="12"/>
<feComposite in2="SourceAlpha" operator="in" result="effect1_backgroundBlur_3118_9509"/>
<feBlend mode="normal" in="SourceGraphic" in2="effect1_backgroundBlur_3118_9509" result="shape"/>
</filter>
<filter id="filter5_b_3118_9509" x="146.613" y="267.08" width="213.582" height="114.539" filterUnits="userSpaceOnUse" color-interpolation-filters="sRGB">
<feFlood flood-opacity="0" result="BackgroundImageFix"/>
<feGaussianBlur in="BackgroundImage" stdDeviation="5"/>
<feComposite in2="SourceAlpha" operator="in" result="effect1_backgroundBlur_3118_9509"/>
<feBlend mode="normal" in="SourceGraphic" in2="effect1_backgroundBlur_3118_9509" result="shape"/>
</filter>
<filter id="filter6_b_3118_9509" x="171.672" y="294.612" width="42.3711" height="68.7684" filterUnits="userSpaceOnUse" color-interpolation-filters="sRGB">
<feFlood flood-opacity="0" result="BackgroundImageFix"/>
<feGaussianBlur in="BackgroundImage" stdDeviation="4"/>
<feComposite in2="SourceAlpha" operator="in" result="effect1_backgroundBlur_3118_9509"/>
<feBlend mode="normal" in="SourceGraphic" in2="effect1_backgroundBlur_3118_9509" result="shape"/>
</filter>
<filter id="filter7_b_3118_9509" x="296.199" y="286.657" width="40.9727" height="73.2847" filterUnits="userSpaceOnUse" color-interpolation-filters="sRGB">
<feFlood flood-opacity="0" result="BackgroundImageFix"/>
<feGaussianBlur in="BackgroundImage" stdDeviation="4"/>
<feComposite in2="SourceAlpha" operator="in" result="effect1_backgroundBlur_3118_9509"/>
<feBlend mode="normal" in="SourceGraphic" in2="effect1_backgroundBlur_3118_9509" result="shape"/>
</filter>
<filter id="filter8_b_3118_9509" x="212.766" y="315.963" width="43.7695" height="48.8999" filterUnits="userSpaceOnUse" color-interpolation-filters="sRGB">
<feFlood flood-opacity="0" result="BackgroundImageFix"/>
<feGaussianBlur in="BackgroundImage" stdDeviation="4"/>
<feComposite in2="SourceAlpha" operator="in" result="effect1_backgroundBlur_3118_9509"/>
<feBlend mode="normal" in="SourceGraphic" in2="effect1_backgroundBlur_3118_9509" result="shape"/>
</filter>
<filter id="filter9_b_3118_9509" x="28.5117" y="248.429" width="21.3281" height="53.7517" filterUnits="userSpaceOnUse" color-interpolation-filters="sRGB">
<feFlood flood-opacity="0" result="BackgroundImageFix"/>
<feGaussianBlur in="BackgroundImage" stdDeviation="4"/>
<feComposite in2="SourceAlpha" operator="in" result="effect1_backgroundBlur_3118_9509"/>
<feBlend mode="normal" in="SourceGraphic" in2="effect1_backgroundBlur_3118_9509" result="shape"/>
</filter>
<filter id="filter10_b_3118_9509" x="38.3438" y="255.587" width="22.1094" height="56.0309" filterUnits="userSpaceOnUse" color-interpolation-filters="sRGB">
<feFlood flood-opacity="0" result="BackgroundImageFix"/>
<feGaussianBlur in="BackgroundImage" stdDeviation="4"/>
<feComposite in2="SourceAlpha" operator="in" result="effect1_backgroundBlur_3118_9509"/>
<feBlend mode="normal" in="SourceGraphic" in2="effect1_backgroundBlur_3118_9509" result="shape"/>
</filter>
<filter id="filter11_b_3118_9509" x="62.0508" y="279.302" width="23.5352" height="49.5151" filterUnits="userSpaceOnUse" color-interpolation-filters="sRGB">
<feFlood flood-opacity="0" result="BackgroundImageFix"/>
<feGaussianBlur in="BackgroundImage" stdDeviation="4"/>
<feComposite in2="SourceAlpha" operator="in" result="effect1_backgroundBlur_3118_9509"/>
<feBlend mode="normal" in="SourceGraphic" in2="effect1_backgroundBlur_3118_9509" result="shape"/>
</filter>
<filter id="filter12_b_3118_9509" x="163.871" y="70.5824" width="151.25" height="162.822" filterUnits="userSpaceOnUse" color-interpolation-filters="sRGB">
<feFlood flood-opacity="0" result="BackgroundImageFix"/>
<feGaussianBlur in="BackgroundImage" stdDeviation="3"/>
<feComposite in2="SourceAlpha" operator="in" result="effect1_backgroundBlur_3118_9509"/>
<feBlend mode="normal" in="SourceGraphic" in2="effect1_backgroundBlur_3118_9509" result="shape"/>
</filter>
<filter id="filter13_f_3118_9509" x="187.473" y="48.4639" width="154.332" height="154.331" filterUnits="userSpaceOnUse" color-interpolation-filters="sRGB">
<feFlood flood-opacity="0" result="BackgroundImageFix"/>
<feBlend mode="normal" in="SourceGraphic" in2="BackgroundImageFix" result="shape"/>
<feGaussianBlur stdDeviation="22" result="effect1_foregroundBlur_3118_9509"/>
</filter>
<filter id="filter14_f_3118_9509" x="187.473" y="48.4639" width="154.332" height="154.331" filterUnits="userSpaceOnUse" color-interpolation-filters="sRGB">
<feFlood flood-opacity="0" result="BackgroundImageFix"/>
<feBlend mode="normal" in="SourceGraphic" in2="BackgroundImageFix" result="shape"/>
<feGaussianBlur stdDeviation="22" result="effect1_foregroundBlur_3118_9509"/>
</filter>
<filter id="filter15_f_3118_9509" x="112.734" y="29.7789" width="154.332" height="154.331" filterUnits="userSpaceOnUse" color-interpolation-filters="sRGB">
<feFlood flood-opacity="0" result="BackgroundImageFix"/>
<feBlend mode="normal" in="SourceGraphic" in2="BackgroundImageFix" result="shape"/>
<feGaussianBlur stdDeviation="22" result="effect1_foregroundBlur_3118_9509"/>
</filter>
<filter id="filter16_f_3118_9509" x="143.012" y="133.86" width="114.332" height="114.331" filterUnits="userSpaceOnUse" color-interpolation-filters="sRGB">
<feFlood flood-opacity="0" result="BackgroundImageFix"/>
<feBlend mode="normal" in="SourceGraphic" in2="BackgroundImageFix" result="shape"/>
<feGaussianBlur stdDeviation="12" result="effect1_foregroundBlur_3118_9509"/>
</filter>
<linearGradient id="paint0_linear_3118_9509" x1="238.953" y1="213.835" x2="238.953" y2="378.162" gradientUnits="userSpaceOnUse">
<stop stop-color="#F4B740"/>
<stop offset="1" stop-color="#F4B740" stop-opacity="0"/>
</linearGradient>
<linearGradient id="paint1_linear_3118_9509" x1="238.953" y1="203.638" x2="238.953" y2="367.966" gradientUnits="userSpaceOnUse">
<stop stop-color="#F4B740"/>
<stop offset="1" stop-color="#F4B740" stop-opacity="0"/>
</linearGradient>
<linearGradient id="paint2_linear_3118_9509" x1="228.379" y1="363.435" x2="233.62" y2="195.195" gradientUnits="userSpaceOnUse">
<stop stop-color="#FFB21D"/>
<stop offset="1" stop-color="#121212" stop-opacity="0"/>
</linearGradient>
<linearGradient id="paint3_linear_3118_9509" x1="305.423" y1="159.555" x2="236.241" y2="332.512" gradientUnits="userSpaceOnUse">
<stop offset="0.0001" stop-color="#FFCB45"/>
<stop offset="1" stop-color="#FFC700" stop-opacity="0"/>
</linearGradient>
<linearGradient id="paint4_linear_3118_9509" x1="238.952" y1="181.709" x2="238.952" y2="276.424" gradientUnits="userSpaceOnUse">
<stop stop-color="#FFB21D"/>
<stop offset="1" stop-color="#FFB21D" stop-opacity="0.3"/>
</linearGradient>
<linearGradient id="paint5_linear_3118_9509" x1="170.019" y1="276.036" x2="326.703" y2="248.43" gradientUnits="userSpaceOnUse">
<stop stop-color="#FFB21D" stop-opacity="0"/>
<stop offset="1" stop-color="#FFB21D"/>
</linearGradient>
<linearGradient id="paint6_linear_3118_9509" x1="238.958" y1="210.148" x2="238.958" y2="247.997" gradientUnits="userSpaceOnUse">
<stop stop-color="#FFB21D"/>
<stop offset="1" stop-color="#8D5F06" stop-opacity="0.94"/>
</linearGradient>
<linearGradient id="paint7_linear_3118_9509" x1="238.947" y1="204.573" x2="238.947" y2="254.087" gradientUnits="userSpaceOnUse">
<stop stop-color="#FFB21D"/>
<stop offset="1" stop-color="#875A03" stop-opacity="0.94"/>
</linearGradient>
<linearGradient id="paint8_linear_3118_9509" x1="236.163" y1="210.148" x2="236.163" y2="228.388" gradientUnits="userSpaceOnUse">
<stop stop-color="#414141"/>
<stop offset="1" stop-color="#121212" stop-opacity="0"/>
</linearGradient>
<linearGradient id="paint9_linear_3118_9509" x1="256.284" y1="232.907" x2="214.784" y2="285.018" gradientUnits="userSpaceOnUse">
<stop stop-color="#FFB21D" stop-opacity="0.35"/>
<stop offset="1" stop-color="#121212" stop-opacity="0"/>
</linearGradient>
<linearGradient id="paint10_linear_3118_9509" x1="431.776" y1="63.1679" x2="431.776" y2="225.299" gradientUnits="userSpaceOnUse">
<stop stop-color="#414141"/>
<stop offset="1" stop-color="#121212" stop-opacity="0"/>
</linearGradient>
<linearGradient id="paint11_linear_3118_9509" x1="249.367" y1="28" x2="249.367" y2="116.231" gradientUnits="userSpaceOnUse">
<stop stop-color="#414141"/>
<stop offset="1" stop-color="#121212" stop-opacity="0"/>
</linearGradient>
<linearGradient id="paint12_linear_3118_9509" x1="58.3242" y1="50.4575" x2="58.3242" y2="208.093" gradientUnits="userSpaceOnUse">
<stop stop-color="#414141"/>
<stop offset="1" stop-color="#121212" stop-opacity="0"/>
</linearGradient>
<linearGradient id="paint13_linear_3118_9509" x1="59.7478" y1="93.928" x2="59.7478" y2="153.352" gradientUnits="userSpaceOnUse">
<stop stop-color="#414141"/>
<stop offset="1" stop-color="#121212" stop-opacity="0"/>
</linearGradient>
<linearGradient id="paint14_linear_3118_9509" x1="92.1534" y1="88.0427" x2="92.1534" y2="107.469" gradientUnits="userSpaceOnUse">
<stop stop-color="#414141"/>
<stop offset="1" stop-color="#121212" stop-opacity="0"/>
</linearGradient>
<linearGradient id="paint15_linear_3118_9509" x1="54.6744" y1="103.603" x2="54.6744" y2="137.727" gradientUnits="userSpaceOnUse">
<stop stop-color="#414141"/>
<stop offset="1" stop-color="#121212" stop-opacity="0"/>
</linearGradient>
<linearGradient id="paint16_linear_3118_9509" x1="74.7825" y1="97.0466" x2="74.7825" y2="117.155" gradientUnits="userSpaceOnUse">
<stop stop-color="#414141"/>
<stop offset="1" stop-color="#121212" stop-opacity="0"/>
</linearGradient>
<linearGradient id="paint17_linear_3118_9509" x1="20.7409" y1="127.291" x2="20.7409" y2="190.077" gradientUnits="userSpaceOnUse">
<stop stop-color="#414141"/>
<stop offset="1" stop-color="#121212" stop-opacity="0"/>
</linearGradient>
<linearGradient id="paint18_linear_3118_9509" x1="20.7409" y1="143.16" x2="20.7409" y2="176.705" gradientUnits="userSpaceOnUse">
<stop stop-color="#414141"/>
<stop offset="1" stop-color="#121212" stop-opacity="0"/>
</linearGradient>
<linearGradient id="paint19_linear_3118_9509" x1="35.4842" y1="118.188" x2="35.4842" y2="157.774" gradientUnits="userSpaceOnUse">
<stop stop-color="#414141"/>
<stop offset="1" stop-color="#121212" stop-opacity="0"/>
</linearGradient>
<linearGradient id="paint20_linear_3118_9509" x1="35.4842" y1="126.703" x2="35.4842" y2="150.56" gradientUnits="userSpaceOnUse">
<stop stop-color="#414141"/>
<stop offset="1" stop-color="#121212" stop-opacity="0"/>
</linearGradient>
<linearGradient id="paint21_linear_3118_9509" x1="461.468" y1="122.046" x2="461.468" y2="211.653" gradientUnits="userSpaceOnUse">
<stop stop-color="#414141"/>
<stop offset="1" stop-color="#121212" stop-opacity="0"/>
</linearGradient>
<linearGradient id="paint22_linear_3118_9509" x1="439.959" y1="102.164" x2="439.959" y2="159.72" gradientUnits="userSpaceOnUse">
<stop stop-color="#FFB904"/>
<stop offset="1" stop-color="#FFC700" stop-opacity="0"/>
</linearGradient>
<linearGradient id="paint23_linear_3118_9509" x1="416.771" y1="84.1831" x2="416.771" y2="140.31" gradientUnits="userSpaceOnUse">
<stop stop-color="#FFB904"/>
<stop offset="1" stop-color="#FFC700" stop-opacity="0"/>
</linearGradient>
<linearGradient id="paint24_linear_3118_9509" x1="327.21" y1="74.3959" x2="327.21" y2="92.379" gradientUnits="userSpaceOnUse">
<stop stop-color="#414141"/>
<stop offset="1" stop-color="#121212" stop-opacity="0"/>
</linearGradient>
<linearGradient id="paint25_linear_3118_9509" x1="308.703" y1="88.0555" x2="308.703" y2="102.883" gradientUnits="userSpaceOnUse">
<stop stop-color="#F4B740"/>
<stop offset="1" stop-color="#121212" stop-opacity="0"/>
</linearGradient>
<linearGradient id="paint26_linear_3118_9509" x1="289.513" y1="72.8445" x2="289.513" y2="85.7264" gradientUnits="userSpaceOnUse">
<stop stop-color="#414141"/>
<stop offset="1" stop-color="#121212" stop-opacity="0"/>
</linearGradient>
<linearGradient id="paint27_linear_3118_9509" x1="269.671" y1="58.5126" x2="269.671" y2="82.5502" gradientUnits="userSpaceOnUse">
<stop stop-color="#414141"/>
<stop offset="1" stop-color="#121212" stop-opacity="0"/>
</linearGradient>
<linearGradient id="paint28_linear_3118_9509" x1="251.675" y1="82.3954" x2="248.995" y2="-12.1956" gradientUnits="userSpaceOnUse">
<stop stop-color="#F4B740" stop-opacity="0"/>
<stop offset="1" stop-color="#CD861B"/>
</linearGradient>
<linearGradient id="paint29_linear_3118_9509" x1="228.817" y1="57.8134" x2="228.817" y2="81.4775" gradientUnits="userSpaceOnUse">
<stop stop-color="#414141"/>
<stop offset="1" stop-color="#121212" stop-opacity="0"/>
</linearGradient>
<linearGradient id="paint30_linear_3118_9509" x1="208.725" y1="52.0939" x2="208.725" y2="82.2891" gradientUnits="userSpaceOnUse">
<stop stop-color="#414141"/>
<stop offset="1" stop-color="#121212" stop-opacity="0"/>
</linearGradient>
<linearGradient id="paint31_linear_3118_9509" x1="191.3" y1="85.9258" x2="186.629" y2="-35.0573" gradientUnits="userSpaceOnUse">
<stop stop-color="#F4B740" stop-opacity="0"/>
<stop offset="1" stop-color="#CD861B"/>
</linearGradient>
<linearGradient id="paint32_linear_3118_9509" x1="56.2721" y1="175.501" x2="56.2721" y2="334.051" gradientUnits="userSpaceOnUse">
<stop stop-color="#414141"/>
<stop offset="1" stop-color="#121212" stop-opacity="0"/>
</linearGradient>
<linearGradient id="paint33_linear_3118_9509" x1="245.151" y1="277.08" x2="245.151" y2="364.18" gradientUnits="userSpaceOnUse">
<stop stop-color="#1E1D1D"/>
<stop offset="1" stop-color="#121212" stop-opacity="0"/>
</linearGradient>
<linearGradient id="paint34_linear_3118_9509" x1="429.905" y1="162.679" x2="429.905" y2="324.347" gradientUnits="userSpaceOnUse">
<stop stop-color="#414141"/>
<stop offset="1" stop-color="#121212" stop-opacity="0"/>
</linearGradient>
<linearGradient id="paint35_linear_3118_9509" x1="411.987" y1="299.232" x2="475.356" y2="294.987" gradientUnits="userSpaceOnUse">
<stop stop-color="#121212"/>
<stop offset="1" stop-color="#FFB21D"/>
</linearGradient>
<linearGradient id="paint36_linear_3118_9509" x1="195.643" y1="307.543" x2="186.012" y2="350.194" gradientUnits="userSpaceOnUse">
<stop stop-color="#CD9B1B" stop-opacity="0.35"/>
<stop offset="1" stop-color="#121212" stop-opacity="0"/>
</linearGradient>
<linearGradient id="paint37_linear_3118_9509" x1="275.641" y1="336.169" x2="275.641" y2="354.745" gradientUnits="userSpaceOnUse">
<stop stop-color="#F4B740"/>
<stop offset="1" stop-color="#121212" stop-opacity="0"/>
</linearGradient>
<linearGradient id="paint38_linear_3118_9509" x1="319.324" y1="300.009" x2="307.518" y2="345.615" gradientUnits="userSpaceOnUse">
<stop stop-color="#CD9B1B" stop-opacity="0.35"/>
<stop offset="1" stop-color="#121212" stop-opacity="0"/>
</linearGradient>
<linearGradient id="paint39_linear_3118_9509" x1="237.584" y1="327.037" x2="233.913" y2="354.494" gradientUnits="userSpaceOnUse">
<stop stop-color="#CD9B1B" stop-opacity="0.35"/>
<stop offset="1" stop-color="#121212" stop-opacity="0"/>
</linearGradient>
<linearGradient id="paint40_linear_3118_9509" x1="31.7437" y1="207.896" x2="0.254345" y2="239.111" gradientUnits="userSpaceOnUse">
<stop offset="0.203459" stop-color="#FFB21D"/>
<stop offset="1" stop-color="#121212" stop-opacity="0"/>
</linearGradient>
<linearGradient id="paint41_linear_3118_9509" x1="73.3164" y1="283.065" x2="73.3164" y2="324.866" gradientUnits="userSpaceOnUse">
<stop stop-color="#F4B740"/>
<stop offset="1" stop-color="#121212" stop-opacity="0"/>
</linearGradient>
<linearGradient id="paint42_linear_3118_9509" x1="39.7381" y1="259.956" x2="24.0958" y2="279.517" gradientUnits="userSpaceOnUse">
<stop stop-color="#CD9B1B" stop-opacity="0.35"/>
<stop offset="1" stop-color="#121212" stop-opacity="0"/>
</linearGradient>
<linearGradient id="paint43_linear_3118_9509" x1="50.0444" y1="267.328" x2="33.7888" y2="289.315" gradientUnits="userSpaceOnUse">
<stop stop-color="#CD9B1B" stop-opacity="0.35"/>
<stop offset="1" stop-color="#121212" stop-opacity="0"/>
</linearGradient>
<linearGradient id="paint44_linear_3118_9509" x1="74.6152" y1="290.433" x2="63.202" y2="313.176" gradientUnits="userSpaceOnUse">
<stop stop-color="#CD9B1B" stop-opacity="0.35"/>
<stop offset="1" stop-color="#121212" stop-opacity="0"/>
</linearGradient>
<linearGradient id="paint45_linear_3118_9509" x1="193.818" y1="121.646" x2="193.818" y2="182.638" gradientUnits="userSpaceOnUse">
<stop stop-color="#FFB21D" stop-opacity="0.15"/>
<stop offset="1" stop-color="#CD9B1B"/>
</linearGradient>
<linearGradient id="paint46_linear_3118_9509" x1="225.709" y1="85.6035" x2="187.095" y2="127.032" gradientUnits="userSpaceOnUse">
<stop stop-color="#FFB21D"/>
<stop offset="1" stop-color="#FFB21D" stop-opacity="0"/>
</linearGradient>
<linearGradient id="paint47_linear_3118_9509" x1="171.683" y1="188.69" x2="283.012" y2="152.324" gradientUnits="userSpaceOnUse">
<stop stop-color="#1BCD42" stop-opacity="0"/>
<stop offset="1" stop-color="#1BCD42"/>
</linearGradient>
<linearGradient id="paint48_linear_3118_9509" x1="254.129" y1="120.492" x2="254.129" y2="247.548" gradientUnits="userSpaceOnUse">
<stop offset="0.235294" stop-color="#FFB21D" stop-opacity="0"/>
<stop offset="1" stop-color="#FFB21D" stop-opacity="0.62"/>
</linearGradient>
</defs>
</svg>
