<?xml version="1.0" standalone="no"?>
<!DOCTYPE svg PUBLIC "-//W3C//DTD SVG 20010904//EN"
 "http://www.w3.org/TR/2001/REC-SVG-20010904/DTD/svg10.dtd">
<svg version="1.0" xmlns="http://www.w3.org/2000/svg"
 width="976.000000pt" height="976.000000pt" viewBox="0 0 976.000000 976.000000"
 preserveAspectRatio="xMidYMid meet">
<metadata>
Created by potrace 1.14, written by Peter Selinger 2001-2017
</metadata>
<g transform="translate(0.000000,976.000000) scale(0.100000,-0.100000)"
fill="#000000" stroke="none">
<path d="M4798 9755 c-2 -2 -19 -7 -38 -10 -19 -3 -47 -8 -62 -11 -15 -3 -29
-5 -30 -4 -2 0 -21 -6 -42 -15 -22 -9 -47 -18 -57 -20 -25 -5 -144 -66 -249
-127 -52 -31 -111 -65 -130 -76 -19 -11 -95 -54 -168 -96 -73 -42 -136 -76
-140 -76 -4 0 -13 -5 -20 -12 -7 -7 -36 -26 -66 -43 -30 -16 -78 -44 -108 -61
-29 -17 -75 -43 -103 -58 -27 -16 -66 -38 -85 -50 -19 -11 -51 -30 -71 -41
-51 -29 -321 -184 -339 -196 -8 -5 -42 -24 -75 -42 -33 -19 -120 -68 -193
-110 -73 -43 -137 -77 -141 -77 -5 0 -11 -4 -13 -8 -1 -5 -28 -22 -58 -39 -30
-16 -100 -56 -155 -88 -55 -32 -116 -67 -135 -78 -19 -11 -109 -62 -200 -115
-91 -53 -201 -116 -245 -141 -44 -25 -89 -51 -100 -58 -11 -7 -32 -17 -47 -24
-16 -6 -28 -15 -28 -19 0 -5 -10 -12 -22 -15 -11 -4 -44 -21 -72 -38 -111 -66
-237 -136 -257 -142 -11 -4 -30 0 -42 7 -31 20 -104 39 -168 43 -30 2 -56 5
-59 6 -6 2 1 2 -85 -6 -38 -3 -88 -10 -110 -16 -54 -13 -166 -59 -186 -76 -8
-7 -19 -13 -23 -13 -37 0 -251 -221 -262 -270 0 -3 -14 -32 -29 -65 -16 -33
-30 -64 -31 -70 -1 -5 -9 -38 -17 -73 -18 -73 -16 -251 2 -322 23 -88 87 -230
104 -230 4 0 7 -6 7 -13 0 -21 176 -197 196 -197 3 0 19 -10 36 -21 16 -12 71
-36 121 -53 87 -30 99 -32 227 -30 74 1 137 3 140 4 3 2 10 4 15 5 69 13 100
23 156 51 226 113 400 357 413 579 1 11 5 25 9 31 3 6 4 14 0 17 -3 4 -7 28
-8 54 -2 27 -3 48 -5 48 -5 0 -6 45 -1 54 5 8 83 55 226 136 104 59 221 126
235 135 8 5 38 21 65 36 28 14 57 32 66 40 8 8 18 14 22 14 4 0 44 23 91 50
47 28 88 50 91 50 4 0 30 16 59 35 29 19 58 35 65 35 6 0 11 5 11 10 0 6 4 10
10 10 5 0 44 20 86 45 41 25 77 45 79 45 2 0 32 17 67 38 78 46 439 254 516
297 129 73 228 130 232 135 5 5 56 33 125 69 17 9 32 19 33 24 2 4 8 5 13 1 5
-3 9 0 9 5 0 6 5 11 10 11 6 0 23 8 38 19 15 10 83 50 152 89 69 38 244 139
390 222 146 84 279 161 297 171 17 10 49 21 70 25 42 9 50 11 61 14 4 1 30 1
57 1 52 -2 140 -39 222 -93 23 -15 45 -28 48 -28 4 0 19 -8 33 -18 15 -11 52
-32 82 -49 48 -26 208 -118 250 -143 8 -5 64 -37 123 -72 60 -35 125 -73 145
-85 21 -12 44 -25 52 -30 8 -4 59 -33 113 -65 54 -32 103 -58 108 -58 5 0 9
-5 9 -11 0 -5 4 -8 9 -4 5 3 12 1 15 -4 3 -5 52 -35 108 -67 57 -31 111 -64
121 -72 9 -8 17 -12 17 -8 0 4 19 -6 43 -22 40 -27 136 -82 184 -106 13 -6 23
-14 23 -18 0 -5 4 -8 9 -8 5 0 55 -27 111 -60 56 -33 103 -60 104 -60 2 0 56
-31 120 -70 65 -38 119 -70 121 -70 2 0 28 -14 57 -31 29 -18 69 -41 88 -52
19 -11 49 -28 65 -38 17 -10 39 -23 50 -29 11 -5 38 -21 60 -35 22 -14 47 -28
55 -32 8 -4 37 -19 63 -35 26 -15 49 -28 51 -28 1 0 13 24 26 53 23 51 108
197 120 207 3 3 19 23 35 45 38 54 194 205 223 216 12 5 22 12 22 17 0 7 -148
97 -290 175 -30 17 -73 42 -95 56 -22 13 -65 38 -95 54 -30 16 -62 36 -71 43
-8 8 -18 14 -22 14 -3 0 -30 14 -59 31 -29 18 -66 40 -83 49 -16 10 -101 58
-188 109 -86 50 -162 91 -167 91 -6 0 -10 5 -10 10 0 6 -4 10 -10 10 -5 0 -39
18 -75 40 -36 22 -68 40 -71 40 -3 0 -18 8 -32 19 -15 10 -45 29 -67 41 -70
39 -439 252 -465 269 -14 8 -27 16 -30 16 -3 0 -23 12 -45 26 -22 14 -60 36
-85 50 -25 13 -51 29 -58 36 -6 6 -22 15 -35 19 -12 3 -33 15 -47 24 -14 10
-42 27 -62 39 -21 11 -55 31 -75 42 -98 55 -179 104 -194 116 -9 7 -19 10 -22
6 -4 -3 -7 -1 -7 5 0 7 -4 12 -10 12 -5 0 -38 17 -72 38 -102 62 -308 153
-308 136 0 -3 -9 0 -19 5 -10 6 -36 13 -57 17 -45 7 -280 14 -286 9z"/>
<path d="M8515 7909 c-22 -5 -50 -10 -63 -13 -45 -10 -97 -31 -121 -48 -13
-10 -29 -18 -35 -18 -6 0 -23 -10 -38 -23 -14 -12 -46 -38 -70 -56 -24 -19
-60 -55 -79 -79 -18 -24 -38 -49 -44 -56 -28 -33 -55 -77 -61 -100 -3 -14 -9
-26 -13 -26 -6 0 -20 -30 -40 -92 -17 -51 -21 -73 -26 -146 -3 -35 -8 -68 -11
-73 -3 -5 -2 -9 3 -9 4 0 8 -17 7 -37 0 -21 4 -56 8 -78 5 -22 11 -51 13 -65
3 -14 9 -34 14 -45 44 -99 57 -126 84 -165 17 -25 36 -50 42 -56 56 -60 86
-91 99 -101 39 -33 141 -93 199 -118 l65 -27 -2 -1696 -2 -1697 -21 -45 c-35
-73 -59 -92 -243 -199 -96 -55 -184 -107 -195 -116 -10 -8 -23 -15 -27 -15 -5
0 -25 -11 -46 -23 -20 -13 -57 -35 -82 -49 -57 -32 -79 -44 -275 -158 -88 -51
-166 -97 -172 -102 -7 -6 -13 -7 -13 -2 0 5 -4 4 -8 -2 -4 -6 -31 -24 -59 -39
-29 -15 -53 -31 -53 -36 0 -5 -6 -9 -14 -9 -13 0 -118 -59 -143 -80 -7 -5 -15
-10 -18 -10 -4 0 -44 -23 -91 -50 -47 -28 -89 -50 -94 -50 -6 0 -10 -4 -10
-10 0 -5 -4 -10 -9 -10 -8 0 -257 -139 -321 -180 -15 -9 -276 -159 -339 -195
-31 -18 -70 -41 -156 -92 -11 -7 -27 -15 -35 -19 -8 -4 -48 -27 -87 -51 -40
-23 -77 -43 -83 -43 -5 0 -10 -4 -10 -10 0 -5 -7 -10 -15 -10 -20 0 -19 -12 5
-38 11 -12 20 -26 20 -32 0 -5 5 -10 10 -10 6 0 10 -6 10 -14 0 -8 4 -16 8
-18 8 -3 70 -129 90 -183 26 -70 53 -196 59 -275 3 -47 7 -86 8 -88 1 -2 78
41 171 94 93 54 184 104 202 113 17 8 32 19 32 23 0 4 4 8 10 8 5 0 43 20 84
44 41 24 84 47 95 51 12 3 21 10 21 15 0 5 16 14 35 21 19 7 35 17 35 21 0 4
4 8 9 8 5 0 96 50 202 111 107 61 212 121 234 134 78 44 150 86 165 95 8 5 35
21 60 34 25 13 91 51 148 85 57 34 105 61 107 61 2 0 49 27 105 60 56 33 103
60 105 60 2 0 32 17 66 38 35 21 89 52 119 69 30 17 82 46 115 65 33 20 81 47
106 60 75 42 94 53 99 58 3 3 19 12 35 20 17 8 32 17 35 20 3 4 30 19 60 34
30 16 57 31 60 35 3 3 25 17 50 30 90 48 166 106 241 180 142 142 231 306 275
507 16 73 17 205 19 1870 l1 1790 50 51 c46 45 130 156 132 176 1 4 8 20 16
35 16 32 43 128 51 187 6 47 7 193 1 203 -2 4 -7 24 -10 44 -9 57 -52 163 -93
231 -41 67 -179 211 -212 222 -12 3 -21 10 -21 14 0 13 -148 77 -220 97 -71
19 -249 26 -315 13z"/>
<path d="M4370 7640 c-8 -5 -18 -6 -22 -4 -4 3 -8 0 -8 -5 0 -6 -6 -11 -13
-11 -24 0 -65 -54 -141 -185 -41 -71 -79 -134 -83 -140 -5 -5 -14 -21 -20 -35
-7 -14 -26 -47 -42 -75 -17 -27 -40 -68 -53 -90 -12 -22 -28 -49 -35 -60 -7
-11 -17 -32 -24 -47 -6 -16 -15 -28 -20 -28 -5 0 -9 -4 -9 -10 0 -5 -12 -28
-26 -52 l-26 -43 -419 2 c-463 1 -450 3 -516 -63 -18 -18 -33 -34 -33 -37 0
-4 -122 -216 -195 -339 -14 -23 -31 -55 -38 -70 -6 -16 -15 -28 -19 -28 -4 0
-8 -4 -8 -9 0 -5 -27 -55 -60 -111 -33 -56 -60 -106 -60 -111 0 -5 -4 -9 -8
-9 -4 0 -13 -12 -20 -27 -6 -16 -25 -53 -42 -83 -26 -47 -29 -62 -25 -112 3
-51 28 -115 58 -153 9 -12 156 -266 199 -345 17 -30 39 -67 49 -82 11 -14 19
-28 19 -31 0 -3 20 -40 45 -81 25 -42 45 -81 45 -86 0 -6 -11 -28 -25 -50 -14
-22 -25 -44 -25 -49 0 -5 -6 -16 -13 -23 -7 -7 -29 -42 -48 -78 -18 -35 -40
-71 -46 -78 -7 -7 -16 -24 -19 -38 -3 -13 -10 -24 -14 -24 -4 0 -10 -8 -13
-17 -4 -10 -17 -36 -30 -58 -14 -22 -60 -101 -103 -175 -76 -131 -78 -137 -78
-200 0 -57 4 -73 32 -118 18 -29 32 -55 32 -57 0 -3 12 -24 27 -48 15 -23 39
-65 54 -93 15 -28 38 -68 51 -90 14 -21 36 -59 50 -84 147 -260 245 -421 273
-447 18 -17 51 -36 72 -42 36 -10 250 -18 258 -10 2 2 56 2 120 -1 64 -3 118
-3 120 0 2 3 56 3 120 0 64 -3 118 -3 120 0 2 3 30 4 63 2 54 -3 60 -6 73 -32
29 -60 243 -425 253 -432 6 -4 7 -8 3 -8 -5 0 0 -12 10 -28 20 -30 20 -30 89
-147 52 -88 61 -97 119 -125 38 -18 67 -20 525 -20 308 0 499 4 523 11 53 14
98 57 146 140 22 39 41 76 41 80 0 5 5 9 10 9 6 0 10 4 10 9 0 4 22 46 48 92
27 46 55 95 63 109 8 14 16 27 19 30 3 3 11 16 18 30 6 14 25 48 42 75 16 28
35 61 42 75 7 14 15 27 18 30 3 3 14 22 25 43 26 49 37 58 72 58 41 -2 61 -2
131 0 35 0 66 -2 69 -4 3 -3 15 -2 27 3 13 4 29 5 36 0 7 -4 23 -5 34 0 11 4
33 4 47 0 15 -4 31 -5 38 -1 6 4 36 4 67 1 30 -3 57 -4 59 -1 1 3 56 4 120 1
64 -3 119 -2 122 3 2 4 9 5 14 2 24 -16 149 45 149 73 0 6 5 12 10 12 6 0 10
4 10 9 0 9 81 153 91 161 3 3 8 10 10 15 2 6 26 48 52 95 27 47 62 110 79 140
17 30 34 57 37 60 6 5 47 79 65 117 6 13 14 23 19 23 4 0 7 5 7 11 0 6 22 47
48 92 63 108 72 133 68 190 -4 47 -28 111 -46 122 -6 4 -8 11 -5 16 4 5 1 9
-4 9 -6 0 -11 4 -11 10 0 5 -18 39 -40 75 -22 36 -40 67 -40 69 0 2 -18 34
-40 70 -22 36 -40 70 -40 76 0 5 -4 10 -8 10 -4 0 -13 12 -20 28 -18 41 -64
116 -76 124 -6 4 -8 8 -4 8 4 0 -10 28 -31 63 -21 35 -41 73 -45 84 -6 19 6
55 24 73 3 3 12 19 20 35 8 17 17 32 20 35 3 3 17 26 30 53 14 26 28 47 32 47
5 0 8 5 8 11 0 6 23 48 50 95 28 47 50 89 50 94 0 6 5 10 10 10 6 0 10 4 10 9
0 6 35 69 77 142 69 119 77 138 78 189 2 59 -14 103 -80 210 -18 30 -42 71
-51 90 -10 19 -21 37 -24 40 -3 3 -11 16 -18 30 -7 14 -20 39 -31 55 -10 17
-28 47 -40 68 -50 88 -62 109 -80 140 -10 17 -51 88 -90 156 -79 136 -97 158
-155 189 -38 21 -52 21 -445 21 -223 0 -413 0 -421 1 -9 0 -24 17 -35 38 -11
20 -31 55 -46 77 -15 22 -26 42 -26 45 0 3 -7 17 -16 33 -38 62 -44 72 -43 77
0 3 -9 19 -20 35 -12 17 -32 48 -44 70 -13 22 -35 60 -49 85 -14 25 -48 85
-75 133 -63 111 -98 153 -147 176 -36 18 -70 19 -537 19 -274 0 -505 -3 -512
-8z m858 -406 c6 -7 12 -15 12 -18 0 -3 65 -117 144 -254 194 -334 178 -299
152 -347 -11 -22 -23 -42 -26 -45 -3 -3 -11 -16 -19 -30 -36 -63 -169 -294
-218 -377 -34 -59 -60 -93 -71 -93 -9 0 -161 -1 -337 -1 l-319 0 -18 23 c-9
13 -23 34 -30 48 -7 14 -29 52 -48 85 -20 33 -47 81 -60 108 -14 26 -28 47
-32 47 -5 0 -8 5 -8 11 0 6 -15 36 -34 67 -18 32 -52 89 -75 128 l-42 72 31
51 c16 29 30 56 30 61 0 4 4 10 8 12 5 2 28 39 52 83 24 44 47 82 52 83 4 2 8
8 8 13 0 6 23 48 50 95 28 47 50 89 50 94 0 6 4 10 9 10 5 0 12 11 15 25 4 14
11 25 16 25 6 0 10 6 10 14 0 8 6 16 12 18 7 3 161 5 343 4 249 0 333 -3 343
-12z m-1335 -848 c24 -39 46 -78 50 -86 4 -8 13 -24 19 -35 18 -27 51 -83 80
-135 14 -25 48 -85 77 -134 28 -49 51 -93 51 -97 0 -5 4 -9 9 -9 4 0 8 -8 7
-17 -1 -17 -19 -49 -167 -303 -37 -63 -79 -137 -94 -165 -61 -109 -74 -125
-103 -126 -91 -2 -245 2 -253 7 -5 3 -9 2 -9 -3 0 -8 -189 -7 -222 1 -10 2
-18 0 -18 -6 0 -5 -4 -7 -8 -4 -5 3 -39 6 -76 7 l-67 2 -40 71 c-22 39 -44 78
-49 86 -13 21 -109 188 -133 230 -10 19 -41 71 -66 115 -43 72 -50 100 -32
115 6 5 12 16 59 99 14 25 36 63 49 83 12 21 23 42 23 47 0 5 3 11 8 13 4 2
17 21 29 43 113 203 150 265 163 268 8 2 162 3 343 3 l327 1 43 -71z m2717 30
c13 -22 30 -49 38 -58 8 -10 12 -18 8 -18 -4 0 7 -20 24 -44 16 -25 30 -49 30
-55 0 -6 4 -11 8 -11 5 0 14 -16 22 -35 8 -19 17 -35 22 -35 4 0 8 -5 8 -10 0
-6 36 -71 79 -146 l79 -135 -44 -75 c-24 -41 -44 -77 -44 -81 0 -4 -6 -14 -14
-22 -7 -9 -27 -41 -44 -71 -28 -50 -171 -298 -190 -328 -5 -7 -17 -13 -28 -13
-10 0 -164 0 -341 1 -315 1 -322 1 -328 21 -4 12 -20 40 -36 64 -16 24 -29 48
-29 54 0 6 -4 11 -8 11 -4 0 -13 12 -19 28 -13 30 -40 77 -96 168 -20 34 -37
67 -37 73 0 6 -4 11 -10 11 -5 0 -10 4 -10 9 0 4 -18 40 -41 79 l-41 71 83
143 c45 79 92 161 105 183 12 22 49 86 83 143 34 57 61 107 61 111 0 4 155 7
344 8 l344 0 22 -41z m-1367 -786 c10 -19 52 -92 93 -162 41 -70 74 -130 74
-132 0 -2 16 -28 35 -57 19 -29 32 -56 29 -61 -3 -4 -1 -8 3 -8 5 0 25 -30 45
-67 l37 -68 -51 -85 c-28 -47 -66 -114 -86 -150 -19 -36 -38 -67 -41 -70 -3
-3 -15 -23 -26 -45 -11 -22 -22 -42 -26 -45 -3 -3 -27 -44 -53 -93 -32 -59
-55 -89 -69 -92 -12 -3 -168 -4 -346 -3 l-324 3 -66 116 c-37 64 -72 123 -79
131 -6 8 -9 18 -5 21 3 4 1 7 -5 7 -7 0 -12 6 -12 14 0 8 -3 16 -7 18 -5 2
-16 19 -25 38 -10 19 -35 64 -57 100 -84 138 -82 134 -62 171 10 19 28 50 40
69 11 19 26 47 32 63 6 15 15 27 20 27 5 0 9 4 9 10 0 5 13 31 29 57 16 27 65
111 110 189 l81 141 342 -1 341 -1 20 -35z m-1366 -793 c15 -23 40 -67 57 -98
29 -52 76 -133 154 -267 18 -31 36 -65 39 -74 3 -10 9 -18 14 -18 5 0 9 -5 9
-11 0 -6 9 -24 21 -40 l20 -29 -20 -42 c-12 -24 -41 -77 -66 -118 -24 -41 -52
-88 -60 -105 -9 -16 -27 -48 -40 -70 -13 -22 -27 -47 -31 -55 -4 -8 -22 -37
-39 -65 -18 -27 -38 -65 -46 -82 -8 -18 -17 -33 -21 -33 -5 0 -8 -6 -8 -13 0
-9 -21 -13 -74 -14 -41 0 -79 -4 -85 -7 -6 -4 -11 -3 -11 1 0 10 -94 8 -110
-2 -5 -3 -10 -3 -10 2 0 10 -173 8 -189 -1 -6 -4 -11 -3 -11 1 0 10 -94 8
-110 -2 -5 -3 -10 -2 -10 3 0 4 -15 7 -33 6 -43 -4 -49 1 -81 61 -29 54 -42
75 -67 115 -14 21 -42 71 -93 165 -6 11 -14 22 -17 25 -4 3 -18 28 -32 55 -14
28 -41 75 -60 105 l-34 55 31 60 c17 33 34 62 37 65 3 3 19 30 35 60 16 30 32
57 35 60 5 5 28 45 92 160 17 30 34 57 39 58 4 2 8 8 8 13 0 5 14 33 30 63
l31 54 340 0 340 0 26 -41z m2731 7 c12 -18 22 -38 22 -44 0 -5 4 -10 8 -10 5
0 14 -16 22 -35 8 -19 17 -35 22 -35 4 0 8 -5 8 -11 0 -6 23 -49 52 -97 28
-48 65 -112 81 -142 17 -30 47 -83 68 -117 l38 -61 -65 -111 c-35 -61 -64
-115 -64 -121 0 -5 -4 -10 -8 -10 -5 0 -19 -22 -32 -50 -13 -27 -27 -50 -31
-50 -4 0 -12 -12 -18 -27 -10 -29 -52 -104 -62 -113 -3 -3 -15 -25 -28 -50
-29 -56 -32 -58 -96 -58 -29 1 -57 -2 -64 -6 -6 -4 -11 -4 -11 1 0 9 -201 9
-225 0 -8 -4 -15 -3 -15 1 0 9 -94 7 -109 -2 -6 -4 -11 -3 -11 1 0 10 -94 8
-110 -2 -5 -3 -10 -2 -10 2 0 5 -15 8 -32 8 -25 0 -36 6 -43 23 -5 12 -13 22
-17 22 -5 0 -8 4 -8 9 0 5 -26 54 -57 108 -32 55 -65 111 -73 126 -97 171
-165 283 -172 285 -5 2 -4 10 2 18 7 7 19 28 29 46 37 72 185 324 199 341 8 9
11 17 7 17 -4 0 -2 8 6 18 8 9 23 33 33 52 11 19 30 51 42 72 l23 36 338 0
339 0 22 -34z m-1370 -789 c9 -16 20 -31 25 -33 4 -2 7 -8 7 -12 0 -5 29 -59
65 -120 61 -104 76 -131 135 -235 12 -22 38 -66 56 -97 l35 -57 -26 -40 c-14
-22 -25 -43 -25 -46 0 -3 -15 -30 -34 -60 -19 -29 -32 -56 -29 -59 4 -3 1 -6
-5 -6 -7 0 -12 -7 -12 -15 0 -7 -8 -19 -17 -24 -10 -6 -14 -11 -10 -11 5 0 0
-15 -11 -32 -33 -54 -59 -99 -108 -186 -25 -45 -52 -89 -60 -96 -11 -12 -75
-15 -354 -15 -212 0 -338 4 -335 10 4 5 1 9 -4 9 -6 0 -11 4 -11 9 0 5 -20 44
-45 85 -25 42 -45 78 -45 80 0 2 -18 34 -41 71 -40 66 -57 95 -107 185 -14 25
-35 61 -48 81 -35 56 -34 67 13 142 13 21 32 53 42 70 10 18 30 52 45 77 15
25 31 57 37 73 6 15 15 27 20 27 5 0 9 4 9 10 0 5 13 31 29 57 15 27 47 81 70
121 l42 72 340 -2 340 -3 17 -30z"/>
<path d="M706 4568 c1 -849 5 -1556 8 -1573 3 -16 15 -64 26 -105 12 -41 22
-81 22 -87 1 -7 6 -13 11 -13 6 0 8 -3 4 -6 -8 -8 75 -165 117 -220 74 -97
222 -234 253 -234 6 0 13 -4 15 -8 3 -7 204 -126 338 -200 25 -14 57 -33 71
-43 15 -10 37 -23 50 -29 13 -6 38 -19 54 -30 17 -10 41 -25 55 -33 14 -7 42
-23 63 -35 20 -12 52 -30 70 -41 108 -61 203 -116 207 -121 3 -3 21 -13 40
-24 19 -10 50 -27 68 -37 17 -11 47 -27 65 -38 107 -61 144 -82 157 -91 8 -6
26 -16 40 -22 14 -7 48 -27 77 -45 29 -18 55 -33 58 -33 3 0 18 -8 33 -19 23
-16 203 -121 325 -190 81 -46 113 -65 142 -82 17 -11 41 -25 55 -32 14 -6 36
-19 50 -28 65 -42 342 -199 351 -199 5 0 9 -4 9 -10 0 -5 4 -10 9 -10 9 0 99
-49 161 -88 14 -9 26 -14 26 -11 1 2 10 -3 20 -12 20 -17 209 -129 218 -129 3
0 30 -16 60 -35 30 -19 60 -35 66 -35 5 0 10 -4 10 -10 0 -5 4 -10 10 -10 17
0 110 -61 110 -72 0 -18 61 -131 99 -183 48 -66 114 -129 181 -175 64 -43 192
-97 247 -105 21 -4 49 -8 63 -10 33 -6 170 -6 195 -1 131 29 204 56 288 110
90 58 237 216 237 255 0 6 5 11 10 11 6 0 10 5 10 11 0 5 11 34 23 62 13 29
29 72 35 97 6 25 14 59 18 75 4 17 8 50 9 75 1 25 6 61 11 80 20 86 1 147 -87
280 -20 30 -44 70 -53 88 -31 60 -174 190 -228 208 -10 4 -18 10 -18 15 0 5
-3 8 -7 7 -5 -1 -21 4 -38 11 -82 36 -124 49 -190 57 -66 9 -175 11 -175 5 0
-4 -21 -7 -48 -8 -111 -5 -288 -89 -387 -185 -52 -52 -62 -58 -79 -48 -10 7
-33 20 -50 30 -17 10 -87 50 -156 90 -128 75 -170 98 -211 122 -13 7 -26 15
-29 18 -3 3 -16 11 -30 18 -14 6 -32 16 -40 21 -84 51 -152 91 -156 91 -3 0
-30 16 -60 35 -30 19 -56 35 -58 35 -3 0 -87 48 -188 107 -192 111 -237 137
-278 160 -14 8 -38 23 -55 33 -16 11 -41 24 -54 30 -13 6 -35 19 -50 29 -14
10 -48 31 -76 46 -116 64 -142 79 -177 102 -21 12 -42 23 -48 23 -5 0 -10 5
-10 10 0 6 -4 10 -9 10 -5 0 -49 23 -98 51 -48 29 -113 65 -143 82 -30 16 -62
36 -71 43 -8 8 -18 14 -22 14 -4 0 -41 21 -84 46 -154 92 -317 184 -325 184
-4 0 -8 4 -8 8 0 5 -16 14 -35 22 -19 8 -35 17 -35 21 0 4 -16 13 -35 20 -19
7 -35 17 -35 21 0 4 -6 8 -14 8 -7 0 -19 7 -26 15 -6 8 -15 13 -18 12 -13 -4
-178 102 -204 132 -38 42 -65 99 -75 157 -5 27 -8 709 -8 1517 1 1011 -2 1467
-10 1467 -5 0 -27 -5 -48 -11 -101 -28 -320 -35 -417 -14 -36 8 -81 18 -100
21 -19 3 -43 10 -52 15 -46 25 -44 107 -42 -1533z"/>
</g>
</svg>
