<svg width="280" height="280" viewBox="0 0 280 280" xmlns="http://www.w3.org/2000/svg">
  <path
    d="M101.791 242.485C116.648 251.44 127.247 247.723 131.304 240.542C139.151 226.655 165.241 198.258 206.587 188.66C261.347 175.948 249.912 142.196 216.248 124.484C182.585 106.773 157.414 82.2652 161.224 55.6178C165.033 28.9703 127.288 19.7841 110.502 71.0448C99.6544 104.171 80.215 113.046 67.8188 115.179C56.1357 117.19 43.3558 119.713 37.1237 129.797C29.5615 142.033 32.2003 154.411 63.8617 162.9C108.729 174.93 68.491 222.413 101.791 242.485Z"
    fill="#24272E"
    fill-opacity="0.4"
  />
  <g filter="url(#filter0_b_1636_11483)">
    <path
      d="M63.1905 184.424C63.8193 184.064 70.9156 181.06 106.219 197.518C106.116 197.658 106.072 197.724 106.072 197.724C106.072 197.724 69.3711 210.084 62.1803 194.858C60.033 190.325 60.6483 187.203 63.1292 184.459L63.1905 184.424Z"
      fill="url(#paint0_linear_1636_11483)"
    />
  </g>
  <g filter="url(#filter1_b_1636_11483)">
    <path
      d="M181.846 190.652C174.177 197.1 162.148 201.78 150.542 195.557C152.376 194.385 154.271 193.178 156.203 191.929C167.858 184.44 178.125 189.451 181.846 190.652Z"
      fill="url(#paint1_linear_1636_11483)"
    />
  </g>
  <g filter="url(#filter2_b_1636_11483)">
    <path
      d="M195.585 111.349C203.421 176.601 184.798 188.443 182.725 190.242C182.125 190.763 181.882 190.725 180.974 190.491L180.959 190.5C177.118 189.482 167.858 184.44 156.203 191.928C154.271 193.177 152.376 194.384 150.542 195.556C138.652 203.097 129.05 208.411 122.133 205.327C116.265 202.333 110.975 199.743 106.218 197.518C70.9155 181.06 63.8192 184.064 63.1904 184.424C63.92 184.027 70.6124 180.317 79.6236 173.793C79.6543 173.776 79.685 173.758 79.6915 173.734C91.7363 165.005 107.867 151.249 119.461 133.554C127.354 121.521 135.076 91.0171 149.975 85.0319C180.594 73.6093 194.313 98.0764 195.585 111.349Z"
      fill="url(#paint2_linear_1636_11483)"
    />
  </g>
  <path
    d="M161.728 110.204C162.679 107.694 162.586 105.333 161.521 104.93C160.457 104.527 158.823 106.234 157.873 108.744C156.922 111.254 157.015 113.615 158.079 114.018C159.144 114.422 160.778 112.714 161.728 110.204Z"
    fill="#FFD789"
  />
  <path
    d="M181.224 113.406C181.898 110.809 181.551 108.471 180.449 108.185C179.346 107.899 177.907 109.774 177.233 112.372C176.56 114.969 176.907 117.307 178.009 117.593C179.111 117.879 180.551 116.004 181.224 113.406Z"
    fill="#FFD789"
  />
  <path
    d="M169.357 122.945C169.197 122.945 169.042 122.89 168.918 122.79C168.794 122.689 168.708 122.549 168.674 122.393C168.549 121.828 167.994 120.156 167.113 119.908C166.233 119.659 164.506 120.624 163.807 121.13C163.657 121.239 163.47 121.284 163.286 121.255C163.103 121.225 162.939 121.124 162.83 120.974C162.721 120.824 162.676 120.636 162.706 120.453C162.735 120.269 162.836 120.105 162.986 119.996C163.262 119.797 165.728 118.062 167.493 118.56C169.335 119.08 169.975 121.788 170.041 122.096C170.064 122.198 170.063 122.304 170.039 122.406C170.015 122.508 169.968 122.603 169.902 122.684C169.837 122.766 169.754 122.831 169.659 122.876C169.565 122.921 169.461 122.945 169.357 122.945H169.357Z"
    fill="#FFD789"
  />
  <defs>
    <filter
      id="filter0_b_1636_11483"
      x="50.8701"
      y="173.983"
      width="65.3484"
      height="38.4746"
      filterUnits="userSpaceOnUse"
      color-interpolation-filters="sRGB"
    >
      <feFlood flood-opacity="0" result="BackgroundImageFix" />
      <feGaussianBlur in="BackgroundImage" stdDeviation="5" />
      <feComposite in2="SourceAlpha" operator="in" result="effect1_backgroundBlur_1636_11483" />
      <feBlend
        mode="normal"
        in="SourceGraphic"
        in2="effect1_backgroundBlur_1636_11483"
        result="shape"
      />
    </filter>
    <filter
      id="filter1_b_1636_11483"
      x="140.542"
      y="177.897"
      width="51.304"
      height="30.5869"
      filterUnits="userSpaceOnUse"
      color-interpolation-filters="sRGB"
    >
      <feFlood flood-opacity="0" result="BackgroundImageFix" />
      <feGaussianBlur in="BackgroundImage" stdDeviation="5" />
      <feComposite in2="SourceAlpha" operator="in" result="effect1_backgroundBlur_1636_11483" />
      <feBlend
        mode="normal"
        in="SourceGraphic"
        in2="effect1_backgroundBlur_1636_11483"
        result="shape"
      />
    </filter>
    <filter
      id="filter2_b_1636_11483"
      x="53.1904"
      y="72.0775"
      width="154.308"
      height="144.141"
      filterUnits="userSpaceOnUse"
      color-interpolation-filters="sRGB"
    >
      <feFlood flood-opacity="0" result="BackgroundImageFix" />
      <feGaussianBlur in="BackgroundImage" stdDeviation="5" />
      <feComposite in2="SourceAlpha" operator="in" result="effect1_backgroundBlur_1636_11483" />
      <feBlend
        mode="normal"
        in="SourceGraphic"
        in2="effect1_backgroundBlur_1636_11483"
        result="shape"
      />
    </filter>
    <linearGradient
      id="paint0_linear_1636_11483"
      x1="83.5443"
      y1="183.983"
      x2="83.5443"
      y2="202.458"
      gradientUnits="userSpaceOnUse"
    >
      <stop stop-color="#946200" />
      <stop offset="1" stop-color="#946200" stop-opacity="0" />
    </linearGradient>
    <linearGradient
      id="paint1_linear_1636_11483"
      x1="166.194"
      y1="187.897"
      x2="166.194"
      y2="198.484"
      gradientUnits="userSpaceOnUse"
    >
      <stop stop-color="#946200" />
      <stop offset="1" stop-color="#946200" stop-opacity="0" />
    </linearGradient>
    <linearGradient
      id="paint2_linear_1636_11483"
      x1="130.345"
      y1="82.0775"
      x2="130.345"
      y2="206.219"
      gradientUnits="userSpaceOnUse"
    >
      <stop stop-color="#F4B740" stop-opacity="0.9" />
      <stop offset="1" stop-color="#F4B740" stop-opacity="0" />
    </linearGradient>
  </defs>
</svg>
