<svg width="280" height="280" viewBox="0 0 280 280" fill="none" xmlns="http://www.w3.org/2000/svg">
    <path d="M52.663 127.029C52.663 127.029 91.4339 125.477 99.8124 61.7456C107.253 5.14623 172.631 30.9082 191.529 53.47C216.01 82.697 202.96 132.974 234.629 139.325C266.298 145.676 245.618 216.292 197.546 209.533C137.746 201.125 152.214 236.069 134.262 250.859C121.379 261.474 68.5513 251.256 66.7907 212.723C65.3091 180.297 51.6314 180.4 41.9365 176.723C27.9543 171.42 19.1439 133.017 52.663 127.029Z"
          fill="#24272E" fill-opacity="0.4"/>
    <g filter="url(#filter0_b_1636_10732)">
        <path d="M184.462 197.807L146.371 160.167L138.828 167.801L176.92 205.44L184.462 197.807Z"
              fill="url(#paint0_linear_1636_10732)"/>
    </g>
    <g filter="url(#filter1_b_1636_10732)">
        <path d="M199.013 207.92L169.378 178.637C169.213 178.474 168.947 178.476 168.784 178.641L157.567 189.992C157.404 190.157 157.406 190.423 157.571 190.586L187.206 219.869C187.371 220.032 187.637 220.031 187.8 219.866L199.017 208.514C199.18 208.349 199.178 208.083 199.013 207.92Z"
              fill="url(#paint1_linear_1636_10732)"/>
    </g>
    <g filter="url(#filter2_b_1636_10732)">
        <path d="M112.611 179.097C138.816 179.097 160.06 157.853 160.06 131.648C160.06 105.442 138.816 84.1982 112.611 84.1982C86.405 84.1982 65.1611 105.442 65.1611 131.648C65.1611 157.853 86.405 179.097 112.611 179.097Z"
              fill="url(#paint2_linear_1636_10732)"/>
    </g>
    <path d="M112.611 171.355C134.54 171.355 152.318 153.578 152.318 131.648C152.318 109.718 134.54 91.9407 112.611 91.9407C90.6808 91.9407 72.9033 109.718 72.9033 131.648C72.9033 153.578 90.6808 171.355 112.611 171.355Z"
          fill="url(#paint3_linear_1636_10732)"/>
    <path d="M192.829 88.7531C181.699 85.1454 169.671 91.247 166.049 102.423C162.441 113.553 168.543 125.581 179.719 129.203C190.895 132.825 202.891 126.664 206.5 115.533C210.108 104.403 203.96 92.3606 192.829 88.7531ZM189.471 99.1145C190.717 99.5183 191.815 100.283 192.625 101.312C193.436 102.34 193.923 103.587 194.024 104.892C194.125 106.198 193.837 107.504 193.194 108.646C192.552 109.787 191.585 110.712 190.417 111.303C189.248 111.894 187.93 112.125 186.63 111.966C185.33 111.807 184.107 111.266 183.115 110.411C182.123 109.556 181.408 108.425 181.059 107.163C180.711 105.9 180.745 104.563 181.158 103.32C182.273 99.8813 186.032 97.9999 189.471 99.1145ZM181.068 125.041C177.37 123.848 174.202 121.407 172.106 118.136C176.028 115.907 180.129 115.286 183.84 116.489C187.55 117.692 190.567 120.569 192.376 124.706C188.76 126.126 184.762 126.244 181.068 125.041Z"
          fill="url(#paint4_linear_1636_10732)"/>
    <path d="M100.191 190.176C98.2578 191.163 96.6606 192.701 95.6014 194.595C94.5423 196.49 94.0687 198.656 94.2405 200.82C94.4124 202.983 95.222 205.048 96.567 206.751C97.912 208.455 99.7319 209.721 101.797 210.39C103.861 211.06 106.078 211.102 108.167 210.511C110.256 209.92 112.122 208.723 113.53 207.072C114.939 205.42 115.826 203.388 116.08 201.233C116.333 199.077 115.942 196.895 114.955 194.961C113.629 192.371 111.33 190.413 108.563 189.516C105.795 188.619 102.784 188.856 100.191 190.176ZM102.747 195.184C103.349 194.876 104.029 194.755 104.7 194.834C105.372 194.914 106.004 195.191 106.518 195.631C107.032 196.07 107.403 196.652 107.585 197.303C107.767 197.954 107.752 198.645 107.541 199.287C107.331 199.93 106.934 200.495 106.401 200.911C105.869 201.328 105.224 201.577 104.55 201.627C103.876 201.676 103.202 201.525 102.614 201.191C102.026 200.857 101.551 200.357 101.248 199.752C100.846 198.947 100.779 198.015 101.059 197.16C101.34 196.305 101.946 195.594 102.747 195.183V195.184ZM109.143 207.714C107.358 208.628 105.311 208.894 103.352 208.465C103.97 206.22 105.24 204.496 107.034 203.581C108.827 202.665 110.978 202.615 113.148 203.464C112.347 205.302 110.93 206.804 109.143 207.713V207.714Z"
          fill="url(#paint5_linear_1636_10732)"/>
    <defs>
        <filter id="filter0_b_1636_10732" x="128.828" y="150.167" width="65.6338" height="65.2725"
                filterUnits="userSpaceOnUse" color-interpolation-filters="sRGB">
            <feFlood flood-opacity="0" result="BackgroundImageFix"/>
            <feGaussianBlur in="BackgroundImage" stdDeviation="5"/>
            <feComposite in2="SourceAlpha" operator="in"
                         result="effect1_backgroundBlur_1636_10732"/>
            <feBlend mode="normal" in="SourceGraphic" in2="effect1_backgroundBlur_1636_10732"
                     result="shape"/>
        </filter>
        <filter id="filter1_b_1636_10732" x="147.446" y="168.516" width="61.6914" height="61.4746"
                filterUnits="userSpaceOnUse" color-interpolation-filters="sRGB">
            <feFlood flood-opacity="0" result="BackgroundImageFix"/>
            <feGaussianBlur in="BackgroundImage" stdDeviation="5"/>
            <feComposite in2="SourceAlpha" operator="in"
                         result="effect1_backgroundBlur_1636_10732"/>
            <feBlend mode="normal" in="SourceGraphic" in2="effect1_backgroundBlur_1636_10732"
                     result="shape"/>
        </filter>
        <filter id="filter2_b_1636_10732" x="55.1611" y="74.1982" width="114.899" height="114.899"
                filterUnits="userSpaceOnUse" color-interpolation-filters="sRGB">
            <feFlood flood-opacity="0" result="BackgroundImageFix"/>
            <feGaussianBlur in="BackgroundImage" stdDeviation="5"/>
            <feComposite in2="SourceAlpha" operator="in"
                         result="effect1_backgroundBlur_1636_10732"/>
            <feBlend mode="normal" in="SourceGraphic" in2="effect1_backgroundBlur_1636_10732"
                     result="shape"/>
        </filter>
        <linearGradient id="paint0_linear_1636_10732" x1="165.417" y1="178.987" x2="157.874"
                        y2="186.62" gradientUnits="userSpaceOnUse">
            <stop stop-color="#F4B740" stop-opacity="0.9"/>
            <stop offset="1" stop-color="#F4B740" stop-opacity="0"/>
        </linearGradient>
        <linearGradient id="paint1_linear_1636_10732" x1="184.195" y1="193.279" x2="172.388"
                        y2="205.228" gradientUnits="userSpaceOnUse">
            <stop stop-color="#946200"/>
            <stop offset="1" stop-color="#946200" stop-opacity="0"/>
        </linearGradient>
        <linearGradient id="paint2_linear_1636_10732" x1="112.611" y1="84.1982" x2="112.611"
                        y2="179.097" gradientUnits="userSpaceOnUse">
            <stop stop-color="#946200"/>
            <stop offset="1" stop-color="#946200" stop-opacity="0"/>
        </linearGradient>
        <linearGradient id="paint3_linear_1636_10732" x1="112.611" y1="91.9407" x2="112.611"
                        y2="171.355" gradientUnits="userSpaceOnUse">
            <stop stop-color="#F4B740" stop-opacity="0.38"/>
            <stop offset="1" stop-color="#F4B740" stop-opacity="0"/>
        </linearGradient>
        <linearGradient id="paint4_linear_1636_10732" x1="186.272" y1="87.7158" x2="186.272"
                        y2="130.242" gradientUnits="userSpaceOnUse">
            <stop stop-color="#FFD789"/>
            <stop offset="1" stop-color="#FFD789" stop-opacity="0"/>
        </linearGradient>
        <linearGradient id="paint5_linear_1636_10732" x1="105.18" y1="188.98" x2="105.18"
                        y2="210.925" gradientUnits="userSpaceOnUse">
            <stop stop-color="#FFD789"/>
            <stop offset="1" stop-color="#FFD789" stop-opacity="0"/>
        </linearGradient>
    </defs>
</svg>
