<svg xmlns="http://www.w3.org/2000/svg" style="display: none">
  <defs>
    <symbol id="hive" width="112" height="112" viewBox="0 0 112 112">
      <mask id="path-1-inside-1_893_83" fill="white">
        <path
          fill-rule="evenodd"
          clip-rule="evenodd"
          d="M33.59 0H78.41L112 33.59V78.41L78.41 112H33.59L0 78.41V33.59L33.59 0ZM62.11 104.85L104.85 62.11C108.22 58.74 108.22 53.27 104.85 49.89L62.11 7.15C58.73 3.78 53.26 3.78 49.89 7.15L7.15 49.89C3.78 53.27 3.78 58.74 7.15 62.11L49.89 104.85C53.26 108.22 58.73 108.22 62.11 104.85ZM44.27 56L56 44.27L67.72 56L56 67.72L44.27 56Z"
        />
      </mask>
      <path
        fill-rule="evenodd"
        clip-rule="evenodd"
        d="M33.59 0H78.41L112 33.59V78.41L78.41 112H33.59L0 78.41V33.59L33.59 0ZM62.11 104.85L104.85 62.11C108.22 58.74 108.22 53.27 104.85 49.89L62.11 7.15C58.73 3.78 53.26 3.78 49.89 7.15L7.15 49.89C3.78 53.27 3.78 58.74 7.15 62.11L49.89 104.85C53.26 108.22 58.73 108.22 62.11 104.85ZM44.27 56L56 44.27L67.72 56L56 67.72L44.27 56Z"
        fill="url(#linear-blue)"
      />
      <path
        d="M78.41 0L78.76 -0.35L78.61 -0.5H78.41V0ZM33.59 0V-0.5H33.39L33.24 -0.35L33.59 0ZM112 33.59H112.5V33.39L112.35 33.24L112 33.59ZM112 78.41L112.35 78.76L112.5 78.61V78.41H112ZM78.41 112V112.5H78.61L78.76 112.35L78.41 112ZM33.59 112L33.24 112.35L33.39 112.5H33.59V112ZM0 78.41H-0.5V78.61L-0.35 78.76L0 78.41ZM0 33.59L-0.35 33.24L-0.5 33.39V33.59H0ZM104.85 62.11L105.2 62.46L104.85 62.11ZM62.11 104.85L61.75 104.5L62.11 104.85ZM104.85 49.89L104.49 50.25L104.85 49.89ZM62.11 7.15L62.46 6.8L62.11 7.15ZM49.89 7.15L49.54 6.8L49.54 6.8L49.89 7.15ZM7.15 49.89L7.51 50.25L7.51 50.25L7.15 49.89ZM7.15 62.11L7.51 61.76L7.51 61.76L7.15 62.11ZM49.89 104.85L49.54 105.2L49.54 105.2L49.89 104.85ZM56 44.27L56.35 43.92L56 43.57L55.64 43.92L56 44.27ZM44.27 56L43.92 55.64L43.57 56L43.92 56.35L44.27 56ZM67.72 56L68.08 56.35L68.43 56L68.08 55.64L67.72 56ZM56 67.72L55.64 68.08L56 68.43L56.35 68.08L56 67.72ZM78.41 -0.5H33.59V0.5H78.41V-0.5ZM112.35 33.24L78.76 -0.35L78.05 0.35L111.65 33.95L112.35 33.24ZM112.5 78.41V33.59H111.5V78.41H112.5ZM78.76 112.35L112.35 78.76L111.65 78.05L78.05 111.65L78.76 112.35ZM33.59 112.5H78.41V111.5H33.59V112.5ZM-0.35 78.76L33.24 112.35L33.95 111.65L0.35 78.05L-0.35 78.76ZM-0.5 33.59V78.41H0.5V33.59H-0.5ZM33.24 -0.35L-0.35 33.24L0.35 33.95L33.95 0.35L33.24 -0.35ZM104.49 61.76L61.75 104.5L62.46 105.2L105.2 62.46L104.49 61.76ZM104.49 50.25C107.67 53.43 107.67 58.58 104.49 61.76L105.2 62.46C108.77 58.89 108.77 53.11 105.2 49.54L104.49 50.25ZM61.75 7.51L104.49 50.25L105.2 49.54L62.46 6.8L61.75 7.51ZM50.24 7.51C53.42 4.33 58.57 4.33 61.75 7.51L62.46 6.8C58.89 3.23 53.11 3.23 49.54 6.8L50.24 7.51ZM7.51 50.25L50.24 7.51L49.54 6.8L6.8 49.54L7.51 50.25ZM7.51 61.76C4.33 58.58 4.33 53.43 7.51 50.25L6.8 49.54C3.23 53.11 3.23 58.89 6.8 62.46L7.51 61.76ZM50.24 104.5L7.51 61.76L6.8 62.46L49.54 105.2L50.24 104.5ZM61.75 104.5C58.57 107.68 53.42 107.68 50.24 104.5L49.54 105.2C53.11 108.77 58.89 108.77 62.46 105.2L61.75 104.5ZM55.64 43.92L43.92 55.64L44.63 56.35L56.35 44.63L55.64 43.92ZM68.08 55.64L56.35 43.92L55.64 44.63L67.37 56.35L68.08 55.64ZM56.35 68.08L68.08 56.35L67.37 55.64L55.64 67.37L56.35 68.08ZM43.92 56.35L55.64 68.08L56.35 67.37L44.63 55.64L43.92 56.35Z"
        fill="url(#linear-white)"
        mask="url(#path-1-inside-1_893_83)"
      />
    </symbol>
    <symbol id="mesh" width="48" height="48" viewBox="0 0 48 48">
      <mask id="path-1-inside-1_893_90" fill="white">
        <path
          fill-rule="evenodd"
          clip-rule="evenodd"
          d="M41.46 7.18L48 13.72H48V34.28L41.46 40.82L40.82 41.46L34.28 48H13.72L7.18 41.46L6.54 40.82L0 34.28V13.72L6.54 7.18L7.18 6.54L13.71 0H34.28L40.82 6.54L41.46 7.18ZM10.92 40.82H37.08C39.15 40.82 40.82 39.15 40.82 37.08V10.92C40.82 8.85 39.15 7.18 37.08 7.18H10.92C8.85 7.18 7.18 8.85 7.18 10.92V37.08C7.18 39.15 8.85 40.82 10.92 40.82ZM13.64 30.65V17.35C13.64 15.28 15.32 13.61 17.38 13.61H30.61C32.68 13.61 34.35 15.28 34.35 17.35V30.65C34.35 32.72 32.68 34.39 30.61 34.39H17.38C15.32 34.39 13.64 32.72 13.64 30.65ZM27.18 27.21V20.78H20.82V27.21H27.18Z"
        />
      </mask>
      <path
        fill-rule="evenodd"
        clip-rule="evenodd"
        d="M41.46 7.18L48 13.72H48V34.28L41.46 40.82L40.82 41.46L34.28 48H13.72L7.18 41.46L6.54 40.82L0 34.28V13.72L6.54 7.18L7.18 6.54L13.71 0H34.28L40.82 6.54L41.46 7.18ZM10.92 40.82H37.08C39.15 40.82 40.82 39.15 40.82 37.08V10.92C40.82 8.85 39.15 7.18 37.08 7.18H10.92C8.85 7.18 7.18 8.85 7.18 10.92V37.08C7.18 39.15 8.85 40.82 10.92 40.82ZM13.64 30.65V17.35C13.64 15.28 15.32 13.61 17.38 13.61H30.61C32.68 13.61 34.35 15.28 34.35 17.35V30.65C34.35 32.72 32.68 34.39 30.61 34.39H17.38C15.32 34.39 13.64 32.72 13.64 30.65ZM27.18 27.21V20.78H20.82V27.21H27.18Z"
        fill="url(#linear-blue)"
      />
      <path
        d="M48 13.72L47.64 14.07L47.79 14.22H48V13.72ZM41.46 7.18L41.1 7.53L41.46 7.18ZM48 13.72H48.5V13.22H48V13.72ZM48 34.28L48.35 34.63L48.5 34.49V34.28H48ZM41.46 40.82L41.81 41.17L41.46 40.82ZM40.82 41.46L41.17 41.81L40.82 41.46ZM34.28 48V48.5H34.49L34.63 48.35L34.28 48ZM13.72 48L13.36 48.35L13.51 48.5H13.72V48ZM7.18 41.46L7.53 41.1L7.18 41.46ZM6.54 40.82L6.19 41.17L6.54 40.82ZM0 34.28H-0.5V34.49L-0.35 34.63L0 34.28ZM0 13.72L-0.35 13.36L-0.5 13.51V13.72H0ZM6.54 7.18L6.18 6.82L6.18 6.82L6.54 7.18ZM7.18 6.54L6.82 6.19L7.18 6.54ZM13.71 0V-0.5H13.51L13.36 -0.35L13.71 0ZM34.28 0L34.63 -0.35L34.49 -0.5H34.28V0ZM40.82 6.54L41.17 6.19L40.82 6.54ZM27.18 20.78H27.68V20.28H27.18V20.78ZM27.18 27.21V27.71H27.68V27.21H27.18ZM20.82 20.78V20.28H20.32V20.78H20.82ZM20.82 27.21H20.32V27.71H20.82V27.21ZM48.35 13.36L41.81 6.82L41.1 7.53L47.64 14.07L48.35 13.36ZM48 13.22H48V14.22H48V13.22ZM48.5 34.28V13.72H47.5V34.28H48.5ZM41.81 41.17L48.35 34.63L47.64 33.93L41.1 40.47L41.81 41.17ZM41.17 41.81L41.81 41.17L41.1 40.47L40.47 41.1L41.17 41.81ZM34.63 48.35L41.17 41.81L40.47 41.1L33.93 47.64L34.63 48.35ZM13.72 48.5H34.28V47.5H13.72V48.5ZM6.82 41.81L13.36 48.35L14.07 47.64L7.53 41.1L6.82 41.81ZM6.19 41.17L6.82 41.81L7.53 41.1L6.89 40.47L6.19 41.17ZM-0.35 34.63L6.19 41.17L6.89 40.47L0.35 33.93L-0.35 34.63ZM-0.5 13.72V34.28H0.5V13.72H-0.5ZM6.18 6.82L-0.35 13.36L0.35 14.07L6.89 7.53L6.18 6.82ZM6.82 6.19L6.18 6.82L6.89 7.53L7.53 6.89L6.82 6.19ZM13.36 -0.35L6.82 6.19L7.53 6.89L14.07 0.35L13.36 -0.35ZM34.28 -0.5H13.71V0.5H34.28V-0.5ZM41.17 6.19L34.63 -0.35L33.93 0.35L40.47 6.89L41.17 6.19ZM41.81 6.82L41.17 6.19L40.47 6.89L41.1 7.53L41.81 6.82ZM37.08 40.32H10.92V41.32H37.08V40.32ZM40.32 37.08C40.32 38.87 38.87 40.32 37.08 40.32V41.32C39.42 41.32 41.32 39.42 41.32 37.08H40.32ZM40.32 10.92V37.08H41.32V10.92H40.32ZM37.08 7.68C38.87 7.68 40.32 9.13 40.32 10.92H41.32C41.32 8.57 39.42 6.68 37.08 6.68V7.68ZM10.92 7.68H37.08V6.68H10.92V7.68ZM7.68 10.92C7.68 9.13 9.13 7.68 10.92 7.68V6.68C8.57 6.68 6.68 8.57 6.68 10.92H7.68ZM7.68 37.08V10.92H6.68V37.08H7.68ZM10.92 40.32C9.13 40.32 7.68 38.87 7.68 37.08H6.68C6.68 39.42 8.57 41.32 10.92 41.32V40.32ZM13.14 17.35V30.65H14.14V17.35H13.14ZM17.38 13.11C15.04 13.11 13.14 15 13.14 17.35H14.14C14.14 15.56 15.59 14.11 17.38 14.11V13.11ZM30.61 13.11H17.38V14.11H30.61V13.11ZM34.85 17.35C34.85 15 32.96 13.11 30.61 13.11V14.11C32.4 14.11 33.85 15.56 33.85 17.35H34.85ZM34.85 30.65V17.35H33.85V30.65H34.85ZM30.61 34.89C32.96 34.89 34.85 32.99 34.85 30.65H33.85C33.85 32.44 32.4 33.89 30.61 33.89V34.89ZM17.38 34.89H30.61V33.89H17.38V34.89ZM13.14 30.65C13.14 32.99 15.04 34.89 17.38 34.89V33.89C15.59 33.89 14.14 32.44 14.14 30.65H13.14ZM26.68 20.78V27.21H27.68V20.78H26.68ZM20.82 21.28H27.18V20.28H20.82V21.28ZM21.32 27.21V20.78H20.32V27.21H21.32ZM27.18 26.71H20.82V27.71H27.18V26.71Z"
        fill="url(#linear-white)"
        mask="url(#path-1-inside-1_893_90)"
      />
    </symbol>
    <symbol id="yoga" width="47.0501594543457" height="48" viewBox="0 0 47.0501594543457 48">
      <mask id="path-1-inside-1_893_99" fill="white">
        <path
          fill-rule="evenodd"
          clip-rule="evenodd"
          d="M31.41 9.38H23.96L28.43 4.91L23.53 0L18.61 4.91L23.09 9.38H15.64C14.68 9.38 13.76 9.76 13.08 10.44L0 23.53L4.91 28.44L20.97 12.38C22.38 10.97 24.67 10.97 26.08 12.38L42.14 28.44L47.05 23.53L33.97 10.44C33.29 9.76 32.37 9.38 31.41 9.38V9.38ZM23.53 38.18L18.62 43.09L23.53 48L28.43 43.09L23.53 38.18ZM15.64 28.44H23.53H23.53H31.41C32.37 28.44 33.29 28.82 33.97 29.5L37.74 33.27L32.83 38.18L26.08 31.43C24.67 30.02 22.38 30.02 20.97 31.43L14.22 38.18L9.31 33.27L13.08 29.5C13.76 28.82 14.68 28.44 15.64 28.44Z"
        />
      </mask>
      <path
        fill-rule="evenodd"
        clip-rule="evenodd"
        d="M31.41 9.38H23.96L28.43 4.91L23.53 0L18.61 4.91L23.09 9.38H15.64C14.68 9.38 13.76 9.76 13.08 10.44L0 23.53L4.91 28.44L20.97 12.38C22.38 10.97 24.67 10.97 26.08 12.38L42.14 28.44L47.05 23.53L33.97 10.44C33.29 9.76 32.37 9.38 31.41 9.38V9.38ZM23.53 38.18L18.62 43.09L23.53 48L28.43 43.09L23.53 38.18ZM15.64 28.44H23.53H23.53H31.41C32.37 28.44 33.29 28.82 33.97 29.5L37.74 33.27L32.83 38.18L26.08 31.43C24.67 30.02 22.38 30.02 20.97 31.43L14.22 38.18L9.31 33.27L13.08 29.5C13.76 28.82 14.68 28.44 15.64 28.44Z"
        fill="url(#linear-blue)"
      />
      <path
        d="M23.96 9.38L23.61 9.03L22.75 9.88H23.96V9.38ZM31.41 9.38V9.88H31.91V9.38H31.41ZM28.43 4.91L28.79 5.26L29.14 4.91L28.79 4.56L28.43 4.91ZM23.53 0L23.88 -0.35L23.53 -0.71L23.17 -0.35L23.53 0ZM18.61 4.91L18.26 4.56L17.91 4.91L18.26 5.26L18.61 4.91ZM23.09 9.38V9.88H24.29L23.44 9.03L23.09 9.38ZM13.08 10.44L12.73 10.09L13.08 10.44ZM0 23.53L-0.35 23.17L-0.71 23.53L-0.35 23.88L0 23.53ZM4.91 28.44L4.56 28.79L4.91 29.14L5.26 28.79L4.91 28.44ZM20.97 12.38L21.32 12.73L20.97 12.38ZM42.14 28.44L41.79 28.79L42.14 29.14L42.49 28.79L42.14 28.44ZM47.05 23.53L47.4 23.88L47.76 23.53L47.4 23.17L47.05 23.53ZM33.97 10.44L33.61 10.79V10.79L33.97 10.44ZM31.41 9.38V8.88H30.91V9.38H31.41ZM18.62 43.09L18.26 42.74L17.91 43.09L18.26 43.44L18.62 43.09ZM23.53 38.18L23.88 37.83L23.53 37.47L23.17 37.83L23.53 38.18ZM23.53 48L23.17 48.35L23.53 48.71L23.88 48.35L23.53 48ZM28.43 43.09L28.79 43.44L29.14 43.09L28.79 42.74L28.43 43.09ZM33.97 29.5L34.32 29.14L33.97 29.5ZM37.74 33.27L38.1 33.62L38.45 33.27L38.1 32.92L37.74 33.27ZM32.83 38.18L32.48 38.53L32.83 38.89L33.19 38.53L32.83 38.18ZM20.97 31.43L20.62 31.08L20.97 31.43ZM14.22 38.18L13.87 38.53L14.22 38.89L14.57 38.53L14.22 38.18ZM9.31 33.27L8.96 32.92L8.6 33.27L8.96 33.62L9.31 33.27ZM13.08 29.5L13.44 29.85L13.08 29.5ZM23.96 9.88H31.41V8.88H23.96V9.88ZM28.08 4.56L23.61 9.03L24.31 9.74L28.79 5.26L28.08 4.56ZM23.17 0.35L28.08 5.26L28.79 4.56L23.88 -0.35L23.17 0.35ZM18.97 5.26L23.88 0.35L23.17 -0.35L18.26 4.56L18.97 5.26ZM23.44 9.03L18.97 4.56L18.26 5.26L22.73 9.74L23.44 9.03ZM15.64 9.88H23.09V8.88H15.64V9.88ZM13.44 10.8C14.02 10.21 14.81 9.88 15.64 9.88V8.88C14.55 8.88 13.5 9.32 12.73 10.09L13.44 10.8ZM0.35 23.88L13.44 10.8L12.73 10.09L-0.35 23.17L0.35 23.88ZM5.26 28.08L0.35 23.17L-0.35 23.88L4.56 28.79L5.26 28.08ZM20.61 12.02L4.56 28.08L5.26 28.79L21.32 12.73L20.61 12.02ZM26.44 12.02C24.83 10.42 22.22 10.42 20.61 12.02L21.32 12.73C22.54 11.51 24.51 11.51 25.73 12.73L26.44 12.02ZM42.49 28.08L26.44 12.02L25.73 12.73L41.79 28.79L42.49 28.08ZM46.7 23.17L41.79 28.08L42.49 28.79L47.4 23.88L46.7 23.17ZM33.61 10.79L46.7 23.88L47.4 23.17L34.32 10.09L33.61 10.79ZM31.41 9.88C32.23 9.88 33.03 10.21 33.61 10.79L34.32 10.09C33.55 9.32 32.5 8.88 31.41 8.88V9.88ZM31.91 9.38V9.38H30.91V9.38H31.91ZM18.97 43.44L23.88 38.53L23.17 37.83L18.26 42.74L18.97 43.44ZM23.88 47.65L18.97 42.74L18.26 43.44L23.17 48.35L23.88 47.65ZM28.08 42.74L23.17 47.65L23.88 48.35L28.79 43.44L28.08 42.74ZM23.17 38.53L28.08 43.44L28.79 42.74L23.88 37.83L23.17 38.53ZM23.53 27.94H15.64V28.94H23.53V27.94ZM23.53 27.94H23.53V28.94H23.53V27.94ZM31.41 27.94H23.53V28.94H31.41V27.94ZM34.32 29.14C33.55 28.37 32.5 27.94 31.41 27.94V28.94C32.24 28.94 33.03 29.26 33.62 29.85L34.32 29.14ZM38.1 32.92L34.32 29.14L33.62 29.85L37.39 33.62L38.1 32.92ZM33.19 38.53L38.1 33.62L37.39 32.92L32.48 37.83L33.19 38.53ZM25.73 31.78L32.48 38.53L33.19 37.83L26.44 31.08L25.73 31.78ZM21.32 31.78C22.54 30.57 24.51 30.57 25.73 31.78L26.44 31.08C24.83 29.47 22.22 29.47 20.62 31.08L21.32 31.78ZM14.57 38.53L21.32 31.78L20.62 31.08L13.87 37.83L14.57 38.53ZM8.96 33.62L13.87 38.53L14.57 37.83L9.66 32.92L8.96 33.62ZM12.73 29.14L8.96 32.92L9.66 33.62L13.44 29.85L12.73 29.14ZM15.64 27.94C14.55 27.94 13.5 28.37 12.73 29.14L13.44 29.85C14.02 29.26 14.82 28.94 15.64 28.94V27.94Z"
        fill="url(#linear-white)"
        mask="url(#path-1-inside-1_893_99)"
      />
    </symbol>
    <symbol id="codegen" width="48.0001106262207" height="48" viewBox="0 0 48.0001106262207 48">
      <mask id="path-1-inside-1_893_107" fill="white">
        <path
          fill-rule="evenodd"
          clip-rule="evenodd"
          d="M18.99 5.01L24 0L29.01 5.01L24 10.02L18.99 5.01ZM38.5 14.51L33.49 9.5L26.61 16.38C25.17 17.82 22.83 17.82 21.39 16.38L14.5 9.5L9.49 14.51L16.38 21.39C17.82 22.83 17.82 25.17 16.38 26.61L9.49 33.5L14.5 38.51L21.39 31.62C22.83 30.18 25.17 30.18 26.61 31.62L33.49 38.51L38.5 33.5L31.62 26.61C30.18 25.17 30.18 22.83 31.62 21.39L38.5 14.51ZM24 37.98L18.99 42.99L24 48L29.01 42.99L24 37.98ZM42.99 18.99L37.98 24L42.99 29.01L48 24L42.99 18.99ZM0 24L5.01 18.99L10.02 24L5.01 29.01L0 24Z"
        />
      </mask>
      <path
        fill-rule="evenodd"
        clip-rule="evenodd"
        d="M18.99 5.01L24 0L29.01 5.01L24 10.02L18.99 5.01ZM38.5 14.51L33.49 9.5L26.61 16.38C25.17 17.82 22.83 17.82 21.39 16.38L14.5 9.5L9.49 14.51L16.38 21.39C17.82 22.83 17.82 25.17 16.38 26.61L9.49 33.5L14.5 38.51L21.39 31.62C22.83 30.18 25.17 30.18 26.61 31.62L33.49 38.51L38.5 33.5L31.62 26.61C30.18 25.17 30.18 22.83 31.62 21.39L38.5 14.51ZM24 37.98L18.99 42.99L24 48L29.01 42.99L24 37.98ZM42.99 18.99L37.98 24L42.99 29.01L48 24L42.99 18.99ZM0 24L5.01 18.99L10.02 24L5.01 29.01L0 24Z"
        fill="url(#linear-blue)"
      />
      <path
        d="M24 0L24.35 -0.35L24 -0.71L23.65 -0.35L24 0ZM18.99 5.01L18.64 4.66L18.28 5.01L18.64 5.36L18.99 5.01ZM29.01 5.01L29.36 5.36L29.71 5.01L29.36 4.66L29.01 5.01ZM24 10.02L23.65 10.37L24 10.72L24.35 10.37L24 10.02ZM33.49 9.5L33.85 9.14L33.49 8.79L33.14 9.14L33.49 9.5ZM38.5 14.51L38.86 14.86L39.21 14.51L38.86 14.15L38.5 14.51ZM26.61 16.38L26.25 16.03L26.61 16.38ZM21.39 16.38L21.74 16.03L21.39 16.38ZM14.5 9.5L14.86 9.14L14.5 8.79L14.15 9.14L14.5 9.5ZM9.49 14.51L9.14 14.15L8.79 14.51L9.14 14.86L9.49 14.51ZM9.49 33.5L9.14 33.14L8.79 33.5L9.14 33.85L9.49 33.5ZM14.5 38.51L14.15 38.86L14.5 39.21L14.86 38.86L14.5 38.51ZM21.39 31.62L21.04 31.27L21.39 31.62ZM26.61 31.62L26.96 31.27L26.61 31.62ZM33.49 38.51L33.14 38.86L33.49 39.21L33.85 38.86L33.49 38.51ZM38.5 33.5L38.86 33.85L39.21 33.5L38.86 33.14L38.5 33.5ZM18.99 42.99L18.64 42.64L18.28 42.99L18.64 43.34L18.99 42.99ZM24 37.98L24.35 37.63L24 37.28L23.64 37.63L24 37.98ZM24 48L23.64 48.35L24 48.71L24.35 48.35L24 48ZM29.01 42.99L29.36 43.34L29.71 42.99L29.36 42.64L29.01 42.99ZM37.98 24L37.63 23.65L37.28 24L37.63 24.36L37.98 24ZM42.99 18.99L43.34 18.64L42.99 18.29L42.64 18.64L42.99 18.99ZM42.99 29.01L42.64 29.36L42.99 29.72L43.34 29.36L42.99 29.01ZM48 24L48.35 24.36L48.71 24L48.35 23.65L48 24ZM5.01 18.99L5.36 18.64L5.01 18.29L4.66 18.64L5.01 18.99ZM0 24L-0.35 23.65L-0.71 24L-0.35 24.36L0 24ZM10.02 24L10.37 24.36L10.72 24L10.37 23.65L10.02 24ZM5.01 29.01L4.66 29.36L5.01 29.72L5.36 29.36L5.01 29.01ZM23.65 -0.35L18.64 4.66L19.34 5.36L24.35 0.35L23.65 -0.35ZM29.36 4.66L24.35 -0.35L23.65 0.35L28.65 5.36L29.36 4.66ZM24.35 10.37L29.36 5.36L28.65 4.66L23.65 9.66L24.35 10.37ZM18.64 5.36L23.65 10.37L24.35 9.66L19.34 4.66L18.64 5.36ZM33.14 9.85L38.15 14.86L38.86 14.15L33.85 9.14L33.14 9.85ZM26.96 16.74L33.85 9.85L33.14 9.14L26.25 16.03L26.96 16.74ZM21.04 16.74C22.67 18.37 25.33 18.37 26.96 16.74L26.25 16.03C25.01 17.28 22.99 17.28 21.74 16.03L21.04 16.74ZM14.15 9.85L21.04 16.74L21.74 16.03L14.86 9.14L14.15 9.85ZM9.85 14.86L14.86 9.85L14.15 9.14L9.14 14.15L9.85 14.86ZM16.73 21.04L9.85 14.15L9.14 14.86L16.03 21.75L16.73 21.04ZM16.73 26.96C18.37 25.33 18.37 22.68 16.73 21.04L16.03 21.75C17.27 22.99 17.27 25.01 16.03 26.26L16.73 26.96ZM9.85 33.85L16.73 26.96L16.03 26.26L9.14 33.14L9.85 33.85ZM14.86 38.15L9.85 33.14L9.14 33.85L14.15 38.86L14.86 38.15ZM21.04 31.27L14.15 38.15L14.86 38.86L21.74 31.97L21.04 31.27ZM26.96 31.27C25.33 29.63 22.67 29.63 21.04 31.27L21.74 31.97C22.99 30.73 25.01 30.73 26.25 31.97L26.96 31.27ZM33.85 38.15L26.96 31.27L26.25 31.97L33.14 38.86L33.85 38.15ZM38.15 33.14L33.14 38.15L33.85 38.86L38.86 33.85L38.15 33.14ZM31.26 26.96L38.15 33.85L38.86 33.14L31.97 26.26L31.26 26.96ZM31.26 21.04C29.63 22.68 29.63 25.33 31.26 26.96L31.97 26.26C30.73 25.01 30.73 22.99 31.97 21.75L31.26 21.04ZM38.15 14.15L31.26 21.04L31.97 21.75L38.86 14.86L38.15 14.15ZM19.34 43.34L24.35 38.34L23.64 37.63L18.64 42.64L19.34 43.34ZM24.35 47.65L19.34 42.64L18.64 43.34L23.64 48.35L24.35 47.65ZM28.65 42.64L23.64 47.65L24.35 48.35L29.36 43.34L28.65 42.64ZM23.64 38.34L28.65 43.34L29.36 42.64L24.35 37.63L23.64 38.34ZM38.34 24.36L43.34 19.35L42.64 18.64L37.63 23.65L38.34 24.36ZM43.34 28.66L38.34 23.65L37.63 24.36L42.64 29.36L43.34 28.66ZM47.65 23.65L42.64 28.66L43.34 29.36L48.35 24.36L47.65 23.65ZM42.64 19.35L47.65 24.36L48.35 23.65L43.34 18.64L42.64 19.35ZM4.66 18.64L-0.35 23.65L0.35 24.36L5.36 19.35L4.66 18.64ZM10.37 23.65L5.36 18.64L4.66 19.35L9.66 24.36L10.37 23.65ZM5.36 29.36L10.37 24.36L9.66 23.65L4.66 28.66L5.36 29.36ZM-0.35 24.36L4.66 29.36L5.36 28.66L0.35 23.65L-0.35 24.36Z"
        fill="url(#linear-white)"
        mask="url(#path-1-inside-1_893_107)"
      />
    </symbol>
    <symbol id="gql-logo" width="100" height="100" viewBox="0 0 100 100">
      <g fill="url(#linear-blue)">
        <path
          fill-rule="evenodd"
          clip-rule="evenodd"
          d="M50 6.90308L87.323 28.4515V71.5484L50 93.0968L12.677 71.5484V28.4515L50 6.90308ZM16.8647 30.8693V62.5251L44.2795 15.0414L16.8647 30.8693ZM50 13.5086L18.3975 68.2457H81.6025L50 13.5086ZM77.4148 72.4334H22.5852L50 88.2613L77.4148 72.4334ZM83.1353 62.5251L55.7205 15.0414L83.1353 30.8693V62.5251Z"
        />
        <circle cx="50" cy="9.3209" r="8.82" />
        <circle cx="85.2292" cy="29.6605" r="8.82" />
        <circle cx="85.2292" cy="70.3396" r="8.82" />
        <circle cx="50" cy="90.6791" r="8.82" />
        <circle cx="14.7659" cy="70.3396" r="8.82" />
        <circle cx="14.7659" cy="29.6605" r="8.82" />
      </g>
    </symbol>
    <linearGradient
      id="linear-blue"
      x1="0"
      y1="0"
      x2="100%"
      y2="100%"
      gradientUnits="objectBoundingBox"
    >
      <stop stop-color="#8CBEB3" />
      <stop offset="1" stop-color="#68A8B6" />
    </linearGradient>
    <linearGradient
      id="linear-white"
      x1="0"
      y1="0"
      x2="100%"
      y2="100%"
      gradientUnits="objectBoundingBox"
    >
      <stop stop-color="white" stop-opacity="0.4" />
      <stop offset="1" stop-color="white" stop-opacity="0.1" />
    </linearGradient>
  </defs>
</svg>
